Araya-600.ufo
<glyph name="exclam" format="1">
  <advance width="259"/>
  <unicode hex="0021"/>
  <note>
	exclam
  </note>
  <outline>
    <contour>
      <point x="179" y="167" type="line"/>
      <point x="187" y="426" type="line"/>
      <point x="187" y="618" type="line"/>
      <point x="72" y="618" type="line"/>
      <point x="72" y="426" type="line"/>
      <point x="80" y="167" type="line"/>
    </contour>
    <contour>
      <point x="187" y="0" type="line"/>
      <point x="187" y="104" type="line"/>
      <point x="72" y="104" type="line"/>
      <point x="72" y="0" type="line"/>
    </contour>
  </outline>
</glyph>
<glyph name="quotedbl" format="1">
  <advance width="345"/>
  <unicode hex="0022"/>
  <note>
	quotedbl
  </note>
  <outline>
    <contour>
      <point x="202" y="419" type="line"/>
      <point x="211" y="544" type="line" smooth="yes"/>
      <point x="212" y="567"/>
      <point x="212" y="590"/>
      <point x="208" y="616" type="curve"/>
      <point x="122" y="616" type="line"/>
      <point x="118" y="590"/>
      <point x="118" y="567"/>
      <point x="119" y="544" type="curve" smooth="yes"/>
      <point x="128" y="419" type="line"/>
    </contour>
    <contour>
      <point x="217" y="419" type="line"/>
      <point x="226" y="544" type="line" smooth="yes"/>
      <point x="227" y="567"/>
      <point x="227" y="590"/>
      <point x="223" y="616" type="curve"/>
      <point x="137" y="616" type="line"/>
      <point x="133" y="590"/>
      <point x="133" y="567"/>
      <point x="134" y="544" type="curve" smooth="yes"/>
      <point x="143" y="419" type="line"/>
    </contour>
  </outline>
</glyph>
<glyph name="dollar" format="1">
  <advance width="541"/>
  <unicode hex="0024"/>
  <note>
	dollar
  </note>
  <outline>
    <contour>
      <point x="327" y="-110" type="line"/>
      <point x="327" y="-3" type="line"/>
      <point x="450" y="13"/>
      <point x="494" y="88"/>
      <point x="494" y="177" type="curve" smooth="yes"/>
      <point x="494" y="291"/>
      <point x="427" y="332"/>
      <point x="301" y="359" type="curve" smooth="yes"/>
      <point x="208" y="380"/>
      <point x="176" y="399"/>
      <point x="176" y="450" type="curve" smooth="yes"/>
      <point x="176" y="507"/>
      <point x="207" y="531"/>
      <point x="281" y="531" type="curve" smooth="yes"/>
      <point x="310" y="531"/>
      <point x="333" y="529"/>
      <point x="360" y="525" type="curve"/>
      <point x="371" y="450" type="line"/>
      <point x="456" y="450" type="line"/>
      <point x="465" y="475"/>
      <point x="473" y="524"/>
      <point x="473" y="554" type="curve" smooth="yes"/>
      <point x="473" y="584" type="line"/>
      <point x="436" y="603"/>
      <point x="394" y="621"/>
      <point x="327" y="626" type="curve"/>
      <point x="327" y="716" type="line"/>
      <point x="225" y="716" type="line"/>
      <point x="225" y="623" type="line"/>
      <point x="110" y="604"/>
      <point x="66" y="530"/>
      <point x="66" y="444" type="curve" smooth="yes"/>
      <point x="66" y="320"/>
      <point x="156" y="283"/>
      <point x="273" y="255" type="curve" smooth="yes"/>
      <point x="357" y="235"/>
      <point x="384" y="214"/>
      <point x="384" y="163" type="curve" smooth="yes"/>
      <point x="384" y="141"/>
      <point x="381" y="119"/>
      <point x="374" y="101" type="curve"/>
      <point x="346" y="95"/>
      <point x="317" y="92"/>
      <point x="273" y="92" type="curve" smooth="yes"/>
      <point x="203" y="92"/>
      <point x="141" y="106"/>
      <point x="83" y="137" type="curve"/>
      <point x="46" y="44" type="line"/>
      <point x="98" y="16"/>
      <point x="158" y="-1"/>
      <point x="225" y="-6" type="curve"/>
      <point x="225" y="-110" type="line"/>
    </contour>
  </outline>
</glyph>
<glyph name="ampersand" format="1">
  <advance width="697"/>
  <unicode hex="0026"/>
  <note>
	ampersand
  </note>
  <outline>
    <contour>
      <point x="380" y="-16"/>
      <point x="434" y="-6"/>
      <point x="474" y="12" type="curve"/>
      <point x="484" y="27"/>
      <point x="492" y="47"/>
      <point x="498" y="67" type="curve"/>
      <point x="506" y="67" type="line"/>
      <point x="574" y="-9" type="line"/>
      <point x="651" y="45" type="line"/>
      <point x="532" y="163" type="line"/>
      <point x="547" y="207"/>
      <point x="553" y="237"/>
      <point x="566" y="304" type="curve"/>
      <point x="464" y="326" type="line"/>
      <point x="458" y="281"/>
      <point x="454" y="257"/>
      <point x="445" y="226" type="curve"/>
      <point x="294" y="367" type="line" smooth="yes"/>
      <point x="263" y="396"/>
      <point x="252" y="411"/>
      <point x="252" y="450" type="curve" smooth="yes"/>
      <point x="252" y="491"/>
      <point x="273" y="509"/>
      <point x="330" y="509" type="curve" smooth="yes"/>
      <point x="361" y="509"/>
      <point x="382" y="506"/>
      <point x="402" y="498" type="curve"/>
      <point x="411" y="422" type="line"/>
      <point x="497" y="422" type="line"/>
      <point x="505" y="442"/>
      <point x="510" y="478"/>
      <point x="510" y="501" type="curve" smooth="yes"/>
      <point x="510" y="538" type="line"/>
      <point x="482" y="572"/>
      <point x="426" y="606"/>
      <point x="332" y="606" type="curve" smooth="yes"/>
      <point x="214" y="606"/>
      <point x="143" y="553"/>
      <point x="143" y="454" type="curve" smooth="yes"/>
      <point x="143" y="409"/>
      <point x="161" y="378"/>
      <point x="196" y="344" type="curve"/>
      <point x="196" y="336" type="line"/>
      <point x="112" y="304"/>
      <point x="64" y="256"/>
      <point x="64" y="160" type="curve" smooth="yes"/>
      <point x="64" y="45"/>
      <point x="149" y="-16"/>
      <point x="296" y="-16" type="curve" smooth="yes"/>
    </contour>
    <contour>
      <point x="220" y="81"/>
      <point x="173" y="104"/>
      <point x="173" y="165" type="curve" smooth="yes"/>
      <point x="173" y="225"/>
      <point x="201" y="253"/>
      <point x="257" y="271" type="curve"/>
      <point x="408" y="128" type="line"/>
      <point x="406" y="114"/>
      <point x="402" y="101"/>
      <point x="396" y="91" type="curve"/>
      <point x="371" y="85"/>
      <point x="344" y="81"/>
      <point x="299" y="81" type="curve" smooth="yes"/>
    </contour>
  </outline>
</glyph>
<glyph name="parenright" format="1">
  <advance width="326"/>
  <unicode hex="0029"/>
  <note>
	parenright
  </note>
  <outline>
    <contour>
      <point x="203" y="-84"/>
      <point x="248" y="-44"/>
      <point x="255" y="-4" type="curve"/>
      <point x="255" y="620" type="line"/>
      <point x="248" y="660"/>
      <point x="203" y="700"/>
      <point x="154" y="713" type="curve"/>
      <point x="121" y="714"/>
      <point x="88" y="709"/>
      <point x="68" y="703" type="curve"/>
      <point x="68" y="616" type="line"/>
      <point x="146" y="616" type="line"/>
      <point x="146" y="0" type="line"/>
      <point x="68" y="0" type="line"/>
      <point x="68" y="-87" type="line"/>
      <point x="88" y="-93"/>
      <point x="121" y="-98"/>
      <point x="154" y="-97" type="curve"/>
    </contour>
  </outline>
</glyph>
<glyph name="comma" format="1">
  <advance width="254"/>
  <unicode hex="002C"/>
  <note>
	comma
  </note>
  <outline>
    <contour>
      <point x="177" y="-73"/>
      <point x="198" y="-26"/>
      <point x="198" y="17" type="curve" smooth="yes"/>
      <point x="198" y="68"/>
      <point x="174" y="94"/>
      <point x="121" y="94" type="curve" smooth="yes"/>
      <point x="100" y="94"/>
      <point x="76" y="90"/>
      <point x="58" y="83" type="curve"/>
      <point x="58" y="10" type="line"/>
      <point x="111" y="10" type="line"/>
      <point x="110" y="-25"/>
      <point x="99" y="-57"/>
      <point x="79" y="-92" type="curve"/>
      <point x="146" y="-107" type="line"/>
    </contour>
  </outline>
</glyph>
<glyph name="zero" format="1">
  <advance width="626"/>
  <unicode hex="0030"/>
  <note>
	zero
  </note>
  <outline>
    <contour>
      <point x="498" y="-9"/>
      <point x="575" y="100"/>
      <point x="575" y="311" type="curve" smooth="yes"/>
      <point x="575" y="512"/>
      <point x="495" y="606"/>
      <point x="323" y="606" type="curve" smooth="yes"/>
      <point x="128" y="606"/>
      <point x="51" y="493"/>
      <point x="51" y="286" type="curve" smooth="yes"/>
      <point x="51" y="85"/>
      <point x="136" y="-9"/>
      <point x="303" y="-9" type="curve" smooth="yes"/>
    </contour>
    <contour>
      <point x="192" y="92"/>
      <point x="162" y="158"/>
      <point x="162" y="305" type="curve" smooth="yes"/>
      <point x="162" y="381"/>
      <point x="173" y="436"/>
      <point x="192" y="488" type="curve"/>
      <point x="218" y="498"/>
      <point x="264" y="505"/>
      <point x="309" y="505" type="curve" smooth="yes"/>
      <point x="426" y="505"/>
      <point x="464" y="448"/>
      <point x="464" y="292" type="curve" smooth="yes"/>
      <point x="464" y="215"/>
      <point x="453" y="160"/>
      <point x="435" y="109" type="curve"/>
      <point x="410" y="99"/>
      <point x="364" y="92"/>
      <point x="317" y="92" type="curve" smooth="yes"/>
    </contour>
  </outline>
</glyph>
<glyph name="one" format="1">
  <advance width="381"/>
  <unicode hex="0031"/>
  <note>
	one
  </note>
  <outline>
    <contour>
      <point x="296" y="0" type="line"/>
      <point x="296" y="547" type="line" smooth="yes"/>
      <point x="296" y="568"/>
      <point x="233" y="608"/>
      <point x="197" y="608" type="curve"/>
      <point x="36" y="521" type="line"/>
      <point x="66" y="450" type="line"/>
      <point x="177" y="489" type="line"/>
      <point x="186" y="483" type="line"/>
      <point x="186" y="0" type="line"/>
    </contour>
  </outline>
</glyph>
<glyph name="two" format="1">
  <advance width="565"/>
  <unicode hex="0032"/>
  <note>
	two
  </note>
  <outline>
    <contour>
      <point x="511" y="0" type="line"/>
      <point x="511" y="54" type="line" smooth="yes"/>
      <point x="511" y="87"/>
      <point x="505" y="126"/>
      <point x="495" y="155" type="curve"/>
      <point x="403" y="155" type="line"/>
      <point x="403" y="95" type="line"/>
      <point x="167" y="95" type="line"/>
      <point x="167" y="102" type="line"/>
      <point x="355" y="200"/>
      <point x="488" y="289"/>
      <point x="488" y="440" type="curve" smooth="yes"/>
      <point x="488" y="553"/>
      <point x="423" y="608"/>
      <point x="283" y="608" type="curve" smooth="yes"/>
      <point x="201" y="608"/>
      <point x="131" y="590"/>
      <point x="69" y="560" type="curve"/>
      <point x="69" y="513" type="line" smooth="yes"/>
      <point x="69" y="474"/>
      <point x="76" y="438"/>
      <point x="86" y="407" type="curve"/>
      <point x="177" y="407" type="line"/>
      <point x="177" y="494" type="line"/>
      <point x="210" y="504"/>
      <point x="239" y="508"/>
      <point x="279" y="508" type="curve" smooth="yes"/>
      <point x="347" y="508"/>
      <point x="377" y="491"/>
      <point x="377" y="431" type="curve" smooth="yes"/>
      <point x="377" y="324"/>
      <point x="234" y="241"/>
      <point x="49" y="136" type="curve"/>
      <point x="49" y="0" type="line"/>
    </contour>
  </outline>
</glyph>
<glyph name="three" format="1">
  <advance width="530"/>
  <unicode hex="0033"/>
  <note>
	three
  </note>
  <outline>
    <contour>
      <point x="402" y="-10"/>
      <point x="470" y="52"/>
      <point x="470" y="158" type="curve" smooth="yes"/>
      <point x="470" y="230"/>
      <point x="445" y="266"/>
      <point x="370" y="294" type="curve"/>
      <point x="370" y="300" type="line"/>
      <point x="432" y="328"/>
      <point x="463" y="366"/>
      <point x="463" y="440" type="curve" smooth="yes"/>
      <point x="463" y="544"/>
      <point x="397" y="608"/>
      <point x="259" y="608" type="curve" smooth="yes"/>
      <point x="176" y="608"/>
      <point x="108" y="592"/>
      <point x="44" y="565" type="curve"/>
      <point x="44" y="526" type="line" smooth="yes"/>
      <point x="44" y="490"/>
      <point x="52" y="452"/>
      <point x="61" y="423" type="curve"/>
      <point x="151" y="423" type="line"/>
      <point x="151" y="497" type="line"/>
      <point x="186" y="505"/>
      <point x="215" y="509"/>
      <point x="253" y="509" type="curve" smooth="yes"/>
      <point x="322" y="509"/>
      <point x="355" y="484"/>
      <point x="355" y="425" type="curve" smooth="yes"/>
      <point x="355" y="372"/>
      <point x="324" y="342"/>
      <point x="250" y="342" type="curve" smooth="yes"/>
      <point x="148" y="342" type="line"/>
      <point x="148" y="246" type="line"/>
      <point x="248" y="246" type="line" smooth="yes"/>
      <point x="336" y="246"/>
      <point x="362" y="221"/>
      <point x="362" y="165" type="curve" smooth="yes"/>
      <point x="362" y="138"/>
      <point x="357" y="118"/>
      <point x="345" y="99" type="curve"/>
      <point x="310" y="92"/>
      <point x="281" y="90"/>
      <point x="232" y="90" type="curve" smooth="yes"/>
      <point x="171" y="90"/>
      <point x="114" y="98"/>
      <point x="60" y="114" type="curve"/>
      <point x="42" y="17" type="line"/>
      <point x="99" y="0"/>
      <point x="167" y="-10"/>
      <point x="234" y="-10" type="curve" smooth="yes"/>
    </contour>
  </outline>
</glyph>
<glyph name="four" format="1">
  <advance width="575"/>
  <unicode hex="0034"/>
  <note>
	four
  </note>
  <outline>
    <contour>
      <point x="452" y="0" type="line"/>
      <point x="452" y="103" type="line"/>
      <point x="537" y="103" type="line"/>
      <point x="537" y="197" type="line"/>
      <point x="452" y="197" type="line"/>
      <point x="452" y="608" type="line"/>
      <point x="316" y="608" type="line"/>
      <point x="32" y="191" type="line"/>
      <point x="57" y="103" type="line"/>
      <point x="346" y="103" type="line"/>
      <point x="346" y="0" type="line"/>
    </contour>
    <contour>
      <point x="154" y="205" type="line"/>
      <point x="350" y="498" type="line"/>
      <point x="358" y="498" type="line"/>
      <point x="346" y="341" type="line"/>
      <point x="346" y="197" type="line"/>
      <point x="156" y="197" type="line"/>
    </contour>
  </outline>
</glyph>
<glyph name="five" format="1">
  <advance width="535"/>
  <unicode hex="0035"/>
  <note>
	five
  </note>
  <outline>
    <contour>
      <point x="417" y="-10"/>
      <point x="490" y="67"/>
      <point x="490" y="199" type="curve" smooth="yes"/>
      <point x="490" y="329"/>
      <point x="420" y="384"/>
      <point x="294" y="384" type="curve" smooth="yes"/>
      <point x="249" y="384"/>
      <point x="214" y="375"/>
      <point x="179" y="364" type="curve"/>
      <point x="190" y="509" type="line"/>
      <point x="448" y="509" type="line"/>
      <point x="448" y="608" type="line"/>
      <point x="90" y="608" type="line"/>
      <point x="67" y="321" type="line"/>
      <point x="147" y="258" type="line"/>
      <point x="194" y="277"/>
      <point x="223" y="284"/>
      <point x="274" y="284" type="curve" smooth="yes"/>
      <point x="348" y="284"/>
      <point x="380" y="262"/>
      <point x="380" y="192" type="curve" smooth="yes"/>
      <point x="380" y="154"/>
      <point x="375" y="130"/>
      <point x="363" y="103" type="curve"/>
      <point x="331" y="95"/>
      <point x="296" y="90"/>
      <point x="247" y="90" type="curve" smooth="yes"/>
      <point x="184" y="90"/>
      <point x="128" y="99"/>
      <point x="64" y="117" type="curve"/>
      <point x="50" y="17" type="line"/>
      <point x="115" y="-2"/>
      <point x="174" y="-10"/>
      <point x="243" y="-10" type="curve" smooth="yes"/>
    </contour>
  </outline>
</glyph>
<glyph name="six" format="1">
  <advance width="527"/>
  <unicode hex="0036"/>
  <note>
	six
  </note>
  <outline>
    <contour>
      <point x="438" y="0"/>
      <point x="497" y="96"/>
      <point x="497" y="192" type="curve" smooth="yes"/>
      <point x="497" y="311"/>
      <point x="435" y="375"/>
      <point x="310" y="375" type="curve" smooth="yes"/>
      <point x="262" y="375"/>
      <point x="218" y="363"/>
      <point x="177" y="342" type="curve"/>
      <point x="204" y="422"/>
      <point x="265" y="486"/>
      <point x="377" y="560" type="curve"/>
      <point x="288" y="608" type="line"/>
      <point x="135" y="503"/>
      <point x="50" y="395"/>
      <point x="50" y="232" type="curve" smooth="yes"/>
      <point x="50" y="90"/>
      <point x="123" y="0"/>
      <point x="275" y="0" type="curve" smooth="yes"/>
    </contour>
    <contour>
      <point x="191" y="98"/>
      <point x="159" y="137"/>
      <point x="159" y="232" type="curve" smooth="yes"/>
      <point x="159" y="239"/>
      <point x="159" y="245"/>
      <point x="159" y="252" type="curve"/>
      <point x="203" y="273"/>
      <point x="245" y="282"/>
      <point x="287" y="282" type="curve" smooth="yes"/>
      <point x="366" y="282"/>
      <point x="387" y="255"/>
      <point x="387" y="190" type="curve" smooth="yes"/>
      <point x="387" y="159"/>
      <point x="382" y="133"/>
      <point x="372" y="109" type="curve"/>
      <point x="344" y="101"/>
      <point x="321" y="98"/>
      <point x="281" y="98" type="curve" smooth="yes"/>
    </contour>
  </outline>
</glyph>
<glyph name="seven" format="1">
  <advance width="546"/>
  <unicode hex="0037"/>
  <note>
	seven
  </note>
  <outline>
    <contour>
      <point x="315" y="188"/>
      <point x="381" y="332"/>
      <point x="505" y="497" type="curve"/>
      <point x="505" y="608" type="line"/>
      <point x="44" y="608" type="line"/>
      <point x="44" y="544" type="line" smooth="yes"/>
      <point x="44" y="503"/>
      <point x="51" y="464"/>
      <point x="61" y="435" type="curve"/>
      <point x="151" y="435" type="line"/>
      <point x="151" y="507" type="line"/>
      <point x="388" y="507" type="line"/>
      <point x="388" y="501" type="line"/>
      <point x="283" y="368"/>
      <point x="208" y="229"/>
      <point x="167" y="10" type="curve"/>
      <point x="281" y="0" type="line"/>
    </contour>
  </outline>
</glyph>
<glyph name="eight" format="1">
  <advance width="572"/>
  <unicode hex="0038"/>
  <note>
	eight
  </note>
  <outline>
    <contour>
      <point x="438" y="-9"/>
      <point x="516" y="56"/>
      <point x="516" y="163" type="curve" smooth="yes"/>
      <point x="516" y="229"/>
      <point x="492" y="261"/>
      <point x="436" y="295" type="curve"/>
      <point x="436" y="303" type="line"/>
      <point x="479" y="332"/>
      <point x="505" y="367"/>
      <point x="505" y="432" type="curve" smooth="yes"/>
      <point x="505" y="541"/>
      <point x="437" y="606"/>
      <point x="302" y="606" type="curve" smooth="yes"/>
      <point x="157" y="606"/>
      <point x="71" y="537"/>
      <point x="71" y="432" type="curve" smooth="yes"/>
      <point x="71" y="372"/>
      <point x="95" y="346"/>
      <point x="136" y="318" type="curve"/>
      <point x="136" y="310" type="line"/>
      <point x="91" y="276"/>
      <point x="56" y="247"/>
      <point x="56" y="166" type="curve" smooth="yes"/>
      <point x="56" y="57"/>
      <point x="131" y="-9"/>
      <point x="280" y="-9" type="curve" smooth="yes"/>
    </contour>
    <contour>
      <point x="202" y="84"/>
      <point x="164" y="102"/>
      <point x="164" y="172" type="curve" smooth="yes"/>
      <point x="164" y="204"/>
      <point x="167" y="221"/>
      <point x="178" y="250" type="curve"/>
      <point x="209" y="259"/>
      <point x="245" y="262"/>
      <point x="281" y="262" type="curve" smooth="yes"/>
      <point x="379" y="262"/>
      <point x="408" y="241"/>
      <point x="408" y="158" type="curve" smooth="yes"/>
      <point x="408" y="133"/>
      <point x="406" y="118"/>
      <point x="399" y="99" type="curve"/>
      <point x="373" y="89"/>
      <point x="344" y="84"/>
      <point x="304" y="84" type="curve" smooth="yes"/>
    </contour>
    <contour>
      <point x="214" y="347"/>
      <point x="178" y="364"/>
      <point x="178" y="430" type="curve" smooth="yes"/>
      <point x="178" y="458"/>
      <point x="182" y="477"/>
      <point x="190" y="501" type="curve"/>
      <point x="218" y="510"/>
      <point x="248" y="513"/>
      <point x="281" y="513" type="curve" smooth="yes"/>
      <point x="370" y="513"/>
      <point x="398" y="498"/>
      <point x="398" y="419" type="curve" smooth="yes"/>
      <point x="398" y="395"/>
      <point x="394" y="376"/>
      <point x="386" y="356" type="curve"/>
      <point x="364" y="349"/>
      <point x="340" y="347"/>
      <point x="303" y="347" type="curve" smooth="yes"/>
    </contour>
  </outline>
</glyph>
<glyph name="nine" format="1">
  <advance width="529"/>
  <unicode hex="0039"/>
  <note>
	nine
  </note>
  <outline>
    <contour>
      <point x="399" y="103"/>
      <point x="479" y="200"/>
      <point x="479" y="366" type="curve" smooth="yes"/>
      <point x="479" y="511"/>
      <point x="410" y="608"/>
      <point x="259" y="608" type="curve" smooth="yes"/>
      <point x="98" y="608"/>
      <point x="30" y="503"/>
      <point x="30" y="390" type="curve" smooth="yes"/>
      <point x="30" y="269"/>
      <point x="103" y="196"/>
      <point x="222" y="196" type="curve" smooth="yes"/>
      <point x="261" y="196"/>
      <point x="298" y="206"/>
      <point x="331" y="223" type="curve"/>
      <point x="301" y="162"/>
      <point x="245" y="109"/>
      <point x="152" y="47" type="curve"/>
      <point x="241" y="0" type="line"/>
    </contour>
    <contour>
      <point x="169" y="289"/>
      <point x="140" y="325"/>
      <point x="140" y="392" type="curve" smooth="yes"/>
      <point x="140" y="432"/>
      <point x="146" y="464"/>
      <point x="158" y="499" type="curve"/>
      <point x="186" y="507"/>
      <point x="214" y="510"/>
      <point x="249" y="510" type="curve" smooth="yes"/>
      <point x="333" y="510"/>
      <point x="371" y="465"/>
      <point x="371" y="366" type="curve" smooth="yes"/>
      <point x="371" y="349"/>
      <point x="369" y="333"/>
      <point x="368" y="317" type="curve"/>
      <point x="327" y="295"/>
      <point x="285" y="289"/>
      <point x="244" y="289" type="curve" smooth="yes"/>
    </contour>
  </outline>
</glyph>
<glyph name="B" format="1">
  <advance width="562"/>
  <unicode hex="0042"/>
  <note>
	B
  </note>
  <outline>
    <contour>
      <point x="263" y="0" type="line" smooth="yes"/>
      <point x="461" y="0"/>
      <point x="521" y="60"/>
      <point x="521" y="174" type="curve" smooth="yes"/>
      <point x="521" y="241"/>
      <point x="488" y="288"/>
      <point x="408" y="311" type="curve"/>
      <point x="408" y="317" type="line"/>
      <point x="466" y="348"/>
      <point x="491" y="389"/>
      <point x="491" y="450" type="curve" smooth="yes"/>
      <point x="491" y="572"/>
      <point x="408" y="626"/>
      <point x="251" y="626" type="curve" smooth="yes"/>
      <point x="184" y="626"/>
      <point x="126" y="616"/>
      <point x="71" y="599" type="curve"/>
      <point x="71" y="0" type="line"/>
    </contour>
    <contour>
      <point x="180" y="260" type="line"/>
      <point x="302" y="260" type="line" smooth="yes"/>
      <point x="380" y="260"/>
      <point x="412" y="230"/>
      <point x="412" y="177" type="curve" smooth="yes"/>
      <point x="412" y="118"/>
      <point x="378" y="95"/>
      <point x="261" y="95" type="curve" smooth="yes"/>
      <point x="180" y="95" type="line"/>
    </contour>
    <contour>
      <point x="180" y="523" type="line"/>
      <point x="202" y="528"/>
      <point x="225" y="531"/>
      <point x="251" y="531" type="curve" smooth="yes"/>
      <point x="342" y="531"/>
      <point x="382" y="510"/>
      <point x="382" y="442" type="curve" smooth="yes"/>
      <point x="382" y="407"/>
      <point x="370" y="379"/>
      <point x="346" y="354" type="curve"/>
      <point x="180" y="354" type="line"/>
    </contour>
  </outline>
</glyph>
<glyph name="F" format="1">
  <advance width="517"/>
  <unicode hex="0046"/>
  <note>
	F
  </note>
  <outline>
    <contour>
      <point x="181" y="0" type="line"/>
      <point x="181" y="254" type="line"/>
      <point x="446" y="254" type="line"/>
      <point x="446" y="352" type="line"/>
      <point x="181" y="352" type="line"/>
      <point x="181" y="517" type="line"/>
      <point x="497" y="517" type="line"/>
      <point x="497" y="618" type="line"/>
      <point x="71" y="618" type="line"/>
      <point x="71" y="0" type="line"/>
    </contour>
  </outline>
</glyph>
<glyph name="J" format="1">
  <advance width="446"/>
  <unicode hex="004A"/>
  <note>
	J
  </note>
  <outline>
    <contour>
      <point x="313" y="-9"/>
      <point x="377" y="50"/>
      <point x="377" y="156" type="curve" smooth="yes"/>
      <point x="377" y="618" type="line"/>
      <point x="267" y="618" type="line"/>
      <point x="267" y="167" type="line" smooth="yes"/>
      <point x="267" y="143"/>
      <point x="265" y="123"/>
      <point x="261" y="107" type="curve"/>
      <point x="241" y="98"/>
      <point x="214" y="92"/>
      <point x="174" y="92" type="curve" smooth="yes"/>
      <point x="129" y="92"/>
      <point x="86" y="102"/>
      <point x="51" y="115" type="curve"/>
      <point x="26" y="21" type="line"/>
      <point x="66" y="2"/>
      <point x="125" y="-9"/>
      <point x="179" y="-9" type="curve" smooth="yes"/>
    </contour>
  </outline>
</glyph>
<glyph name="L" format="1">
  <advance width="474"/>
  <unicode hex="004C"/>
  <note>
	L
  </note>
  <outline>
    <contour>
      <point x="454" y="0" type="line"/>
      <point x="454" y="102" type="line"/>
      <point x="181" y="102" type="line"/>
      <point x="181" y="618" type="line"/>
      <point x="71" y="618" type="line"/>
      <point x="71" y="0" type="line"/>
    </contour>
  </outline>
</glyph>
<glyph name="M" format="1">
  <advance width="712"/>
  <unicode hex="004D"/>
  <note>
	M
  </note>
  <outline>
    <contour>
      <point x="175" y="0" type="line"/>
      <point x="187" y="311" type="line"/>
      <point x="185" y="467" type="line"/>
      <point x="193" y="469" type="line"/>
      <point x="313" y="169" type="line"/>
      <point x="398" y="169" type="line"/>
      <point x="518" y="469" type="line"/>
      <point x="526" y="467" type="line"/>
      <point x="525" y="311" type="line"/>
      <point x="536" y="0" type="line"/>
      <point x="647" y="0" type="line"/>
      <point x="623" y="618" type="line"/>
      <point x="485" y="618" type="line"/>
      <point x="359" y="280" type="line"/>
      <point x="352" y="280" type="line"/>
      <point x="227" y="618" type="line"/>
      <point x="88" y="618" type="line"/>
      <point x="64" y="0" type="line"/>
    </contour>
  </outline>
</glyph>
<glyph name="P" format="1">
  <advance width="545"/>
  <unicode hex="0050"/>
  <note>
	P
  </note>
  <outline>
    <contour>
      <point x="181" y="0" type="line"/>
      <point x="181" y="187" type="line"/>
      <point x="250" y="187" type="line" smooth="yes"/>
      <point x="434" y="187"/>
      <point x="516" y="264"/>
      <point x="516" y="414" type="curve" smooth="yes"/>
      <point x="516" y="561"/>
      <point x="425" y="626"/>
      <point x="262" y="626" type="curve" smooth="yes"/>
      <point x="195" y="626"/>
      <point x="126" y="615"/>
      <point x="71" y="598" type="curve"/>
      <point x="71" y="0" type="line"/>
    </contour>
    <contour>
      <point x="181" y="518" type="line"/>
      <point x="206" y="524"/>
      <point x="234" y="526"/>
      <point x="265" y="526" type="curve" smooth="yes"/>
      <point x="355" y="526"/>
      <point x="407" y="496"/>
      <point x="407" y="409" type="curve" smooth="yes"/>
      <point x="407" y="364"/>
      <point x="398" y="327"/>
      <point x="381" y="299" type="curve"/>
      <point x="343" y="289"/>
      <point x="301" y="286"/>
      <point x="236" y="286" type="curve" smooth="yes"/>
      <point x="181" y="286" type="line"/>
    </contour>
  </outline>
</glyph>
<glyph name="Q" format="1">
  <advance width="640"/>
  <unicode hex="0051"/>
  <note>
	Q
  </note>
  <outline>
    <contour>
      <point x="453" y="-140"/>
      <point x="516" y="-137"/>
      <point x="561" y="-124" type="curve"/>
      <point x="546" y="-42" type="line"/>
      <point x="501" y="-52"/>
      <point x="440" y="-55"/>
      <point x="396" y="-55" type="curve" smooth="yes"/>
      <point x="370" y="-55"/>
      <point x="344" y="-53"/>
      <point x="325" y="-50" type="curve"/>
      <point x="325" y="4" type="line"/>
      <point x="330" y="4"/>
      <point x="336" y="4"/>
      <point x="345" y="5" type="curve" smooth="yes"/>
      <point x="513" y="17"/>
      <point x="590" y="121"/>
      <point x="590" y="327" type="curve" smooth="yes"/>
      <point x="590" y="528"/>
      <point x="506" y="628"/>
      <point x="329" y="628" type="curve" smooth="yes"/>
      <point x="134" y="628"/>
      <point x="48" y="518"/>
      <point x="48" y="300" type="curve" smooth="yes"/>
      <point x="48" y="125"/>
      <point x="115" y="29"/>
      <point x="245" y="7" type="curve"/>
      <point x="223" y="-62" type="line"/>
      <point x="223" y="-116" type="line"/>
      <point x="251" y="-129"/>
      <point x="345" y="-140"/>
      <point x="397" y="-140" type="curve" smooth="yes"/>
    </contour>
    <contour>
      <point x="197" y="104"/>
      <point x="157" y="169"/>
      <point x="157" y="318" type="curve" smooth="yes"/>
      <point x="157" y="391"/>
      <point x="171" y="456"/>
      <point x="194" y="508" type="curve"/>
      <point x="221" y="519"/>
      <point x="265" y="526"/>
      <point x="312" y="526" type="curve" smooth="yes"/>
      <point x="443" y="526"/>
      <point x="480" y="460"/>
      <point x="480" y="309" type="curve" smooth="yes"/>
      <point x="480" y="236"/>
      <point x="462" y="171"/>
      <point x="440" y="122" type="curve"/>
      <point x="413" y="111"/>
      <point x="372" y="104"/>
      <point x="325" y="104" type="curve" smooth="yes"/>
    </contour>
  </outline>
</glyph>
<glyph name="R" format="1">
  <advance width="599"/>
  <unicode hex="0052"/>
  <note>
	R
  </note>
  <outline>
    <contour>
      <point x="531" y="-7"/>
      <point x="554" y="-4"/>
      <point x="573" y="2" type="curve"/>
      <point x="573" y="64" type="line"/>
      <point x="527" y="73" type="line"/>
      <point x="462" y="195" type="line" smooth="yes"/>
      <point x="443" y="228"/>
      <point x="422" y="247"/>
      <point x="389" y="260" type="curve"/>
      <point x="389" y="269" type="line"/>
      <point x="462" y="304"/>
      <point x="500" y="362"/>
      <point x="500" y="443" type="curve" smooth="yes"/>
      <point x="500" y="572"/>
      <point x="414" y="628"/>
      <point x="259" y="628" type="curve" smooth="yes"/>
      <point x="190" y="628"/>
      <point x="124" y="616"/>
      <point x="71" y="600" type="curve"/>
      <point x="71" y="0" type="line"/>
      <point x="181" y="0" type="line"/>
      <point x="181" y="237" type="line"/>
      <point x="254" y="237" type="line"/>
      <point x="322" y="236"/>
      <point x="336" y="208"/>
      <point x="357" y="163" type="curve" smooth="yes"/>
      <point x="413" y="44" type="line" smooth="yes"/>
      <point x="429" y="9"/>
      <point x="453" y="-7"/>
      <point x="500" y="-7" type="curve" smooth="yes"/>
    </contour>
    <contour>
      <point x="181" y="523" type="line"/>
      <point x="203" y="528"/>
      <point x="230" y="530"/>
      <point x="258" y="530" type="curve" smooth="yes"/>
      <point x="348" y="530"/>
      <point x="391" y="507"/>
      <point x="391" y="434" type="curve" smooth="yes"/>
      <point x="391" y="383"/>
      <point x="373" y="352"/>
      <point x="337" y="331" type="curve"/>
      <point x="181" y="331" type="line"/>
    </contour>
  </outline>
</glyph>
<glyph name="V" format="1">
  <advance width="611"/>
  <unicode hex="0056"/>
  <note>
	V
  </note>
  <outline>
    <contour>
      <point x="377" y="0" type="line"/>
      <point x="454" y="172"/>
      <point x="532" y="420"/>
      <point x="581" y="619" type="curve"/>
      <point x="467" y="626" type="line"/>
      <point x="426" y="447"/>
      <point x="360" y="229"/>
      <point x="310" y="105" type="curve"/>
      <point x="300" y="105" type="line"/>
      <point x="251" y="229"/>
      <point x="185" y="447"/>
      <point x="144" y="626" type="curve"/>
      <point x="30" y="619" type="line"/>
      <point x="79" y="420"/>
      <point x="158" y="172"/>
      <point x="235" y="0" type="curve"/>
    </contour>
  </outline>
</glyph>
<glyph name="W" format="1">
  <advance width="850"/>
  <unicode hex="0057"/>
  <note>
	W
  </note>
  <outline>
    <contour>
      <point x="304" y="0" type="line"/>
      <point x="344" y="107"/>
      <point x="378" y="213"/>
      <point x="416" y="330" type="curve"/>
      <point x="429" y="330" type="line"/>
      <point x="463" y="212"/>
      <point x="501" y="99"/>
      <point x="535" y="0" type="curve"/>
      <point x="660" y="0" type="line"/>
      <point x="717" y="188"/>
      <point x="770" y="384"/>
      <point x="817" y="608" type="curve"/>
      <point x="705" y="620" type="line"/>
      <point x="670" y="407"/>
      <point x="639" y="265"/>
      <point x="606" y="125" type="curve"/>
      <point x="595" y="125" type="line"/>
      <point x="551" y="275"/>
      <point x="512" y="407"/>
      <point x="469" y="614" type="curve"/>
      <point x="359" y="604" type="line"/>
      <point x="365" y="569"/>
      <point x="374" y="533"/>
      <point x="382" y="498" type="curve"/>
      <point x="333" y="348"/>
      <point x="289" y="214"/>
      <point x="258" y="125" type="curve"/>
      <point x="250" y="125" type="line"/>
      <point x="216" y="265"/>
      <point x="184" y="407"/>
      <point x="148" y="620" type="curve"/>
      <point x="32" y="609" type="line"/>
      <point x="80" y="385"/>
      <point x="132" y="189"/>
      <point x="189" y="0" type="curve"/>
    </contour>
  </outline>
</glyph>
<glyph name="X" format="1">
  <advance width="634"/>
  <unicode hex="0058"/>
  <note>
	X
  </note>
  <outline>
    <contour>
      <point x="198" y="94"/>
      <point x="249" y="171"/>
      <point x="307" y="258" type="curve"/>
      <point x="324" y="258" type="line"/>
      <point x="376" y="176"/>
      <point x="427" y="93"/>
      <point x="474" y="-8" type="curve"/>
      <point x="588" y="15" type="line"/>
      <point x="540" y="113"/>
      <point x="467" y="226"/>
      <point x="406" y="310" type="curve"/>
      <point x="474" y="397"/>
      <point x="544" y="499"/>
      <point x="595" y="600" type="curve"/>
      <point x="484" y="621" type="line"/>
      <point x="434" y="518"/>
      <point x="385" y="441"/>
      <point x="324" y="357" type="curve"/>
      <point x="307" y="357" type="line"/>
      <point x="254" y="439"/>
      <point x="205" y="520"/>
      <point x="157" y="621" type="curve"/>
      <point x="40" y="599" type="line"/>
      <point x="90" y="501"/>
      <point x="165" y="387"/>
      <point x="226" y="304" type="curve"/>
      <point x="160" y="218"/>
      <point x="89" y="114"/>
      <point x="38" y="15" type="curve"/>
      <point x="150" y="-8" type="line"/>
    </contour>
  </outline>
</glyph>
<glyph name="Z" format="1">
  <advance width="578"/>
  <unicode hex="005A"/>
  <note>
	Z
  </note>
  <outline>
    <contour>
      <point x="533" y="0" type="line"/>
      <point x="533" y="49" type="line" smooth="yes"/>
      <point x="533" y="91"/>
      <point x="526" y="135"/>
      <point x="516" y="167" type="curve"/>
      <point x="424" y="167" type="line"/>
      <point x="424" y="97" type="line"/>
      <point x="176" y="97" type="line"/>
      <point x="176" y="111" type="line"/>
      <point x="520" y="505" type="line"/>
      <point x="520" y="618" type="line"/>
      <point x="56" y="618" type="line"/>
      <point x="56" y="569" type="line" smooth="yes"/>
      <point x="56" y="526"/>
      <point x="63" y="483"/>
      <point x="73" y="451" type="curve"/>
      <point x="165" y="451" type="line"/>
      <point x="165" y="519" type="line"/>
      <point x="394" y="519" type="line"/>
      <point x="394" y="507" type="line"/>
      <point x="46" y="107" type="line"/>
      <point x="46" y="0" type="line"/>
    </contour>
  </outline>
</glyph>
<glyph name="backslash" format="1">
  <advance width="443"/>
  <unicode hex="005C"/>
  <note>
	backslash
  </note>
  <outline>
    <contour>
      <point x="389" y="1" type="line"/>
      <point x="146" y="639" type="line"/>
      <point x="54" y="616" type="line"/>
      <point x="297" y="-23" type="line"/>
    </contour>
  </outline>
</glyph>
<glyph name="asciicircum" format="1">
  <advance width="598"/>
  <unicode hex="005E"/>
  <note>
	asciicircum
  </note>
  <outline>
    <contour>
      <point x="296" y="521" type="line"/>
      <point x="302" y="521" type="line"/>
      <point x="439" y="261" type="line"/>
      <point x="534" y="299" type="line"/>
      <point x="352" y="616" type="line"/>
      <point x="247" y="616" type="line"/>
      <point x="64" y="299" type="line"/>
      <point x="159" y="261" type="line"/>
    </contour>
  </outline>
</glyph>
<glyph name="grave" format="1">
  <advance width="323"/>
  <unicode hex="0060"/>
  <note>
	grave
  </note>
  <outline>
    <contour>
      <point x="228" y="756" type="line"/>
      <point x="144" y="905" type="line"/>
      <point x="13" y="890" type="line"/>
      <point x="141" y="742" type="line"/>
    </contour>
  </outline>
</glyph>
<glyph name="i" format="1">
  <advance width="249"/>
  <unicode hex="0069"/>
  <note>
	i
  </note>
  <outline>
    <contour>
      <point x="177" y="0" type="line"/>
      <point x="177" y="471" type="line"/>
      <point x="71" y="471" type="line"/>
      <point x="71" y="0" type="line"/>
    </contour>
    <contour>
      <point x="180" y="547" type="line"/>
      <point x="180" y="661" type="line"/>
      <point x="69" y="661" type="line"/>
      <point x="69" y="547" type="line"/>
    </contour>
  </outline>
</glyph>
<glyph name="j" format="1">
  <advance width="299"/>
  <unicode hex="006A"/>
  <note>
	j
  </note>
  <outline>
    <contour>
      <point x="181" y="-198"/>
      <point x="231" y="-138"/>
      <point x="231" y="-43" type="curve" smooth="yes"/>
      <point x="231" y="471" type="line"/>
      <point x="125" y="471" type="line"/>
      <point x="125" y="-35" type="line" smooth="yes"/>
      <point x="125" y="-57"/>
      <point x="124" y="-76"/>
      <point x="118" y="-92" type="curve"/>
      <point x="102" y="-97"/>
      <point x="88" y="-99"/>
      <point x="68" y="-99" type="curve" smooth="yes"/>
      <point x="39" y="-99"/>
      <point x="21" y="-95"/>
      <point x="-11" y="-85" type="curve"/>
      <point x="-38" y="-177" type="line"/>
      <point x="-4" y="-190"/>
      <point x="40" y="-198"/>
      <point x="75" y="-198" type="curve" smooth="yes"/>
    </contour>
    <contour>
      <point x="234" y="547" type="line"/>
      <point x="234" y="661" type="line"/>
      <point x="123" y="661" type="line"/>
      <point x="123" y="547" type="line"/>
    </contour>
  </outline>
</glyph>
<glyph name="l" format="1">
  <advance width="298"/>
  <unicode hex="006C"/>
  <note>
	l
  </note>
  <outline>
    <contour>
      <point x="212" y="-6"/>
      <point x="262" y="30"/>
      <point x="284" y="65" type="curve"/>
      <point x="244" y="118" type="line"/>
      <point x="188" y="89" type="line"/>
      <point x="175" y="89" type="line"/>
      <point x="171" y="99"/>
      <point x="170" y="109"/>
      <point x="170" y="127" type="curve" smooth="yes"/>
      <point x="170" y="671" type="line"/>
      <point x="64" y="671" type="line"/>
      <point x="64" y="90" type="line" smooth="yes"/>
      <point x="64" y="53"/>
      <point x="132" y="2"/>
      <point x="167" y="-7" type="curve"/>
    </contour>
  </outline>
</glyph>
<glyph name="p" format="1">
  <advance width="547"/>
  <unicode hex="0070"/>
  <note>
	p
  </note>
  <outline>
    <contour>
      <point x="177" y="-187" type="line"/>
      <point x="177" y="-17" type="line"/>
      <point x="174" y="52" type="line"/>
      <point x="180" y="52" type="line"/>
      <point x="216" y="14"/>
      <point x="264" y="-8"/>
      <point x="322" y="-8" type="curve" smooth="yes"/>
      <point x="455" y="-8"/>
      <point x="500" y="110"/>
      <point x="500" y="235" type="curve" smooth="yes"/>
      <point x="500" y="386"/>
      <point x="455" y="480"/>
      <point x="327" y="480" type="curve" smooth="yes"/>
      <point x="257" y="480"/>
      <point x="212" y="446"/>
      <point x="180" y="407" type="curve"/>
      <point x="172" y="407" type="line"/>
      <point x="168" y="471" type="line"/>
      <point x="70" y="471" type="line"/>
      <point x="70" y="-187" type="line"/>
    </contour>
    <contour>
      <point x="249" y="85"/>
      <point x="213" y="98"/>
      <point x="178" y="132" type="curve"/>
      <point x="178" y="323" type="line"/>
      <point x="197" y="355"/>
      <point x="231" y="385"/>
      <point x="286" y="385" type="curve" smooth="yes"/>
      <point x="370" y="385"/>
      <point x="391" y="336"/>
      <point x="391" y="238" type="curve" smooth="yes"/>
      <point x="391" y="140"/>
      <point x="367" y="85"/>
      <point x="292" y="85" type="curve" smooth="yes"/>
    </contour>
  </outline>
</glyph>
<glyph name="q" format="1">
  <advance width="550"/>
  <unicode hex="0071"/>
  <note>
	q
  </note>
  <outline>
    <contour>
      <point x="475" y="-194" type="line"/>
      <point x="475" y="453" type="line"/>
      <point x="423" y="469"/>
      <point x="364" y="481"/>
      <point x="295" y="481" type="curve" smooth="yes"/>
      <point x="134" y="481"/>
      <point x="46" y="390"/>
      <point x="46" y="224" type="curve" smooth="yes"/>
      <point x="46" y="100"/>
      <point x="90" y="-8"/>
      <point x="222" y="-8" type="curve" smooth="yes"/>
      <point x="289" y="-8"/>
      <point x="330" y="23"/>
      <point x="366" y="65" type="curve"/>
      <point x="372" y="65" type="line"/>
      <point x="367" y="-8" type="line"/>
      <point x="367" y="-194" type="line"/>
    </contour>
    <contour>
      <point x="188" y="89"/>
      <point x="158" y="131"/>
      <point x="158" y="227" type="curve" smooth="yes"/>
      <point x="158" y="343"/>
      <point x="196" y="384"/>
      <point x="285" y="384" type="curve" smooth="yes"/>
      <point x="316" y="384"/>
      <point x="347" y="380"/>
      <point x="367" y="375" type="curve"/>
      <point x="367" y="143" type="line"/>
      <point x="335" y="107"/>
      <point x="300" y="89"/>
      <point x="255" y="89" type="curve" smooth="yes"/>
    </contour>
  </outline>
</glyph>
<glyph name="t" format="1">
  <advance width="403"/>
  <unicode hex="0074"/>
  <note>
	t
  </note>
  <outline>
    <contour>
      <point x="310" y="-9"/>
      <point x="351" y="6"/>
      <point x="376" y="20" type="curve"/>
      <point x="354" y="112" type="line"/>
      <point x="326" y="99"/>
      <point x="290" y="90"/>
      <point x="263" y="90" type="curve" smooth="yes"/>
      <point x="244" y="90"/>
      <point x="231" y="93"/>
      <point x="216" y="98" type="curve"/>
      <point x="211" y="112"/>
      <point x="208" y="125"/>
      <point x="208" y="141" type="curve" smooth="yes"/>
      <point x="208" y="382" type="line"/>
      <point x="352" y="382" type="line"/>
      <point x="365" y="471" type="line"/>
      <point x="208" y="471" type="line"/>
      <point x="208" y="596" type="line"/>
      <point x="103" y="596" type="line"/>
      <point x="103" y="471" type="line"/>
      <point x="29" y="471" type="line"/>
      <point x="16" y="382" type="line"/>
      <point x="103" y="382" type="line"/>
      <point x="103" y="106" type="line" smooth="yes"/>
      <point x="103" y="60"/>
      <point x="145" y="24"/>
      <point x="182" y="2" type="curve"/>
      <point x="207" y="-5"/>
      <point x="237" y="-9"/>
      <point x="267" y="-9" type="curve" smooth="yes"/>
    </contour>
  </outline>
</glyph>
<glyph name="x" format="1">
  <advance width="507"/>
  <unicode hex="0078"/>
  <note>
	x
  </note>
  <outline>
    <contour>
      <point x="171" y="70"/>
      <point x="200" y="118"/>
      <point x="245" y="186" type="curve"/>
      <point x="258" y="186" type="line"/>
      <point x="295" y="123"/>
      <point x="326" y="68"/>
      <point x="358" y="-8" type="curve"/>
      <point x="473" y="7" type="line"/>
      <point x="440" y="83"/>
      <point x="387" y="173"/>
      <point x="341" y="238" type="curve"/>
      <point x="394" y="307"/>
      <point x="443" y="384"/>
      <point x="482" y="463" type="curve"/>
      <point x="370" y="476" type="line"/>
      <point x="335" y="397"/>
      <point x="305" y="351"/>
      <point x="259" y="283" type="curve"/>
      <point x="245" y="283" type="line"/>
      <point x="206" y="347"/>
      <point x="177" y="399"/>
      <point x="144" y="476" type="curve"/>
      <point x="27" y="462" type="line"/>
      <point x="64" y="388"/>
      <point x="119" y="294"/>
      <point x="163" y="231" type="curve"/>
      <point x="113" y="164"/>
      <point x="62" y="85"/>
      <point x="24" y="7" type="curve"/>
      <point x="136" y="-8" type="line"/>
    </contour>
  </outline>
</glyph>
<glyph name="asciitilde" format="1">
  <advance width="463"/>
  <unicode hex="007E"/>
  <note>
	asciitilde
  </note>
  <outline>
    <contour>
      <point x="133" y="245"/>
      <point x="146" y="262"/>
      <point x="173" y="262" type="curve" smooth="yes"/>
      <point x="205" y="262"/>
      <point x="242" y="216"/>
      <point x="311" y="216" type="curve" smooth="yes"/>
      <point x="377" y="216"/>
      <point x="413" y="258"/>
      <point x="417" y="355" type="curve"/>
      <point x="334" y="365" type="line"/>
      <point x="331" y="329"/>
      <point x="318" y="312"/>
      <point x="291" y="312" type="curve" smooth="yes"/>
      <point x="250" y="312"/>
      <point x="219" y="358"/>
      <point x="153" y="358" type="curve" smooth="yes"/>
      <point x="91" y="358"/>
      <point x="47" y="319"/>
      <point x="47" y="221" type="curve"/>
      <point x="130" y="209" type="line"/>
    </contour>
  </outline>
</glyph>
<glyph name="sterling" format="1">
  <advance width="570"/>
  <unicode hex="00A3"/>
  <note>
	sterling
  </note>
  <outline>
    <contour>
      <point x="378" y="-7"/>
      <point x="459" y="-3"/>
      <point x="529" y="4" type="curve"/>
      <point x="529" y="100" type="line"/>
      <point x="464" y="94"/>
      <point x="399" y="90"/>
      <point x="334" y="90" type="curve" smooth="yes"/>
      <point x="296" y="90"/>
      <point x="258" y="92"/>
      <point x="220" y="95" type="curve"/>
      <point x="220" y="236" type="line"/>
      <point x="424" y="236" type="line"/>
      <point x="424" y="324" type="line"/>
      <point x="220" y="324" type="line"/>
      <point x="220" y="406" type="line" smooth="yes"/>
      <point x="220" y="440"/>
      <point x="221" y="477"/>
      <point x="229" y="508" type="curve"/>
      <point x="267" y="516"/>
      <point x="294" y="517"/>
      <point x="334" y="517" type="curve" smooth="yes"/>
      <point x="391" y="517"/>
      <point x="427" y="512"/>
      <point x="475" y="499" type="curve"/>
      <point x="500" y="588" type="line"/>
      <point x="448" y="608"/>
      <point x="403" y="618"/>
      <point x="331" y="618" type="curve" smooth="yes"/>
      <point x="185" y="618"/>
      <point x="112" y="550"/>
      <point x="112" y="431" type="curve" smooth="yes"/>
      <point x="112" y="324" type="line"/>
      <point x="48" y="324" type="line"/>
      <point x="48" y="236" type="line"/>
      <point x="112" y="236" type="line"/>
      <point x="112" y="94" type="line"/>
      <point x="46" y="81" type="line"/>
      <point x="46" y="4" type="line"/>
      <point x="122" y="-3"/>
      <point x="210" y="-7"/>
      <point x="297" y="-7" type="curve" smooth="yes"/>
    </contour>
  </outline>
</glyph>
<glyph name="currency" format="1">
  <advance width="590"/>
  <unicode hex="00A4"/>
  <note>
	currency
  </note>
  <outline>
    <contour>
      <point x="190" y="123" type="line"/>
      <point x="223" y="102"/>
      <point x="256" y="93"/>
      <point x="297" y="93" type="curve" smooth="yes"/>
      <point x="337" y="93"/>
      <point x="370" y="102"/>
      <point x="403" y="123" type="curve"/>
      <point x="472" y="56" type="line"/>
      <point x="534" y="117" type="line"/>
      <point x="466" y="185" type="line"/>
      <point x="487" y="220"/>
      <point x="497" y="251"/>
      <point x="497" y="291" type="curve" smooth="yes"/>
      <point x="497" y="331"/>
      <point x="487" y="362"/>
      <point x="466" y="397" type="curve"/>
      <point x="534" y="467" type="line"/>
      <point x="472" y="527" type="line"/>
      <point x="403" y="461" type="line"/>
      <point x="369" y="481"/>
      <point x="337" y="491"/>
      <point x="297" y="491" type="curve" smooth="yes"/>
      <point x="257" y="491"/>
      <point x="224" y="481"/>
      <point x="190" y="461" type="curve"/>
      <point x="122" y="527" type="line"/>
      <point x="59" y="467" type="line"/>
      <point x="128" y="397" type="line"/>
      <point x="107" y="362"/>
      <point x="97" y="331"/>
      <point x="97" y="291" type="curve" smooth="yes"/>
      <point x="97" y="251"/>
      <point x="107" y="220"/>
      <point x="128" y="185" type="curve"/>
      <point x="60" y="117" type="line"/>
      <point x="122" y="56" type="line"/>
    </contour>
    <contour>
      <point x="230" y="180"/>
      <point x="186" y="221"/>
      <point x="186" y="291" type="curve" smooth="yes"/>
      <point x="186" y="359"/>
      <point x="228" y="404"/>
      <point x="297" y="404" type="curve" smooth="yes"/>
      <point x="366" y="404"/>
      <point x="408" y="359"/>
      <point x="408" y="291" type="curve" smooth="yes"/>
      <point x="408" y="221"/>
      <point x="363" y="180"/>
      <point x="297" y="180" type="curve" smooth="yes"/>
    </contour>
  </outline>
</glyph>
<glyph name="dieresis" format="1">
  <advance width="370"/>
  <unicode hex="00A8"/>
  <note>
	dieresis
  </note>
  <outline>
    <contour>
      <point x="304" y="459"/>
      <point x="324" y="479"/>
      <point x="324" y="512" type="curve" smooth="yes"/>
      <point x="324" y="547"/>
      <point x="304" y="566"/>
      <point x="268" y="566" type="curve" smooth="yes"/>
      <point x="232" y="566"/>
      <point x="211" y="547"/>
      <point x="211" y="512" type="curve" smooth="yes"/>
      <point x="211" y="479"/>
      <point x="232" y="459"/>
      <point x="268" y="459" type="curve" smooth="yes"/>
    </contour>
    <contour>
      <point x="138" y="459"/>
      <point x="159" y="479"/>
      <point x="159" y="512" type="curve" smooth="yes"/>
      <point x="159" y="547"/>
      <point x="138" y="566"/>
      <point x="102" y="566" type="curve" smooth="yes"/>
      <point x="67" y="566"/>
      <point x="46" y="547"/>
      <point x="46" y="512" type="curve" smooth="yes"/>
      <point x="46" y="479"/>
      <point x="67" y="459"/>
      <point x="102" y="459" type="curve" smooth="yes"/>
    </contour>
  </outline>
</glyph>
<glyph name="ordfeminine" format="1">
  <advance width="369"/>
  <unicode hex="00AA"/>
  <note>
	ordfeminine
  </note>
  <outline>
    <contour>
      <point x="186" y="265"/>
      <point x="218" y="279"/>
      <point x="243" y="312" type="curve"/>
      <point x="249" y="312" type="line"/>
      <point x="252" y="270" type="line"/>
      <point x="327" y="270" type="line"/>
      <point x="327" y="509" type="line" smooth="yes"/>
      <point x="327" y="578"/>
      <point x="282" y="618"/>
      <point x="202" y="618" type="curve" smooth="yes"/>
      <point x="150" y="618"/>
      <point x="99" y="604"/>
      <point x="63" y="583" type="curve"/>
      <point x="63" y="560" type="line" smooth="yes"/>
      <point x="63" y="540"/>
      <point x="68" y="519"/>
      <point x="74" y="502" type="curve"/>
      <point x="135" y="502" type="line"/>
      <point x="142" y="542" type="line"/>
      <point x="157" y="545"/>
      <point x="175" y="547"/>
      <point x="191" y="547" type="curve" smooth="yes"/>
      <point x="226" y="547"/>
      <point x="239" y="535"/>
      <point x="239" y="501" type="curve" smooth="yes"/>
      <point x="239" y="465" type="line"/>
      <point x="225" y="467"/>
      <point x="208" y="468"/>
      <point x="194" y="468" type="curve" smooth="yes"/>
      <point x="100" y="468"/>
      <point x="39" y="436"/>
      <point x="39" y="358" type="curve" smooth="yes"/>
      <point x="39" y="302"/>
      <point x="78" y="265"/>
      <point x="147" y="265" type="curve" smooth="yes"/>
    </contour>
    <contour>
      <point x="140" y="335"/>
      <point x="128" y="347"/>
      <point x="128" y="368" type="curve" smooth="yes"/>
      <point x="128" y="379"/>
      <point x="130" y="387"/>
      <point x="134" y="399" type="curve"/>
      <point x="152" y="403"/>
      <point x="168" y="404"/>
      <point x="191" y="404" type="curve" smooth="yes"/>
      <point x="213" y="404"/>
      <point x="228" y="403"/>
      <point x="243" y="401" type="curve"/>
      <point x="243" y="368" type="line"/>
      <point x="220" y="346"/>
      <point x="197" y="335"/>
      <point x="165" y="335" type="curve" smooth="yes"/>
    </contour>
  </outline>
</glyph>
<glyph name="guillemotleft" format="1">
  <advance width="479"/>
  <unicode hex="00AB"/>
  <note>
	guillemotleft
  </note>
  <outline>
    <contour>
      <point x="259" y="106" type="line"/>
      <point x="155" y="248" type="line"/>
      <point x="155" y="254" type="line"/>
      <point x="259" y="396" type="line"/>
      <point x="180" y="433" type="line"/>
      <point x="47" y="251" type="line"/>
      <point x="180" y="69" type="line"/>
    </contour>
    <contour>
      <point x="429" y="110" type="line"/>
      <point x="327" y="248" type="line"/>
      <point x="327" y="254" type="line"/>
      <point x="429" y="392" type="line"/>
      <point x="350" y="429" type="line"/>
      <point x="219" y="251" type="line"/>
      <point x="350" y="73" type="line"/>
    </contour>
  </outline>
</glyph>
<glyph name="softhyphen" format="1">
  <advance width="373"/>
  <unicode hex="00AD"/>
  <note>
	softhyphen
  </note>
  <outline>
    <contour>
      <point x="312" y="200" type="line"/>
      <point x="312" y="299" type="line"/>
      <point x="62" y="299" type="line"/>
      <point x="62" y="200" type="line"/>
    </contour>
  </outline>
</glyph>
<glyph name="registered" format="1">
  <advance width="736"/>
  <unicode hex="00AE"/>
  <note>
	registered
  </note>
  <outline>
    <contour>
      <point x="555" y="-2"/>
      <point x="680" y="129"/>
      <point x="680" y="308" type="curve" smooth="yes"/>
      <point x="680" y="487"/>
      <point x="555" y="618"/>
      <point x="368" y="618" type="curve" smooth="yes"/>
      <point x="181" y="618"/>
      <point x="56" y="487"/>
      <point x="56" y="308" type="curve" smooth="yes"/>
      <point x="56" y="129"/>
      <point x="181" y="-2"/>
      <point x="368" y="-2" type="curve" smooth="yes"/>
    </contour>
    <contour>
      <point x="206" y="48"/>
      <point x="109" y="150"/>
      <point x="109" y="308" type="curve" smooth="yes"/>
      <point x="109" y="466"/>
      <point x="206" y="568"/>
      <point x="368" y="568" type="curve" smooth="yes"/>
      <point x="531" y="568"/>
      <point x="627" y="466"/>
      <point x="627" y="308" type="curve" smooth="yes"/>
      <point x="627" y="150"/>
      <point x="531" y="48"/>
      <point x="368" y="48" type="curve" smooth="yes"/>
    </contour>
    <contour>
      <point x="503" y="133"/>
      <point x="511" y="136"/>
      <point x="526" y="140" type="curve"/>
      <point x="526" y="180" type="line"/>
      <point x="500" y="185" type="line"/>
      <point x="467" y="251" type="line" smooth="yes"/>
      <point x="457" y="266"/>
      <point x="450" y="275"/>
      <point x="437" y="282" type="curve"/>
      <point x="437" y="287" type="line"/>
      <point x="476" y="306"/>
      <point x="497" y="341"/>
      <point x="497" y="388" type="curve" smooth="yes"/>
      <point x="497" y="466"/>
      <point x="447" y="502"/>
      <point x="349" y="502" type="curve" smooth="yes"/>
      <point x="310" y="502"/>
      <point x="267" y="494"/>
      <point x="236" y="485" type="curve"/>
      <point x="236" y="136" type="line"/>
      <point x="312" y="136" type="line"/>
      <point x="312" y="270" type="line"/>
      <point x="351" y="270" type="line"/>
      <point x="377" y="267"/>
      <point x="387" y="255"/>
      <point x="396" y="234" type="curve" smooth="yes"/>
      <point x="425" y="168" type="line" smooth="yes"/>
      <point x="436" y="144"/>
      <point x="454" y="133"/>
      <point x="484" y="133" type="curve" smooth="yes"/>
    </contour>
    <contour>
      <point x="311" y="431" type="line"/>
      <point x="325" y="434"/>
      <point x="336" y="435"/>
      <point x="353" y="435" type="curve" smooth="yes"/>
      <point x="401" y="435"/>
      <point x="420" y="421"/>
      <point x="420" y="386" type="curve" smooth="yes"/>
      <point x="420" y="345"/>
      <point x="401" y="334"/>
      <point x="338" y="334" type="curve" smooth="yes"/>
      <point x="311" y="334" type="line"/>
    </contour>
  </outline>
</glyph>
<glyph name="macron" format="1">
  <advance width="406"/>
  <unicode hex="00AF"/>
  <note>
	macron
  </note>
  <outline>
    <contour>
      <point x="368" y="490" type="line"/>
      <point x="368" y="586" type="line"/>
      <point x="37" y="586" type="line"/>
      <point x="37" y="490" type="line"/>
    </contour>
  </outline>
</glyph>
<glyph name="plusminus" format="1">
  <advance width="607"/>
  <unicode hex="00B1"/>
  <note>
	plusminus
  </note>
  <outline>
    <contour>
      <point x="355" y="130" type="line"/>
      <point x="355" y="301" type="line"/>
      <point x="536" y="301" type="line"/>
      <point x="536" y="393" type="line"/>
      <point x="355" y="393" type="line"/>
      <point x="355" y="556" type="line"/>
      <point x="251" y="556" type="line"/>
      <point x="251" y="393" type="line"/>
      <point x="71" y="393" type="line"/>
      <point x="71" y="301" type="line"/>
      <point x="251" y="301" type="line"/>
      <point x="251" y="130" type="line"/>
    </contour>
    <contour>
      <point x="536" y="0" type="line"/>
      <point x="536" y="80" type="line"/>
      <point x="81" y="80" type="line"/>
      <point x="81" y="0" type="line"/>
    </contour>
  </outline>
</glyph>
<glyph name="threesuperior" format="1">
  <advance width="318"/>
  <unicode hex="00B3"/>
  <note>
	threesuperior
  </note>
  <outline>
    <contour>
      <point x="244" y="330"/>
      <point x="286" y="367"/>
      <point x="286" y="427" type="curve" smooth="yes"/>
      <point x="286" y="468"/>
      <point x="268" y="493"/>
      <point x="223" y="510" type="curve"/>
      <point x="223" y="513" type="line"/>
      <point x="261" y="531"/>
      <point x="281" y="555"/>
      <point x="281" y="600" type="curve" smooth="yes"/>
      <point x="281" y="660"/>
      <point x="239" y="699"/>
      <point x="154" y="699" type="curve" smooth="yes"/>
      <point x="103" y="699"/>
      <point x="61" y="688"/>
      <point x="24" y="672" type="curve"/>
      <point x="24" y="651" type="line" smooth="yes"/>
      <point x="24" y="630"/>
      <point x="29" y="606"/>
      <point x="36" y="588" type="curve"/>
      <point x="107" y="588" type="line"/>
      <point x="107" y="619" type="line"/>
      <point x="123" y="622"/>
      <point x="133" y="623"/>
      <point x="149" y="623" type="curve" smooth="yes"/>
      <point x="177" y="623"/>
      <point x="191" y="613"/>
      <point x="191" y="587" type="curve" smooth="yes"/>
      <point x="191" y="559"/>
      <point x="175" y="543"/>
      <point x="137" y="543" type="curve" smooth="yes"/>
      <point x="79" y="543" type="line"/>
      <point x="79" y="474" type="line"/>
      <point x="138" y="474" type="line" smooth="yes"/>
      <point x="176" y="474"/>
      <point x="196" y="467"/>
      <point x="196" y="439" type="curve" smooth="yes"/>
      <point x="196" y="429"/>
      <point x="194" y="418"/>
      <point x="191" y="408" type="curve"/>
      <point x="173" y="405"/>
      <point x="158" y="404"/>
      <point x="134" y="404" type="curve" smooth="yes"/>
      <point x="99" y="404"/>
      <point x="66" y="409"/>
      <point x="32" y="418" type="curve"/>
      <point x="22" y="347" type="line"/>
      <point x="56" y="336"/>
      <point x="96" y="330"/>
      <point x="140" y="330" type="curve" smooth="yes"/>
    </contour>
  </outline>
</glyph>
<glyph name="mu" format="1">
  <advance width="539"/>
  <unicode hex="00B5"/>
  <note>
	mu
  </note>
  <outline>
    <contour>
      <point x="171" y="-213" type="line"/>
      <point x="171" y="12" type="line"/>
      <point x="178" y="12" type="line"/>
      <point x="193" y="0"/>
      <point x="214" y="-8"/>
      <point x="239" y="-8" type="curve" smooth="yes"/>
      <point x="300" y="-8"/>
      <point x="328" y="20"/>
      <point x="364" y="65" type="curve"/>
      <point x="372" y="65" type="line"/>
      <point x="378" y="0" type="line"/>
      <point x="473" y="0" type="line"/>
      <point x="473" y="471" type="line"/>
      <point x="366" y="471" type="line"/>
      <point x="366" y="144" type="line"/>
      <point x="332" y="105"/>
      <point x="295" y="87"/>
      <point x="238" y="87" type="curve" smooth="yes"/>
      <point x="213" y="87"/>
      <point x="196" y="89"/>
      <point x="177" y="96" type="curve"/>
      <point x="177" y="471" type="line"/>
      <point x="70" y="471" type="line"/>
      <point x="70" y="-213" type="line"/>
    </contour>
  </outline>
</glyph>
<glyph name="periodcentered" format="1">
  <advance width="355"/>
  <unicode hex="00B7"/>
  <note>
	periodcentered
  </note>
  <outline>
    <contour>
      <point x="215" y="206"/>
      <point x="243" y="233"/>
      <point x="243" y="269" type="curve" smooth="yes"/>
      <point x="243" y="305"/>
      <point x="214" y="333"/>
      <point x="178" y="333" type="curve" smooth="yes"/>
      <point x="141" y="333"/>
      <point x="113" y="305"/>
      <point x="113" y="269" type="curve" smooth="yes"/>
      <point x="113" y="233"/>
      <point x="141" y="206"/>
      <point x="178" y="206" type="curve" smooth="yes"/>
    </contour>
  </outline>
</glyph>
<glyph name="threequarters" format="1">
  <advance width="828"/>
  <unicode hex="00BE"/>
  <note>
	threequarters
  </note>
  <outline>
    <contour>
      <point x="664" y="598" type="line"/>
      <point x="579" y="623" type="line"/>
      <point x="202" y="15" type="line"/>
      <point x="288" y="-10" type="line"/>
    </contour>
    <contour>
      <point x="276" y="247"/>
      <point x="318" y="284"/>
      <point x="318" y="344" type="curve" smooth="yes"/>
      <point x="318" y="385"/>
      <point x="300" y="410"/>
      <point x="255" y="427" type="curve"/>
      <point x="255" y="430" type="line"/>
      <point x="293" y="448"/>
      <point x="313" y="472"/>
      <point x="313" y="517" type="curve" smooth="yes"/>
      <point x="313" y="577"/>
      <point x="271" y="616"/>
      <point x="186" y="616" type="curve" smooth="yes"/>
      <point x="135" y="616"/>
      <point x="93" y="606"/>
      <point x="56" y="590" type="curve"/>
      <point x="56" y="568" type="line" smooth="yes"/>
      <point x="56" y="547"/>
      <point x="61" y="523"/>
      <point x="68" y="505" type="curve"/>
      <point x="139" y="505" type="line"/>
      <point x="139" y="537" type="line"/>
      <point x="155" y="540"/>
      <point x="165" y="541"/>
      <point x="181" y="541" type="curve" smooth="yes"/>
      <point x="209" y="541"/>
      <point x="223" y="530"/>
      <point x="223" y="505" type="curve" smooth="yes"/>
      <point x="223" y="476"/>
      <point x="207" y="461"/>
      <point x="169" y="461" type="curve" smooth="yes"/>
      <point x="111" y="461" type="line"/>
      <point x="111" y="392" type="line"/>
      <point x="170" y="392" type="line" smooth="yes"/>
      <point x="208" y="392"/>
      <point x="228" y="385"/>
      <point x="228" y="356" type="curve" smooth="yes"/>
      <point x="228" y="346"/>
      <point x="226" y="335"/>
      <point x="223" y="325" type="curve"/>
      <point x="205" y="323"/>
      <point x="190" y="322"/>
      <point x="166" y="322" type="curve" smooth="yes"/>
      <point x="131" y="322"/>
      <point x="98" y="327"/>
      <point x="64" y="336" type="curve"/>
      <point x="54" y="264" type="line"/>
      <point x="88" y="254"/>
      <point x="128" y="247"/>
      <point x="172" y="247" type="curve" smooth="yes"/>
    </contour>
    <contour>
      <point x="728" y="0" type="line"/>
      <point x="728" y="56" type="line"/>
      <point x="775" y="56" type="line"/>
      <point x="775" y="127" type="line"/>
      <point x="728" y="127" type="line"/>
      <point x="728" y="357" type="line"/>
      <point x="634" y="357" type="line"/>
      <point x="462" y="124" type="line"/>
      <point x="490" y="56" type="line"/>
      <point x="641" y="56" type="line"/>
      <point x="641" y="0" type="line"/>
    </contour>
    <contour>
      <point x="560" y="132" type="line"/>
      <point x="648" y="264" type="line"/>
      <point x="652" y="264" type="line"/>
      <point x="647" y="225"/>
      <point x="644" y="192"/>
      <point x="644" y="159" type="curve" smooth="yes"/>
      <point x="644" y="127" type="line"/>
      <point x="562" y="127" type="line"/>
    </contour>
  </outline>
</glyph>
<glyph name="questiondown" format="1">
  <advance width="540"/>
  <unicode hex="00BF"/>
  <note>
	questiondown
  </note>
  <outline>
    <contour>
      <point x="355" y="-110"/>
      <point x="438" y="-84"/>
      <point x="480" y="-59" type="curve"/>
      <point x="480" y="-28" type="line" smooth="yes"/>
      <point x="478" y="3"/>
      <point x="474" y="38"/>
      <point x="466" y="68" type="curve"/>
      <point x="376" y="68" type="line"/>
      <point x="376" y="4" type="line"/>
      <point x="345" y="-6"/>
      <point x="311" y="-9"/>
      <point x="268" y="-9" type="curve" smooth="yes"/>
      <point x="200" y="-9"/>
      <point x="165" y="6"/>
      <point x="165" y="60" type="curve" smooth="yes"/>
      <point x="165" y="110" type="line"/>
      <point x="323" y="226" type="line" smooth="yes"/>
      <point x="343" y="241"/>
      <point x="350" y="256"/>
      <point x="350" y="286" type="curve" smooth="yes"/>
      <point x="350" y="362" type="line"/>
      <point x="241" y="362" type="line"/>
      <point x="241" y="307" type="line" smooth="yes"/>
      <point x="241" y="286"/>
      <point x="239" y="276"/>
      <point x="226" y="266" type="curve" smooth="yes"/>
      <point x="120" y="193" type="line"/>
      <point x="70" y="156"/>
      <point x="56" y="118"/>
      <point x="56" y="56" type="curve" smooth="yes"/>
      <point x="56" y="-47"/>
      <point x="119" y="-110"/>
      <point x="266" y="-110" type="curve" smooth="yes"/>
    </contour>
    <contour>
      <point x="351" y="417" type="line"/>
      <point x="351" y="519" type="line"/>
      <point x="239" y="519" type="line"/>
      <point x="239" y="417" type="line"/>
    </contour>
  </outline>
</glyph>
<glyph name="Agrave" format="1">
  <advance width="624"/>
  <unicode hex="00C0"/>
  <note>
	Agrave
  </note>
  <outline>
    <contour>
      <point x="364" y="691" type="line"/>
      <point x="280" y="840" type="line"/>
      <point x="149" y="826" type="line"/>
      <point x="277" y="677" type="line"/>
    </contour>
    <component base="A"/>
  </outline>
</glyph>
<glyph name="Aacute" format="1">
  <advance width="624"/>
  <unicode hex="00C1"/>
  <note>
	Aacute
  </note>
  <outline>
    <contour>
      <point x="475" y="832" type="line"/>
      <point x="350" y="844" type="line"/>
      <point x="267" y="692" type="line"/>
      <point x="346" y="678" type="line"/>
    </contour>
    <component base="A"/>
  </outline>
</glyph>
<glyph name="Acircumflex" format="1">
  <advance width="624"/>
  <unicode hex="00C2"/>
  <note>
	Acircumflex
  </note>
  <outline>
    <contour>
      <point x="309" y="747" type="line"/>
      <point x="315" y="747" type="line"/>
      <point x="392" y="677" type="line"/>
      <point x="456" y="690" type="line"/>
      <point x="359" y="827" type="line"/>
      <point x="265" y="827" type="line"/>
      <point x="167" y="690" type="line"/>
      <point x="230" y="677" type="line"/>
    </contour>
    <component base="A"/>
  </outline>
</glyph>
<glyph name="Adieresis" format="1">
  <advance width="624"/>
  <unicode hex="00C4"/>
  <note>
	Adieresis
  </note>
  <outline>
    <contour>
      <point x="430" y="681"/>
      <point x="450" y="701"/>
      <point x="450" y="734" type="curve" smooth="yes"/>
      <point x="450" y="769"/>
      <point x="430" y="788"/>
      <point x="394" y="788" type="curve" smooth="yes"/>
      <point x="358" y="788"/>
      <point x="337" y="769"/>
      <point x="337" y="734" type="curve" smooth="yes"/>
      <point x="337" y="701"/>
      <point x="358" y="681"/>
      <point x="394" y="681" type="curve" smooth="yes"/>
    </contour>
    <contour>
      <point x="264" y="681"/>
      <point x="285" y="701"/>
      <point x="285" y="734" type="curve" smooth="yes"/>
      <point x="285" y="769"/>
      <point x="264" y="788"/>
      <point x="228" y="788" type="curve" smooth="yes"/>
      <point x="193" y="788"/>
      <point x="172" y="769"/>
      <point x="172" y="734" type="curve" smooth="yes"/>
      <point x="172" y="701"/>
      <point x="193" y="681"/>
      <point x="228" y="681" type="curve" smooth="yes"/>
    </contour>
    <component base="A"/>
  </outline>
</glyph>
<glyph name="Aring" format="1">
  <advance width="624"/>
  <unicode hex="00C5"/>
  <note>
	Aring
  </note>
  <outline>
    <contour>
      <point x="386" y="680"/>
      <point x="436" y="722"/>
      <point x="436" y="780" type="curve" smooth="yes"/>
      <point x="436" y="842"/>
      <point x="394" y="883"/>
      <point x="321" y="883" type="curve" smooth="yes"/>
      <point x="229" y="883"/>
      <point x="186" y="833"/>
      <point x="186" y="778" type="curve" smooth="yes"/>
      <point x="186" y="718"/>
      <point x="227" y="680"/>
      <point x="301" y="680" type="curve" smooth="yes"/>
    </contour>
    <contour>
      <point x="279" y="742"/>
      <point x="262" y="758"/>
      <point x="262" y="780" type="curve" smooth="yes"/>
      <point x="262" y="793"/>
      <point x="263" y="804"/>
      <point x="267" y="816" type="curve"/>
      <point x="280" y="820"/>
      <point x="295" y="821"/>
      <point x="315" y="821" type="curve" smooth="yes"/>
      <point x="346" y="821"/>
      <point x="361" y="801"/>
      <point x="361" y="776" type="curve" smooth="yes"/>
      <point x="361" y="766"/>
      <point x="359" y="756"/>
      <point x="357" y="747" type="curve"/>
      <point x="344" y="743"/>
      <point x="328" y="742"/>
      <point x="308" y="742" type="curve" smooth="yes"/>
    </contour>
    <component base="A"/>
  </outline>
</glyph>
<glyph name="AE" format="1">
  <advance width="942"/>
  <unicode hex="00C6"/>
  <note>
	AE
  </note>
  <outline>
    <contour>
      <point x="769" y="-10"/>
      <point x="836" y="-3"/>
      <point x="887" y="11" type="curve"/>
      <point x="868" y="108" type="line"/>
      <point x="815" y="96"/>
      <point x="754" y="90"/>
      <point x="693" y="90" type="curve" smooth="yes"/>
      <point x="646" y="90"/>
      <point x="608" y="93"/>
      <point x="567" y="100" type="curve"/>
      <point x="567" y="259" type="line"/>
      <point x="841" y="259" type="line"/>
      <point x="841" y="355" type="line"/>
      <point x="567" y="355" type="line"/>
      <point x="567" y="517" type="line"/>
      <point x="878" y="517" type="line"/>
      <point x="878" y="618" type="line"/>
      <point x="327" y="618" type="line"/>
      <point x="217" y="426"/>
      <point x="108" y="221"/>
      <point x="14" y="26" type="curve"/>
      <point x="118" y="-2" type="line"/>
      <point x="149" y="60"/>
      <point x="181" y="125"/>
      <point x="213" y="188" type="curve"/>
      <point x="457" y="188" type="line"/>
      <point x="457" y="103" type="line" smooth="yes"/>
      <point x="457" y="13"/>
      <point x="557" y="-10"/>
      <point x="689" y="-10" type="curve" smooth="yes"/>
    </contour>
    <contour>
      <point x="308" y="370"/>
      <point x="350" y="448"/>
      <point x="388" y="513" type="curve"/>
      <point x="457" y="513" type="line"/>
      <point x="457" y="287" type="line"/>
      <point x="264" y="287" type="line"/>
    </contour>
  </outline>
</glyph>
<glyph name="Ecircumflex" format="1">
  <advance width="555"/>
  <unicode hex="00CA"/>
  <note>
	Ecircumflex
  </note>
  <outline>
    <contour>
      <point x="383" y="-9"/>
      <point x="449" y="-2"/>
      <point x="500" y="13" type="curve"/>
      <point x="481" y="110" type="line"/>
      <point x="429" y="97"/>
      <point x="367" y="91"/>
      <point x="306" y="91" type="curve" smooth="yes"/>
      <point x="260" y="91"/>
      <point x="222" y="94"/>
      <point x="180" y="101" type="curve"/>
      <point x="180" y="259" type="line"/>
      <point x="454" y="259" type="line"/>
      <point x="454" y="355" type="line"/>
      <point x="180" y="355" type="line"/>
      <point x="180" y="517" type="line"/>
      <point x="492" y="517" type="line"/>
      <point x="492" y="618" type="line"/>
      <point x="71" y="618" type="line"/>
      <point x="71" y="104" type="line" smooth="yes"/>
      <point x="71" y="14"/>
      <point x="170" y="-9"/>
      <point x="303" y="-9" type="curve" smooth="yes"/>
    </contour>
    <contour>
      <point x="277" y="746" type="line"/>
      <point x="283" y="746" type="line"/>
      <point x="360" y="677" type="line"/>
      <point x="424" y="689" type="line"/>
      <point x="327" y="826" type="line"/>
      <point x="233" y="826" type="line"/>
      <point x="135" y="689" type="line"/>
      <point x="198" y="677" type="line"/>
    </contour>
  </outline>
</glyph>
<glyph name="Igrave" format="1">
  <advance width="258"/>
  <unicode hex="00CC"/>
  <note>
	Igrave
  </note>
  <outline>
    <contour>
      <point x="184" y="0" type="line"/>
      <point x="184" y="618" type="line"/>
      <point x="74" y="618" type="line"/>
      <point x="74" y="0" type="line"/>
    </contour>
    <contour>
      <point x="184" y="692" type="line"/>
      <point x="100" y="841" type="line"/>
      <point x="-31" y="827" type="line"/>
      <point x="97" y="678" type="line"/>
    </contour>
  </outline>
</glyph>
<glyph name="Iacute" format="1">
  <advance width="258"/>
  <unicode hex="00CD"/>
  <note>
	Iacute
  </note>
  <outline>
    <contour>
      <point x="184" y="0" type="line"/>
      <point x="184" y="618" type="line"/>
      <point x="74" y="618" type="line"/>
      <point x="74" y="0" type="line"/>
    </contour>
    <contour>
      <point x="290" y="832" type="line"/>
      <point x="165" y="844" type="line"/>
      <point x="82" y="692" type="line"/>
      <point x="161" y="678" type="line"/>
    </contour>
  </outline>
</glyph>
<glyph name="Icircumflex" format="1">
  <advance width="258"/>
  <unicode hex="00CE"/>
  <note>
	Icircumflex
  </note>
  <outline>
    <contour>
      <point x="184" y="0" type="line"/>
      <point x="184" y="618" type="line"/>
      <point x="74" y="618" type="line"/>
      <point x="74" y="0" type="line"/>
    </contour>
    <contour>
      <point x="126" y="747" type="line"/>
      <point x="132" y="747" type="line"/>
      <point x="208" y="677" type="line"/>
      <point x="273" y="690" type="line"/>
      <point x="175" y="827" type="line"/>
      <point x="82" y="827" type="line"/>
      <point x="-16" y="690" type="line"/>
      <point x="46" y="677" type="line"/>
    </contour>
  </outline>
</glyph>
<glyph name="Idieresis" format="1">
  <advance width="258"/>
  <unicode hex="00CF"/>
  <note>
	Idieresis
  </note>
  <outline>
    <contour>
      <point x="184" y="0" type="line"/>
      <point x="184" y="618" type="line"/>
      <point x="74" y="618" type="line"/>
      <point x="74" y="0" type="line"/>
    </contour>
    <contour>
      <point x="82" y="681"/>
      <point x="103" y="701"/>
      <point x="103" y="734" type="curve" smooth="yes"/>
      <point x="103" y="769"/>
      <point x="82" y="788"/>
      <point x="47" y="788" type="curve" smooth="yes"/>
      <point x="12" y="788"/>
      <point x="-10" y="769"/>
      <point x="-10" y="734" type="curve" smooth="yes"/>
      <point x="-10" y="701"/>
      <point x="12" y="681"/>
      <point x="47" y="681" type="curve" smooth="yes"/>
    </contour>
    <contour>
      <point x="248" y="681"/>
      <point x="268" y="701"/>
      <point x="268" y="734" type="curve" smooth="yes"/>
      <point x="268" y="769"/>
      <point x="248" y="788"/>
      <point x="212" y="788" type="curve" smooth="yes"/>
      <point x="176" y="788"/>
      <point x="155" y="769"/>
      <point x="155" y="734" type="curve" smooth="yes"/>
      <point x="155" y="701"/>
      <point x="176" y="681"/>
      <point x="212" y="681" type="curve" smooth="yes"/>
    </contour>
  </outline>
</glyph>
<glyph name="Ograve" format="1">
  <advance width="638"/>
  <unicode hex="00D2"/>
  <note>
	Ograve
  </note>
  <outline>
    <contour>
      <point x="503" y="-8"/>
      <point x="590" y="101"/>
      <point x="590" y="321" type="curve" smooth="yes"/>
      <point x="590" y="522"/>
      <point x="506" y="628"/>
      <point x="329" y="628" type="curve" smooth="yes"/>
      <point x="134" y="628"/>
      <point x="48" y="518"/>
      <point x="48" y="298" type="curve" smooth="yes"/>
      <point x="48" y="97"/>
      <point x="136" y="-8"/>
      <point x="308" y="-8" type="curve" smooth="yes"/>
    </contour>
    <contour>
      <point x="195" y="93"/>
      <point x="157" y="164"/>
      <point x="157" y="315" type="curve" smooth="yes"/>
      <point x="157" y="393"/>
      <point x="171" y="456"/>
      <point x="194" y="508" type="curve"/>
      <point x="221" y="519"/>
      <point x="265" y="526"/>
      <point x="312" y="526" type="curve" smooth="yes"/>
      <point x="443" y="526"/>
      <point x="480" y="454"/>
      <point x="480" y="304" type="curve" smooth="yes"/>
      <point x="480" y="225"/>
      <point x="462" y="161"/>
      <point x="440" y="111" type="curve"/>
      <point x="413" y="100"/>
      <point x="372" y="93"/>
      <point x="325" y="93" type="curve" smooth="yes"/>
    </contour>
    <contour>
      <point x="383" y="692" type="line"/>
      <point x="299" y="841" type="line"/>
      <point x="168" y="827" type="line"/>
      <point x="296" y="678" type="line"/>
    </contour>
  </outline>
</glyph>
<glyph name="Ugrave" format="1">
  <advance width="626"/>
  <unicode hex="00D9"/>
  <note>
	Ugrave
  </note>
  <outline>
    <contour>
      <point x="447" y="-9"/>
      <point x="557" y="27"/>
      <point x="557" y="131" type="curve" smooth="yes"/>
      <point x="557" y="618" type="line"/>
      <point x="447" y="618" type="line"/>
      <point x="447" y="112" type="line"/>
      <point x="416" y="100"/>
      <point x="372" y="92"/>
      <point x="310" y="92" type="curve" smooth="yes"/>
      <point x="216" y="92"/>
      <point x="179" y="120"/>
      <point x="179" y="214" type="curve" smooth="yes"/>
      <point x="179" y="618" type="line"/>
      <point x="69" y="618" type="line"/>
      <point x="69" y="192" type="line" smooth="yes"/>
      <point x="69" y="63"/>
      <point x="143" y="-9"/>
      <point x="303" y="-9" type="curve" smooth="yes"/>
    </contour>
    <contour>
      <point x="375" y="692" type="line"/>
      <point x="291" y="841" type="line"/>
      <point x="160" y="827" type="line"/>
      <point x="288" y="678" type="line"/>
    </contour>
  </outline>
</glyph>
<glyph name="Uacute" format="1">
  <advance width="626"/>
  <unicode hex="00DA"/>
  <note>
	Uacute
  </note>
  <outline>
    <contour>
      <point x="447" y="-9"/>
      <point x="557" y="27"/>
      <point x="557" y="131" type="curve" smooth="yes"/>
      <point x="557" y="618" type="line"/>
      <point x="447" y="618" type="line"/>
      <point x="447" y="112" type="line"/>
      <point x="416" y="100"/>
      <point x="372" y="92"/>
      <point x="310" y="92" type="curve" smooth="yes"/>
      <point x="216" y="92"/>
      <point x="179" y="120"/>
      <point x="179" y="214" type="curve" smooth="yes"/>
      <point x="179" y="618" type="line"/>
      <point x="69" y="618" type="line"/>
      <point x="69" y="192" type="line" smooth="yes"/>
      <point x="69" y="63"/>
      <point x="143" y="-9"/>
      <point x="303" y="-9" type="curve" smooth="yes"/>
    </contour>
    <contour>
      <point x="459" y="831" type="line"/>
      <point x="334" y="844" type="line"/>
      <point x="251" y="691" type="line"/>
      <point x="330" y="677" type="line"/>
    </contour>
  </outline>
</glyph>
<glyph name="Ucircumflex" format="1">
  <advance width="626"/>
  <unicode hex="00DB"/>
  <note>
	Ucircumflex
  </note>
  <outline>
    <contour>
      <point x="447" y="-9"/>
      <point x="557" y="27"/>
      <point x="557" y="131" type="curve" smooth="yes"/>
      <point x="557" y="618" type="line"/>
      <point x="447" y="618" type="line"/>
      <point x="447" y="112" type="line"/>
      <point x="416" y="100"/>
      <point x="372" y="92"/>
      <point x="310" y="92" type="curve" smooth="yes"/>
      <point x="216" y="92"/>
      <point x="179" y="120"/>
      <point x="179" y="214" type="curve" smooth="yes"/>
      <point x="179" y="618" type="line"/>
      <point x="69" y="618" type="line"/>
      <point x="69" y="192" type="line" smooth="yes"/>
      <point x="69" y="63"/>
      <point x="143" y="-9"/>
      <point x="303" y="-9" type="curve" smooth="yes"/>
    </contour>
    <contour>
      <point x="310" y="746" type="line"/>
      <point x="316" y="746" type="line"/>
      <point x="393" y="677" type="line"/>
      <point x="457" y="689" type="line"/>
      <point x="360" y="826" type="line"/>
      <point x="266" y="826" type="line"/>
      <point x="168" y="689" type="line"/>
      <point x="231" y="677" type="line"/>
    </contour>
  </outline>
</glyph>
<glyph name="Udieresis" format="1">
  <advance width="626"/>
  <unicode hex="00DC"/>
  <note>
	Udieresis
  </note>
  <outline>
    <contour>
      <point x="447" y="-9"/>
      <point x="557" y="27"/>
      <point x="557" y="131" type="curve" smooth="yes"/>
      <point x="557" y="618" type="line"/>
      <point x="447" y="618" type="line"/>
      <point x="447" y="112" type="line"/>
      <point x="416" y="100"/>
      <point x="372" y="92"/>
      <point x="310" y="92" type="curve" smooth="yes"/>
      <point x="216" y="92"/>
      <point x="179" y="120"/>
      <point x="179" y="214" type="curve" smooth="yes"/>
      <point x="179" y="618" type="line"/>
      <point x="69" y="618" type="line"/>
      <point x="69" y="192" type="line" smooth="yes"/>
      <point x="69" y="63"/>
      <point x="143" y="-9"/>
      <point x="303" y="-9" type="curve" smooth="yes"/>
    </contour>
    <contour>
      <point x="267" y="681"/>
      <point x="288" y="701"/>
      <point x="288" y="734" type="curve" smooth="yes"/>
      <point x="288" y="769"/>
      <point x="267" y="788"/>
      <point x="231" y="788" type="curve" smooth="yes"/>
      <point x="196" y="788"/>
      <point x="175" y="769"/>
      <point x="175" y="734" type="curve" smooth="yes"/>
      <point x="175" y="701"/>
      <point x="196" y="681"/>
      <point x="231" y="681" type="curve" smooth="yes"/>
    </contour>
    <contour>
      <point x="433" y="681"/>
      <point x="453" y="701"/>
      <point x="453" y="734" type="curve" smooth="yes"/>
      <point x="453" y="769"/>
      <point x="433" y="788"/>
      <point x="397" y="788" type="curve" smooth="yes"/>
      <point x="361" y="788"/>
      <point x="340" y="769"/>
      <point x="340" y="734" type="curve" smooth="yes"/>
      <point x="340" y="701"/>
      <point x="361" y="681"/>
      <point x="397" y="681" type="curve" smooth="yes"/>
    </contour>
  </outline>
</glyph>
<glyph name="Yacute" format="1">
  <advance width="630"/>
  <unicode hex="00DD"/>
  <note>
	Yacute
  </note>
  <outline>
    <contour>
      <point x="370" y="0" type="line"/>
      <point x="370" y="201" type="line"/>
      <point x="392" y="201" type="line"/>
      <point x="483" y="328"/>
      <point x="544" y="445"/>
      <point x="606" y="598" type="curve"/>
      <point x="497" y="623" type="line"/>
      <point x="445" y="490"/>
      <point x="386" y="375"/>
      <point x="329" y="288" type="curve"/>
      <point x="301" y="288" type="line"/>
      <point x="243" y="375"/>
      <point x="185" y="490"/>
      <point x="133" y="623" type="curve"/>
      <point x="24" y="598" type="line"/>
      <point x="86" y="445"/>
      <point x="147" y="328"/>
      <point x="238" y="201" type="curve"/>
      <point x="260" y="201" type="line"/>
      <point x="260" y="0" type="line"/>
    </contour>
    <contour>
      <point x="469" y="831" type="line"/>
      <point x="344" y="844" type="line"/>
      <point x="261" y="691" type="line"/>
      <point x="340" y="677" type="line"/>
    </contour>
  </outline>
</glyph>
<glyph name="Thorn" format="1">
  <advance width="506"/>
  <unicode hex="00DE"/>
  <note>
	Thorn
  </note>
  <outline>
    <contour>
      <point x="181" y="0" type="line"/>
      <point x="181" y="136" type="line"/>
      <point x="260" y="136" type="line" smooth="yes"/>
      <point x="391" y="136"/>
      <point x="470" y="196"/>
      <point x="470" y="321" type="curve" smooth="yes"/>
      <point x="470" y="442"/>
      <point x="392" y="504"/>
      <point x="260" y="504" type="curve" smooth="yes"/>
      <point x="181" y="504" type="line"/>
      <point x="181" y="618" type="line"/>
      <point x="71" y="618" type="line"/>
      <point x="71" y="0" type="line"/>
    </contour>
    <contour>
      <point x="181" y="407" type="line"/>
      <point x="259" y="407" type="line" smooth="yes"/>
      <point x="328" y="407"/>
      <point x="360" y="385"/>
      <point x="360" y="321" type="curve" smooth="yes"/>
      <point x="360" y="259"/>
      <point x="332" y="232"/>
      <point x="259" y="232" type="curve" smooth="yes"/>
      <point x="181" y="232" type="line"/>
    </contour>
  </outline>
</glyph>
<glyph name="eacute" format="1">
  <advance width="503"/>
  <unicode hex="00E9"/>
  <note>
	eacute
  </note>
  <outline>
    <contour>
      <point x="359" y="-7"/>
      <point x="412" y="17"/>
      <point x="456" y="45" type="curve"/>
      <point x="426" y="127" type="line"/>
      <point x="385" y="102"/>
      <point x="343" y="83"/>
      <point x="275" y="83" type="curve" smooth="yes"/>
      <point x="189" y="83"/>
      <point x="151" y="124"/>
      <point x="150" y="198" type="curve"/>
      <point x="392" y="195" type="line"/>
      <point x="457" y="259" type="line"/>
      <point x="467" y="391"/>
      <point x="406" y="480"/>
      <point x="269" y="480" type="curve" smooth="yes"/>
      <point x="125" y="480"/>
      <point x="46" y="388"/>
      <point x="46" y="231" type="curve" smooth="yes"/>
      <point x="46" y="82"/>
      <point x="114" y="-7"/>
      <point x="270" y="-7" type="curve" smooth="yes"/>
    </contour>
    <contour>
      <point x="152" y="348"/>
      <point x="178" y="389"/>
      <point x="265" y="389" type="curve" smooth="yes"/>
      <point x="326" y="389"/>
      <point x="359" y="359"/>
      <point x="359" y="311" type="curve" smooth="yes"/>
      <point x="359" y="302"/>
      <point x="358" y="287"/>
      <point x="354" y="274" type="curve"/>
      <point x="149" y="270" type="line"/>
    </contour>
    <contour>
      <point x="413" y="687" type="line"/>
      <point x="288" y="699" type="line"/>
      <point x="205" y="547" type="line"/>
      <point x="284" y="533" type="line"/>
    </contour>
  </outline>
</glyph>
<glyph name="icircumflex" format="1">
  <advance width="244"/>
  <unicode hex="00EE"/>
  <note>
	icircumflex
  </note>
  <outline>
    <contour>
      <point x="175" y="0" type="line"/>
      <point x="175" y="470" type="line"/>
      <point x="69" y="470" type="line"/>
      <point x="69" y="0" type="line"/>
    </contour>
    <contour>
      <point x="120" y="602" type="line"/>
      <point x="126" y="602" type="line"/>
      <point x="202" y="532" type="line"/>
      <point x="267" y="545" type="line"/>
      <point x="170" y="682" type="line"/>
      <point x="76" y="682" type="line"/>
      <point x="-22" y="545" type="line"/>
      <point x="40" y="532" type="line"/>
    </contour>
  </outline>
</glyph>
<glyph name="idieresis" format="1">
  <advance width="244"/>
  <unicode hex="00EF"/>
  <note>
	idieresis
  </note>
  <outline>
    <contour>
      <point x="175" y="0" type="line"/>
      <point x="175" y="470" type="line"/>
      <point x="69" y="470" type="line"/>
      <point x="69" y="0" type="line"/>
    </contour>
    <contour>
      <point x="74" y="535"/>
      <point x="95" y="555"/>
      <point x="95" y="587" type="curve" smooth="yes"/>
      <point x="95" y="622"/>
      <point x="74" y="642"/>
      <point x="39" y="642" type="curve" smooth="yes"/>
      <point x="4" y="642"/>
      <point x="-17" y="622"/>
      <point x="-17" y="587" type="curve" smooth="yes"/>
      <point x="-17" y="555"/>
      <point x="4" y="535"/>
      <point x="39" y="535" type="curve" smooth="yes"/>
    </contour>
    <contour>
      <point x="241" y="535"/>
      <point x="261" y="555"/>
      <point x="261" y="587" type="curve" smooth="yes"/>
      <point x="261" y="622"/>
      <point x="241" y="642"/>
      <point x="205" y="642" type="curve" smooth="yes"/>
      <point x="169" y="642"/>
      <point x="148" y="622"/>
      <point x="148" y="587" type="curve" smooth="yes"/>
      <point x="148" y="555"/>
      <point x="169" y="535"/>
      <point x="205" y="535" type="curve" smooth="yes"/>
    </contour>
  </outline>
</glyph>
<glyph name="ntilde" format="1">
  <advance width="544"/>
  <unicode hex="00F1"/>
  <note>
	ntilde
  </note>
  <outline>
    <contour>
      <point x="181" y="0" type="line"/>
      <point x="181" y="330" type="line"/>
      <point x="211" y="363"/>
      <point x="252" y="381"/>
      <point x="314" y="381" type="curve" smooth="yes"/>
      <point x="333" y="381"/>
      <point x="355" y="379"/>
      <point x="375" y="372" type="curve"/>
      <point x="375" y="0" type="line"/>
      <point x="482" y="0" type="line"/>
      <point x="482" y="344" type="line" smooth="yes"/>
      <point x="482" y="439"/>
      <point x="437" y="480"/>
      <point x="346" y="480" type="curve" smooth="yes"/>
      <point x="271" y="480"/>
      <point x="221" y="445"/>
      <point x="184" y="398" type="curve"/>
      <point x="176" y="398" type="line"/>
      <point x="170" y="471" type="line"/>
      <point x="74" y="471" type="line"/>
      <point x="74" y="0" type="line"/>
    </contour>
    <contour>
      <point x="193" y="556"/>
      <point x="201" y="576"/>
      <point x="227" y="576" type="curve" smooth="yes"/>
      <point x="262" y="576"/>
      <point x="293" y="535"/>
      <point x="340" y="535" type="curve" smooth="yes"/>
      <point x="402" y="535"/>
      <point x="426" y="575"/>
      <point x="429" y="647" type="curve"/>
      <point x="360" y="668" type="line"/>
      <point x="357" y="641"/>
      <point x="350" y="621"/>
      <point x="323" y="621" type="curve" smooth="yes"/>
      <point x="294" y="621"/>
      <point x="258" y="662"/>
      <point x="213" y="662" type="curve" smooth="yes"/>
      <point x="149" y="662"/>
      <point x="125" y="622"/>
      <point x="122" y="550" type="curve"/>
      <point x="191" y="529" type="line"/>
    </contour>
  </outline>
</glyph>
<glyph name="ocircumflex" format="1">
  <advance width="532"/>
  <unicode hex="00F4"/>
  <note>
	ocircumflex
  </note>
  <outline>
    <contour>
      <point x="420" y="-8"/>
      <point x="486" y="86"/>
      <point x="486" y="236" type="curve" smooth="yes"/>
      <point x="486" y="380"/>
      <point x="432" y="481"/>
      <point x="279" y="481" type="curve" smooth="yes"/>
      <point x="119" y="481"/>
      <point x="46" y="380"/>
      <point x="46" y="229" type="curve" smooth="yes"/>
      <point x="46" y="85"/>
      <point x="100" y="-8"/>
      <point x="253" y="-8" type="curve" smooth="yes"/>
    </contour>
    <contour>
      <point x="173" y="83"/>
      <point x="152" y="127"/>
      <point x="152" y="240" type="curve" smooth="yes"/>
      <point x="152" y="299"/>
      <point x="159" y="343"/>
      <point x="172" y="373" type="curve"/>
      <point x="195" y="382"/>
      <point x="227" y="387"/>
      <point x="258" y="387" type="curve" smooth="yes"/>
      <point x="360" y="387"/>
      <point x="380" y="338"/>
      <point x="380" y="223" type="curve" smooth="yes"/>
      <point x="380" y="165"/>
      <point x="373" y="126"/>
      <point x="360" y="97" type="curve"/>
      <point x="337" y="88"/>
      <point x="306" y="83"/>
      <point x="274" y="83" type="curve" smooth="yes"/>
    </contour>
    <contour>
      <point x="263" y="602" type="line"/>
      <point x="269" y="602" type="line"/>
      <point x="346" y="532" type="line"/>
      <point x="410" y="545" type="line"/>
      <point x="313" y="682" type="line"/>
      <point x="219" y="682" type="line"/>
      <point x="121" y="545" type="line"/>
      <point x="184" y="532" type="line"/>
    </contour>
  </outline>
</glyph>
<glyph name="ugrave" format="1">
  <advance width="538"/>
  <unicode hex="00F9"/>
  <note>
	ugrave
  </note>
  <outline>
    <contour>
      <point x="273" y="-8"/>
      <point x="319" y="24"/>
      <point x="359" y="72" type="curve"/>
      <point x="367" y="72" type="line"/>
      <point x="373" y="0" type="line"/>
      <point x="468" y="0" type="line"/>
      <point x="468" y="471" type="line"/>
      <point x="360" y="471" type="line"/>
      <point x="360" y="141" type="line"/>
      <point x="329" y="106"/>
      <point x="288" y="89"/>
      <point x="232" y="89" type="curve" smooth="yes"/>
      <point x="214" y="89"/>
      <point x="193" y="91"/>
      <point x="172" y="97" type="curve"/>
      <point x="172" y="471" type="line"/>
      <point x="64" y="471" type="line"/>
      <point x="64" y="132" type="line" smooth="yes"/>
      <point x="64" y="32"/>
      <point x="110" y="-8"/>
      <point x="201" y="-8" type="curve" smooth="yes"/>
    </contour>
    <contour>
      <point x="327" y="547" type="line"/>
      <point x="243" y="696" type="line"/>
      <point x="112" y="682" type="line"/>
      <point x="240" y="533" type="line"/>
    </contour>
  </outline>
</glyph>
<glyph name="ucircumflex" format="1">
  <advance width="538"/>
  <unicode hex="00FB"/>
  <note>
	ucircumflex
  </note>
  <outline>
    <contour>
      <point x="273" y="-8"/>
      <point x="319" y="24"/>
      <point x="359" y="72" type="curve"/>
      <point x="367" y="72" type="line"/>
      <point x="373" y="0" type="line"/>
      <point x="468" y="0" type="line"/>
      <point x="468" y="471" type="line"/>
      <point x="360" y="471" type="line"/>
      <point x="360" y="141" type="line"/>
      <point x="329" y="106"/>
      <point x="288" y="89"/>
      <point x="232" y="89" type="curve" smooth="yes"/>
      <point x="214" y="89"/>
      <point x="193" y="91"/>
      <point x="172" y="97" type="curve"/>
      <point x="172" y="471" type="line"/>
      <point x="64" y="471" type="line"/>
      <point x="64" y="132" type="line" smooth="yes"/>
      <point x="64" y="32"/>
      <point x="110" y="-8"/>
      <point x="201" y="-8" type="curve" smooth="yes"/>
    </contour>
    <contour>
      <point x="262" y="602" type="line"/>
      <point x="268" y="602" type="line"/>
      <point x="345" y="533" type="line"/>
      <point x="409" y="545" type="line"/>
      <point x="312" y="682" type="line"/>
      <point x="218" y="682" type="line"/>
      <point x="120" y="545" type="line"/>
      <point x="183" y="533" type="line"/>
    </contour>
  </outline>
</glyph>
<glyph name="Abreve" format="1">
  <advance width="624"/>
  <unicode hex="0102"/>
  <note>
	Abreve
  </note>
  <outline>
    <contour>
      <point x="406" y="678"/>
      <point x="449" y="723"/>
      <point x="457" y="802" type="curve"/>
      <point x="361" y="817" type="line"/>
      <point x="359" y="782"/>
      <point x="349" y="762"/>
      <point x="311" y="762" type="curve" smooth="yes"/>
      <point x="273" y="762"/>
      <point x="263" y="782"/>
      <point x="261" y="817" type="curve"/>
      <point x="165" y="802" type="line"/>
      <point x="173" y="723"/>
      <point x="216" y="678"/>
      <point x="311" y="678" type="curve" smooth="yes"/>
    </contour>
    <component base="A"/>
  </outline>
</glyph>
<glyph name="Cacute" format="1">
  <advance width="590"/>
  <unicode hex="0106"/>
  <note>
	Cacute
  </note>
  <outline>
    <contour>
      <point x="427" y="-9"/>
      <point x="502" y="14"/>
      <point x="552" y="53" type="curve"/>
      <point x="506" y="138" type="line"/>
      <point x="466" y="110"/>
      <point x="404" y="93"/>
      <point x="336" y="93" type="curve" smooth="yes"/>
      <point x="208" y="93"/>
      <point x="160" y="154"/>
      <point x="160" y="296" type="curve" smooth="yes"/>
      <point x="160" y="377"/>
      <point x="174" y="453"/>
      <point x="202" y="513" type="curve"/>
      <point x="243" y="522"/>
      <point x="279" y="526"/>
      <point x="317" y="526" type="curve" smooth="yes"/>
      <point x="356" y="526"/>
      <point x="392" y="523"/>
      <point x="417" y="517" type="curve"/>
      <point x="427" y="440" type="line"/>
      <point x="511" y="440" type="line"/>
      <point x="519" y="464"/>
      <point x="524" y="502"/>
      <point x="524" y="534" type="curve" smooth="yes"/>
      <point x="524" y="584" type="line"/>
      <point x="484" y="608"/>
      <point x="407" y="628"/>
      <point x="323" y="628" type="curve" smooth="yes"/>
      <point x="136" y="628"/>
      <point x="50" y="487"/>
      <point x="50" y="290" type="curve" smooth="yes"/>
      <point x="50" y="93"/>
      <point x="143" y="-9"/>
      <point x="331" y="-9" type="curve" smooth="yes"/>
    </contour>
    <contour>
      <point x="483" y="832" type="line"/>
      <point x="358" y="844" type="line"/>
      <point x="275" y="692" type="line"/>
      <point x="354" y="678" type="line"/>
    </contour>
  </outline>
</glyph>
<glyph name="ccircumflex" format="1">
  <advance width="468"/>
  <unicode hex="0109"/>
  <note>
	ccircumflex
  </note>
  <outline>
    <contour>
      <point x="349" y="-9"/>
      <point x="401" y="17"/>
      <point x="446" y="56" type="curve"/>
      <point x="397" y="133" type="line"/>
      <point x="363" y="104"/>
      <point x="322" y="90"/>
      <point x="273" y="90" type="curve" smooth="yes"/>
      <point x="177" y="90"/>
      <point x="149" y="138"/>
      <point x="149" y="227" type="curve" smooth="yes"/>
      <point x="149" y="278"/>
      <point x="157" y="336"/>
      <point x="169" y="369" type="curve"/>
      <point x="191" y="377"/>
      <point x="224" y="380"/>
      <point x="255" y="380" type="curve" smooth="yes"/>
      <point x="278" y="380"/>
      <point x="301" y="378"/>
      <point x="318" y="373" type="curve"/>
      <point x="326" y="310" type="line"/>
      <point x="409" y="310" type="line"/>
      <point x="417" y="335"/>
      <point x="422" y="368"/>
      <point x="422" y="401" type="curve" smooth="yes"/>
      <point x="422" y="437" type="line"/>
      <point x="387" y="460"/>
      <point x="330" y="478"/>
      <point x="262" y="478" type="curve" smooth="yes"/>
      <point x="119" y="478"/>
      <point x="43" y="377"/>
      <point x="43" y="225" type="curve" smooth="yes"/>
      <point x="43" y="88"/>
      <point x="97" y="-9"/>
      <point x="270" y="-9" type="curve" smooth="yes"/>
    </contour>
    <contour>
      <point x="252" y="602" type="line"/>
      <point x="258" y="602" type="line"/>
      <point x="335" y="532" type="line"/>
      <point x="399" y="545" type="line"/>
      <point x="302" y="682" type="line"/>
      <point x="208" y="682" type="line"/>
      <point x="110" y="545" type="line"/>
      <point x="173" y="532" type="line"/>
    </contour>
  </outline>
</glyph>
<glyph name="Cdotaccent" format="1">
  <advance width="590"/>
  <unicode hex="010A"/>
  <note>
	Cdotaccent
  </note>
  <outline>
    <contour>
      <point x="427" y="-9"/>
      <point x="502" y="14"/>
      <point x="552" y="53" type="curve"/>
      <point x="506" y="138" type="line"/>
      <point x="466" y="110"/>
      <point x="404" y="93"/>
      <point x="336" y="93" type="curve" smooth="yes"/>
      <point x="208" y="93"/>
      <point x="160" y="154"/>
      <point x="160" y="296" type="curve" smooth="yes"/>
      <point x="160" y="377"/>
      <point x="174" y="453"/>
      <point x="202" y="513" type="curve"/>
      <point x="243" y="522"/>
      <point x="279" y="526"/>
      <point x="317" y="526" type="curve" smooth="yes"/>
      <point x="356" y="526"/>
      <point x="392" y="523"/>
      <point x="417" y="517" type="curve"/>
      <point x="427" y="440" type="line"/>
      <point x="511" y="440" type="line"/>
      <point x="519" y="464"/>
      <point x="524" y="502"/>
      <point x="524" y="534" type="curve" smooth="yes"/>
      <point x="524" y="584" type="line"/>
      <point x="484" y="608"/>
      <point x="407" y="628"/>
      <point x="323" y="628" type="curve" smooth="yes"/>
      <point x="136" y="628"/>
      <point x="50" y="487"/>
      <point x="50" y="290" type="curve" smooth="yes"/>
      <point x="50" y="93"/>
      <point x="143" y="-9"/>
      <point x="331" y="-9" type="curve" smooth="yes"/>
    </contour>
    <contour>
      <point x="368" y="681"/>
      <point x="394" y="705"/>
      <point x="394" y="745" type="curve" smooth="yes"/>
      <point x="394" y="787"/>
      <point x="368" y="811"/>
      <point x="325" y="811" type="curve" smooth="yes"/>
      <point x="282" y="811"/>
      <point x="257" y="787"/>
      <point x="257" y="745" type="curve" smooth="yes"/>
      <point x="257" y="705"/>
      <point x="282" y="681"/>
      <point x="325" y="681" type="curve" smooth="yes"/>
    </contour>
  </outline>
</glyph>
<glyph name="cdotaccent" format="1">
  <advance width="468"/>
  <unicode hex="010B"/>
  <note>
	cdotaccent
  </note>
  <outline>
    <contour>
      <point x="349" y="-9"/>
      <point x="401" y="17"/>
      <point x="446" y="56" type="curve"/>
      <point x="397" y="133" type="line"/>
      <point x="363" y="104"/>
      <point x="322" y="90"/>
      <point x="273" y="90" type="curve" smooth="yes"/>
      <point x="177" y="90"/>
      <point x="149" y="138"/>
      <point x="149" y="227" type="curve" smooth="yes"/>
      <point x="149" y="278"/>
      <point x="157" y="336"/>
      <point x="169" y="369" type="curve"/>
      <point x="191" y="377"/>
      <point x="224" y="380"/>
      <point x="255" y="380" type="curve" smooth="yes"/>
      <point x="278" y="380"/>
      <point x="301" y="378"/>
      <point x="318" y="373" type="curve"/>
      <point x="326" y="310" type="line"/>
      <point x="409" y="310" type="line"/>
      <point x="417" y="335"/>
      <point x="422" y="368"/>
      <point x="422" y="401" type="curve" smooth="yes"/>
      <point x="422" y="437" type="line"/>
      <point x="387" y="460"/>
      <point x="330" y="478"/>
      <point x="262" y="478" type="curve" smooth="yes"/>
      <point x="119" y="478"/>
      <point x="43" y="377"/>
      <point x="43" y="225" type="curve" smooth="yes"/>
      <point x="43" y="88"/>
      <point x="97" y="-9"/>
      <point x="270" y="-9" type="curve" smooth="yes"/>
    </contour>
    <contour>
      <point x="300" y="535"/>
      <point x="326" y="559"/>
      <point x="326" y="598" type="curve" smooth="yes"/>
      <point x="326" y="641"/>
      <point x="300" y="664"/>
      <point x="257" y="664" type="curve" smooth="yes"/>
      <point x="214" y="664"/>
      <point x="189" y="641"/>
      <point x="189" y="598" type="curve" smooth="yes"/>
      <point x="189" y="559"/>
      <point x="214" y="535"/>
      <point x="257" y="535" type="curve" smooth="yes"/>
    </contour>
  </outline>
</glyph>
<glyph name="Ccaron" format="1">
  <advance width="590"/>
  <unicode hex="010C"/>
  <note>
	Ccaron
  </note>
  <outline>
    <contour>
      <point x="427" y="-9"/>
      <point x="502" y="14"/>
      <point x="552" y="53" type="curve"/>
      <point x="506" y="138" type="line"/>
      <point x="466" y="110"/>
      <point x="404" y="93"/>
      <point x="336" y="93" type="curve" smooth="yes"/>
      <point x="208" y="93"/>
      <point x="160" y="154"/>
      <point x="160" y="296" type="curve" smooth="yes"/>
      <point x="160" y="377"/>
      <point x="174" y="453"/>
      <point x="202" y="513" type="curve"/>
      <point x="243" y="522"/>
      <point x="279" y="526"/>
      <point x="317" y="526" type="curve" smooth="yes"/>
      <point x="356" y="526"/>
      <point x="392" y="523"/>
      <point x="417" y="517" type="curve"/>
      <point x="427" y="440" type="line"/>
      <point x="511" y="440" type="line"/>
      <point x="519" y="464"/>
      <point x="524" y="502"/>
      <point x="524" y="534" type="curve" smooth="yes"/>
      <point x="524" y="584" type="line"/>
      <point x="484" y="608"/>
      <point x="407" y="628"/>
      <point x="323" y="628" type="curve" smooth="yes"/>
      <point x="136" y="628"/>
      <point x="50" y="487"/>
      <point x="50" y="290" type="curve" smooth="yes"/>
      <point x="50" y="93"/>
      <point x="143" y="-9"/>
      <point x="331" y="-9" type="curve" smooth="yes"/>
    </contour>
    <contour>
      <point x="370" y="684" type="line"/>
      <point x="467" y="821" type="line"/>
      <point x="403" y="833" type="line"/>
      <point x="326" y="764" type="line"/>
      <point x="320" y="764" type="line"/>
      <point x="241" y="833" type="line"/>
      <point x="178" y="821" type="line"/>
      <point x="276" y="684" type="line"/>
    </contour>
  </outline>
</glyph>
<glyph name="Dcroat" format="1">
  <advance width="654"/>
  <unicode hex="0110"/>
  <note>
	Dcroat
  </note>
  <outline>
    <contour>
      <point x="278" y="0" type="line" smooth="yes"/>
      <point x="546" y="0"/>
      <point x="611" y="122"/>
      <point x="611" y="318" type="curve" smooth="yes"/>
      <point x="611" y="510"/>
      <point x="536" y="628"/>
      <point x="314" y="628" type="curve" smooth="yes"/>
      <point x="248" y="628"/>
      <point x="177" y="620"/>
      <point x="122" y="606" type="curve"/>
      <point x="122" y="354" type="line"/>
      <point x="41" y="354" type="line"/>
      <point x="41" y="256" type="line"/>
      <point x="122" y="256" type="line"/>
      <point x="122" y="0" type="line"/>
    </contour>
    <contour>
      <point x="231" y="256" type="line"/>
      <point x="328" y="256" type="line"/>
      <point x="328" y="354" type="line"/>
      <point x="231" y="354" type="line"/>
      <point x="231" y="521" type="line"/>
      <point x="261" y="525"/>
      <point x="286" y="527"/>
      <point x="316" y="527" type="curve" smooth="yes"/>
      <point x="457" y="527"/>
      <point x="501" y="461"/>
      <point x="501" y="307" type="curve" smooth="yes"/>
      <point x="501" y="236"/>
      <point x="490" y="167"/>
      <point x="472" y="122" type="curve"/>
      <point x="420" y="107"/>
      <point x="361" y="101"/>
      <point x="287" y="101" type="curve" smooth="yes"/>
      <point x="231" y="101" type="line"/>
    </contour>
  </outline>
</glyph>
<glyph name="Ebreve" format="1">
  <advance width="555"/>
  <unicode hex="0114"/>
  <note>
	Ebreve
  </note>
  <outline>
    <contour>
      <point x="383" y="-9"/>
      <point x="449" y="-2"/>
      <point x="500" y="13" type="curve"/>
      <point x="481" y="110" type="line"/>
      <point x="429" y="97"/>
      <point x="367" y="91"/>
      <point x="306" y="91" type="curve" smooth="yes"/>
      <point x="260" y="91"/>
      <point x="222" y="94"/>
      <point x="180" y="101" type="curve"/>
      <point x="180" y="259" type="line"/>
      <point x="454" y="259" type="line"/>
      <point x="454" y="355" type="line"/>
      <point x="180" y="355" type="line"/>
      <point x="180" y="517" type="line"/>
      <point x="492" y="517" type="line"/>
      <point x="492" y="618" type="line"/>
      <point x="71" y="618" type="line"/>
      <point x="71" y="104" type="line" smooth="yes"/>
      <point x="71" y="14"/>
      <point x="170" y="-9"/>
      <point x="303" y="-9" type="curve" smooth="yes"/>
    </contour>
    <contour>
      <point x="388" y="681"/>
      <point x="431" y="726"/>
      <point x="439" y="805" type="curve"/>
      <point x="343" y="820" type="line"/>
      <point x="341" y="785"/>
      <point x="331" y="765"/>
      <point x="293" y="765" type="curve" smooth="yes"/>
      <point x="255" y="765"/>
      <point x="245" y="785"/>
      <point x="243" y="820" type="curve"/>
      <point x="147" y="805" type="line"/>
      <point x="155" y="726"/>
      <point x="198" y="681"/>
      <point x="293" y="681" type="curve" smooth="yes"/>
    </contour>
  </outline>
</glyph>
<glyph name="edotaccent" format="1">
  <advance width="503"/>
  <unicode hex="0117"/>
  <note>
	edotaccent
  </note>
  <outline>
    <contour>
      <point x="359" y="-7"/>
      <point x="412" y="17"/>
      <point x="456" y="45" type="curve"/>
      <point x="426" y="127" type="line"/>
      <point x="385" y="102"/>
      <point x="343" y="83"/>
      <point x="275" y="83" type="curve" smooth="yes"/>
      <point x="189" y="83"/>
      <point x="151" y="124"/>
      <point x="150" y="198" type="curve"/>
      <point x="392" y="195" type="line"/>
      <point x="457" y="259" type="line"/>
      <point x="467" y="391"/>
      <point x="406" y="480"/>
      <point x="269" y="480" type="curve" smooth="yes"/>
      <point x="125" y="480"/>
      <point x="46" y="388"/>
      <point x="46" y="231" type="curve" smooth="yes"/>
      <point x="46" y="82"/>
      <point x="114" y="-7"/>
      <point x="270" y="-7" type="curve" smooth="yes"/>
    </contour>
    <contour>
      <point x="152" y="348"/>
      <point x="178" y="389"/>
      <point x="265" y="389" type="curve" smooth="yes"/>
      <point x="326" y="389"/>
      <point x="359" y="359"/>
      <point x="359" y="311" type="curve" smooth="yes"/>
      <point x="359" y="302"/>
      <point x="358" y="287"/>
      <point x="354" y="274" type="curve"/>
      <point x="149" y="270" type="line"/>
    </contour>
    <contour>
      <point x="305" y="537"/>
      <point x="331" y="561"/>
      <point x="331" y="600" type="curve" smooth="yes"/>
      <point x="331" y="643"/>
      <point x="305" y="666"/>
      <point x="262" y="666" type="curve" smooth="yes"/>
      <point x="219" y="666"/>
      <point x="194" y="643"/>
      <point x="194" y="600" type="curve" smooth="yes"/>
      <point x="194" y="561"/>
      <point x="219" y="537"/>
      <point x="262" y="537" type="curve" smooth="yes"/>
    </contour>
  </outline>
</glyph>
<glyph name="Eogonek" format="1">
  <advance width="555"/>
  <unicode hex="0118"/>
  <note>
	Eogonek
  </note>
  <outline>
    <contour>
      <point x="484" y="-166"/>
      <point x="509" y="-160"/>
      <point x="528" y="-152" type="curve"/>
      <point x="511" y="-81" type="line"/>
      <point x="497" y="-85"/>
      <point x="485" y="-87"/>
      <point x="471" y="-87" type="curve" smooth="yes"/>
      <point x="457" y="-87"/>
      <point x="445" y="-86"/>
      <point x="435" y="-83" type="curve"/>
      <point x="433" y="-77"/>
      <point x="432" y="-70"/>
      <point x="432" y="-63" type="curve" smooth="yes"/>
      <point x="432" y="-38"/>
      <point x="440" y="-19"/>
      <point x="474" y="2" type="curve"/>
      <point x="483" y="5"/>
      <point x="495" y="9"/>
      <point x="501" y="11" type="curve"/>
      <point x="481" y="110" type="line"/>
      <point x="429" y="97"/>
      <point x="367" y="91"/>
      <point x="306" y="91" type="curve" smooth="yes"/>
      <point x="260" y="91"/>
      <point x="222" y="94"/>
      <point x="180" y="101" type="curve"/>
      <point x="180" y="259" type="line"/>
      <point x="454" y="259" type="line"/>
      <point x="454" y="355" type="line"/>
      <point x="180" y="355" type="line"/>
      <point x="180" y="517" type="line"/>
      <point x="492" y="517" type="line"/>
      <point x="492" y="618" type="line"/>
      <point x="71" y="618" type="line"/>
      <point x="71" y="104" type="line" smooth="yes"/>
      <point x="71" y="14"/>
      <point x="170" y="-9"/>
      <point x="303" y="-9" type="curve" smooth="yes"/>
      <point x="328" y="-9"/>
      <point x="352" y="-8"/>
      <point x="375" y="-6" type="curve"/>
      <point x="350" y="-25"/>
      <point x="336" y="-49"/>
      <point x="336" y="-82" type="curve" smooth="yes"/>
      <point x="336" y="-137"/>
      <point x="377" y="-166"/>
      <point x="453" y="-166" type="curve" smooth="yes"/>
    </contour>
  </outline>
</glyph>
<glyph name="hcircumflex" format="1">
  <advance width="548"/>
  <unicode hex="0125"/>
  <note>
	hcircumflex
  </note>
  <outline>
    <contour>
      <point x="177" y="0" type="line"/>
      <point x="177" y="329" type="line"/>
      <point x="210" y="363"/>
      <point x="250" y="381"/>
      <point x="311" y="381" type="curve" smooth="yes"/>
      <point x="329" y="381"/>
      <point x="353" y="379"/>
      <point x="374" y="372" type="curve"/>
      <point x="374" y="0" type="line"/>
      <point x="482" y="0" type="line"/>
      <point x="482" y="344" type="line" smooth="yes"/>
      <point x="482" y="441"/>
      <point x="433" y="480"/>
      <point x="342" y="480" type="curve" smooth="yes"/>
      <point x="270" y="480"/>
      <point x="219" y="447"/>
      <point x="180" y="400" type="curve"/>
      <point x="174" y="400" type="line"/>
      <point x="177" y="476" type="line"/>
      <point x="177" y="671" type="line"/>
      <point x="70" y="671" type="line"/>
      <point x="70" y="0" type="line"/>
    </contour>
    <contour>
      <point x="295" y="769" type="line"/>
      <point x="301" y="769" type="line"/>
      <point x="378" y="700" type="line"/>
      <point x="442" y="712" type="line"/>
      <point x="345" y="849" type="line"/>
      <point x="251" y="849" type="line"/>
      <point x="153" y="712" type="line"/>
      <point x="216" y="700" type="line"/>
    </contour>
  </outline>
</glyph>
<glyph name="Hbar" format="1">
  <advance width="694"/>
  <unicode hex="0126"/>
  <note>
	Hbar
  </note>
  <outline>
    <contour>
      <point x="218" y="0" type="line"/>
      <point x="218" y="248" type="line"/>
      <point x="474" y="248" type="line"/>
      <point x="474" y="0" type="line"/>
      <point x="584" y="0" type="line"/>
      <point x="584" y="428" type="line"/>
      <point x="648" y="428" type="line"/>
      <point x="648" y="514" type="line"/>
      <point x="584" y="514" type="line"/>
      <point x="584" y="618" type="line"/>
      <point x="474" y="618" type="line"/>
      <point x="474" y="514" type="line"/>
      <point x="218" y="514" type="line"/>
      <point x="218" y="618" type="line"/>
      <point x="108" y="618" type="line"/>
      <point x="108" y="514" type="line"/>
      <point x="46" y="514" type="line"/>
      <point x="46" y="428" type="line"/>
      <point x="108" y="428" type="line"/>
      <point x="108" y="0" type="line"/>
    </contour>
    <contour>
      <point x="219" y="428" type="line"/>
      <point x="474" y="428" type="line"/>
      <point x="474" y="350" type="line"/>
      <point x="219" y="350" type="line"/>
    </contour>
  </outline>
</glyph>
<glyph name="Imacron" format="1">
  <advance width="310"/>
  <unicode hex="012A"/>
  <note>
	Imacron
  </note>
  <outline>
    <contour>
      <point x="210" y="0" type="line"/>
      <point x="210" y="618" type="line"/>
      <point x="100" y="618" type="line"/>
      <point x="100" y="0" type="line"/>
    </contour>
    <contour>
      <point x="321" y="684" type="line"/>
      <point x="321" y="780" type="line"/>
      <point x="-10" y="780" type="line"/>
      <point x="-10" y="684" type="line"/>
    </contour>
  </outline>
</glyph>
<glyph name="imacron" format="1">
  <advance width="248"/>
  <unicode hex="012B"/>
  <note>
	imacron
  </note>
  <outline>
    <contour>
      <point x="177" y="0" type="line"/>
      <point x="177" y="470" type="line"/>
      <point x="71" y="470" type="line"/>
      <point x="71" y="0" type="line"/>
    </contour>
    <contour>
      <point x="290" y="540" type="line"/>
      <point x="290" y="636" type="line"/>
      <point x="-41" y="636" type="line"/>
      <point x="-41" y="540" type="line"/>
    </contour>
  </outline>
</glyph>
<glyph name="Ibreve" format="1">
  <advance width="258"/>
  <unicode hex="012C"/>
  <note>
	Ibreve
  </note>
  <outline>
    <contour>
      <point x="184" y="0" type="line"/>
      <point x="184" y="618" type="line"/>
      <point x="74" y="618" type="line"/>
      <point x="74" y="0" type="line"/>
    </contour>
    <contour>
      <point x="224" y="681"/>
      <point x="267" y="726"/>
      <point x="275" y="805" type="curve"/>
      <point x="179" y="820" type="line"/>
      <point x="177" y="785"/>
      <point x="167" y="765"/>
      <point x="129" y="765" type="curve" smooth="yes"/>
      <point x="90" y="765"/>
      <point x="81" y="785"/>
      <point x="78" y="820" type="curve"/>
      <point x="-17" y="805" type="line"/>
      <point x="-9" y="726"/>
      <point x="34" y="681"/>
      <point x="129" y="681" type="curve" smooth="yes"/>
    </contour>
  </outline>
</glyph>
<glyph name="ibreve" format="1">
  <advance width="244"/>
  <unicode hex="012D"/>
  <note>
	ibreve
  </note>
  <outline>
    <contour>
      <point x="175" y="0" type="line"/>
      <point x="175" y="470" type="line"/>
      <point x="69" y="470" type="line"/>
      <point x="69" y="0" type="line"/>
    </contour>
    <contour>
      <point x="217" y="537"/>
      <point x="260" y="582"/>
      <point x="268" y="661" type="curve"/>
      <point x="172" y="675" type="line"/>
      <point x="170" y="641"/>
      <point x="160" y="621"/>
      <point x="122" y="621" type="curve" smooth="yes"/>
      <point x="84" y="621"/>
      <point x="74" y="641"/>
      <point x="72" y="675" type="curve"/>
      <point x="-24" y="661" type="line"/>
      <point x="-16" y="582"/>
      <point x="27" y="537"/>
      <point x="122" y="537" type="curve" smooth="yes"/>
    </contour>
  </outline>
</glyph>
<glyph name="dotlessi" format="1">
  <advance width="232"/>
  <unicode hex="0131"/>
  <note>
	dotlessi
  </note>
  <outline>
    <contour>
      <point x="169" y="0" type="line"/>
      <point x="169" y="470" type="line"/>
      <point x="63" y="470" type="line"/>
      <point x="63" y="0" type="line"/>
    </contour>
  </outline>
</glyph>
<glyph name="ij" format="1">
  <advance width="537"/>
  <unicode hex="0133"/>
  <note>
	ij
  </note>
  <outline>
    <contour>
      <point x="416" y="-198"/>
      <point x="466" y="-138"/>
      <point x="466" y="-43" type="curve" smooth="yes"/>
      <point x="466" y="468" type="line"/>
      <point x="360" y="468" type="line"/>
      <point x="360" y="-35" type="line" smooth="yes"/>
      <point x="360" y="-57"/>
      <point x="358" y="-76"/>
      <point x="352" y="-92" type="curve"/>
      <point x="336" y="-97"/>
      <point x="323" y="-99"/>
      <point x="303" y="-99" type="curve" smooth="yes"/>
      <point x="274" y="-99"/>
      <point x="255" y="-95"/>
      <point x="224" y="-85" type="curve"/>
      <point x="197" y="-177" type="line"/>
      <point x="231" y="-190"/>
      <point x="275" y="-198"/>
      <point x="310" y="-198" type="curve" smooth="yes"/>
    </contour>
    <contour>
      <point x="177" y="0" type="line"/>
      <point x="177" y="468" type="line"/>
      <point x="71" y="468" type="line"/>
      <point x="71" y="0" type="line"/>
    </contour>
    <contour>
      <point x="180" y="542" type="line"/>
      <point x="180" y="656" type="line"/>
      <point x="69" y="656" type="line"/>
      <point x="69" y="542" type="line"/>
    </contour>
    <contour>
      <point x="469" y="542" type="line"/>
      <point x="469" y="656" type="line"/>
      <point x="358" y="656" type="line"/>
      <point x="358" y="542" type="line"/>
    </contour>
  </outline>
</glyph>
<glyph name="jcircumflex" format="1">
  <advance width="304"/>
  <unicode hex="0135"/>
  <note>
	jcircumflex
  </note>
  <outline>
    <contour>
      <point x="181" y="-198"/>
      <point x="231" y="-138"/>
      <point x="231" y="-43" type="curve" smooth="yes"/>
      <point x="231" y="468" type="line"/>
      <point x="125" y="468" type="line"/>
      <point x="125" y="-35" type="line" smooth="yes"/>
      <point x="125" y="-57"/>
      <point x="123" y="-76"/>
      <point x="117" y="-92" type="curve"/>
      <point x="101" y="-97"/>
      <point x="88" y="-99"/>
      <point x="68" y="-99" type="curve" smooth="yes"/>
      <point x="39" y="-99"/>
      <point x="20" y="-95"/>
      <point x="-11" y="-85" type="curve"/>
      <point x="-38" y="-177" type="line"/>
      <point x="-4" y="-190"/>
      <point x="40" y="-198"/>
      <point x="75" y="-198" type="curve" smooth="yes"/>
    </contour>
    <contour>
      <point x="168" y="602" type="line"/>
      <point x="174" y="602" type="line"/>
      <point x="251" y="533" type="line"/>
      <point x="315" y="545" type="line"/>
      <point x="218" y="682" type="line"/>
      <point x="124" y="682" type="line"/>
      <point x="26" y="545" type="line"/>
      <point x="89" y="533" type="line"/>
    </contour>
  </outline>
</glyph>
<glyph name="Kcommaaccent" format="1">
  <advance width="613"/>
  <unicode hex="0136"/>
  <note>
	Kcommaaccent
  </note>
  <outline>
    <contour>
      <point x="544" y="-7"/>
      <point x="565" y="-3"/>
      <point x="584" y="2" type="curve"/>
      <point x="584" y="64" type="line"/>
      <point x="536" y="73" type="line"/>
      <point x="451" y="236" type="line" smooth="yes"/>
      <point x="428" y="280"/>
      <point x="412" y="300"/>
      <point x="362" y="315" type="curve"/>
      <point x="362" y="321" type="line"/>
      <point x="418" y="339"/>
      <point x="438" y="364"/>
      <point x="460" y="413" type="curve" smooth="yes"/>
      <point x="486" y="471"/>
      <point x="511" y="529"/>
      <point x="537" y="587" type="curve"/>
      <point x="431" y="624" type="line"/>
      <point x="404" y="559"/>
      <point x="377" y="496"/>
      <point x="350" y="431" type="curve" smooth="yes"/>
      <point x="333" y="392"/>
      <point x="309" y="367"/>
      <point x="243" y="367" type="curve" smooth="yes"/>
      <point x="181" y="367" type="line"/>
      <point x="181" y="618" type="line"/>
      <point x="71" y="618" type="line"/>
      <point x="71" y="0" type="line"/>
      <point x="181" y="0" type="line"/>
      <point x="181" y="267" type="line"/>
      <point x="249" y="267" type="line" smooth="yes"/>
      <point x="312" y="267"/>
      <point x="332" y="244"/>
      <point x="352" y="199" type="curve" smooth="yes"/>
      <point x="421" y="45" type="line" smooth="yes"/>
      <point x="438" y="9"/>
      <point x="464" y="-7"/>
      <point x="510" y="-7" type="curve" smooth="yes"/>
    </contour>
    <contour>
      <point x="366" y="-222"/>
      <point x="387" y="-175"/>
      <point x="387" y="-132" type="curve" smooth="yes"/>
      <point x="387" y="-80"/>
      <point x="363" y="-55"/>
      <point x="310" y="-55" type="curve" smooth="yes"/>
      <point x="289" y="-55"/>
      <point x="265" y="-59"/>
      <point x="247" y="-66" type="curve"/>
      <point x="247" y="-139" type="line"/>
      <point x="300" y="-139" type="line"/>
      <point x="299" y="-174"/>
      <point x="288" y="-205"/>
      <point x="268" y="-241" type="curve"/>
      <point x="335" y="-256" type="line"/>
    </contour>
  </outline>
</glyph>
<glyph name="kcommaaccent" format="1">
  <advance width="523"/>
  <unicode hex="0137"/>
  <note>
	kcommaaccent
  </note>
  <outline>
    <contour>
      <point x="454" y="-7"/>
      <point x="474" y="-3"/>
      <point x="492" y="2" type="curve"/>
      <point x="492" y="53" type="line"/>
      <point x="452" y="62" type="line"/>
      <point x="406" y="162" type="line"/>
      <point x="382" y="209"/>
      <point x="363" y="228"/>
      <point x="309" y="242" type="curve"/>
      <point x="309" y="248" type="line"/>
      <point x="365" y="264"/>
      <point x="390" y="289"/>
      <point x="407" y="330" type="curve" smooth="yes"/>
      <point x="456" y="443" type="line"/>
      <point x="354" y="480" type="line"/>
      <point x="301" y="353" type="line" smooth="yes"/>
      <point x="284" y="315"/>
      <point x="264" y="289"/>
      <point x="205" y="289" type="curve" smooth="yes"/>
      <point x="172" y="289" type="line"/>
      <point x="172" y="671" type="line"/>
      <point x="66" y="671" type="line"/>
      <point x="66" y="0" type="line"/>
      <point x="172" y="0" type="line"/>
      <point x="172" y="202" type="line"/>
      <point x="210" y="202" type="line" smooth="yes"/>
      <point x="269" y="202"/>
      <point x="291" y="177"/>
      <point x="312" y="129" type="curve" smooth="yes"/>
      <point x="351" y="40" type="line" smooth="yes"/>
      <point x="365" y="7"/>
      <point x="386" y="-7"/>
      <point x="428" y="-7" type="curve" smooth="yes"/>
    </contour>
    <contour>
      <point x="318" y="-222"/>
      <point x="339" y="-175"/>
      <point x="339" y="-132" type="curve" smooth="yes"/>
      <point x="339" y="-80"/>
      <point x="315" y="-55"/>
      <point x="262" y="-55" type="curve" smooth="yes"/>
      <point x="241" y="-55"/>
      <point x="217" y="-59"/>
      <point x="199" y="-66" type="curve"/>
      <point x="199" y="-139" type="line"/>
      <point x="252" y="-139" type="line"/>
      <point x="251" y="-174"/>
      <point x="240" y="-205"/>
      <point x="220" y="-241" type="curve"/>
      <point x="287" y="-256" type="line"/>
    </contour>
  </outline>
</glyph>
<glyph name="kgreenlandic" format="1">
  <advance width="497"/>
  <unicode hex="0138"/>
  <note>
	kgreenlandic
  </note>
  <outline>
    <contour>
      <point x="433" y="-5"/>
      <point x="452" y="-2"/>
      <point x="471" y="4" type="curve"/>
      <point x="471" y="56" type="line"/>
      <point x="442" y="65" type="line"/>
      <point x="394" y="165" type="line" smooth="yes"/>
      <point x="375" y="207"/>
      <point x="356" y="228"/>
      <point x="308" y="242" type="curve"/>
      <point x="308" y="248" type="line"/>
      <point x="357" y="264"/>
      <point x="380" y="292"/>
      <point x="396" y="330" type="curve" smooth="yes"/>
      <point x="450" y="458" type="line"/>
      <point x="345" y="482" type="line"/>
      <point x="290" y="353" type="line" smooth="yes"/>
      <point x="273" y="315"/>
      <point x="253" y="289"/>
      <point x="194" y="289" type="curve" smooth="yes"/>
      <point x="163" y="289" type="line"/>
      <point x="163" y="479" type="line"/>
      <point x="58" y="479" type="line"/>
      <point x="58" y="0" type="line"/>
      <point x="163" y="0" type="line"/>
      <point x="163" y="202" type="line"/>
      <point x="198" y="202" type="line" smooth="yes"/>
      <point x="258" y="202"/>
      <point x="280" y="177"/>
      <point x="301" y="129" type="curve" smooth="yes"/>
      <point x="341" y="37" type="line" smooth="yes"/>
      <point x="353" y="8"/>
      <point x="378" y="-5"/>
      <point x="413" y="-5" type="curve" smooth="yes"/>
    </contour>
  </outline>
</glyph>
<glyph name="Lacute" format="1">
  <advance width="474"/>
  <unicode hex="0139"/>
  <note>
	Lacute
  </note>
  <outline>
    <contour>
      <point x="454" y="0" type="line"/>
      <point x="454" y="102" type="line"/>
      <point x="181" y="102" type="line"/>
      <point x="181" y="618" type="line"/>
      <point x="71" y="618" type="line"/>
      <point x="71" y="0" type="line"/>
    </contour>
    <contour>
      <point x="292" y="830" type="line"/>
      <point x="167" y="843" type="line"/>
      <point x="84" y="691" type="line"/>
      <point x="163" y="677" type="line"/>
    </contour>
  </outline>
</glyph>
<glyph name="lacute" format="1">
  <advance width="298"/>
  <unicode hex="013A"/>
  <note>
	lacute
  </note>
  <outline>
    <contour>
      <point x="212" y="-6"/>
      <point x="262" y="30"/>
      <point x="284" y="65" type="curve"/>
      <point x="244" y="118" type="line"/>
      <point x="188" y="89" type="line"/>
      <point x="175" y="89" type="line"/>
      <point x="171" y="99"/>
      <point x="170" y="109"/>
      <point x="170" y="127" type="curve" smooth="yes"/>
      <point x="170" y="671" type="line"/>
      <point x="64" y="671" type="line"/>
      <point x="64" y="90" type="line" smooth="yes"/>
      <point x="64" y="53"/>
      <point x="132" y="2"/>
      <point x="167" y="-7" type="curve"/>
    </contour>
    <contour>
      <point x="278" y="839" type="line"/>
      <point x="153" y="852" type="line"/>
      <point x="70" y="700" type="line"/>
      <point x="149" y="686" type="line"/>
    </contour>
  </outline>
</glyph>
<glyph name="lcommaaccent" format="1">
  <advance width="298"/>
  <unicode hex="013C"/>
  <note>
	lcommaaccent
  </note>
  <outline>
    <contour>
      <point x="212" y="-6"/>
      <point x="262" y="30"/>
      <point x="284" y="65" type="curve"/>
      <point x="244" y="118" type="line"/>
      <point x="188" y="89" type="line"/>
      <point x="175" y="89" type="line"/>
      <point x="171" y="99"/>
      <point x="170" y="109"/>
      <point x="170" y="127" type="curve" smooth="yes"/>
      <point x="170" y="671" type="line"/>
      <point x="64" y="671" type="line"/>
      <point x="64" y="90" type="line" smooth="yes"/>
      <point x="64" y="53"/>
      <point x="132" y="2"/>
      <point x="167" y="-7" type="curve"/>
    </contour>
    <contour>
      <point x="212" y="-222"/>
      <point x="233" y="-175"/>
      <point x="233" y="-132" type="curve" smooth="yes"/>
      <point x="233" y="-80"/>
      <point x="209" y="-55"/>
      <point x="156" y="-55" type="curve" smooth="yes"/>
      <point x="135" y="-55"/>
      <point x="111" y="-59"/>
      <point x="93" y="-66" type="curve"/>
      <point x="93" y="-139" type="line"/>
      <point x="146" y="-139" type="line"/>
      <point x="145" y="-174"/>
      <point x="134" y="-205"/>
      <point x="114" y="-241" type="curve"/>
      <point x="181" y="-256" type="line"/>
    </contour>
  </outline>
</glyph>
<glyph name="ldot" format="1">
  <advance width="387"/>
  <unicode hex="0140"/>
  <note>
	ldot
  </note>
  <outline>
    <contour>
      <point x="212" y="-6"/>
      <point x="262" y="30"/>
      <point x="284" y="65" type="curve"/>
      <point x="244" y="118" type="line"/>
      <point x="188" y="89" type="line"/>
      <point x="175" y="89" type="line"/>
      <point x="171" y="99"/>
      <point x="170" y="109"/>
      <point x="170" y="127" type="curve" smooth="yes"/>
      <point x="170" y="671" type="line"/>
      <point x="64" y="671" type="line"/>
      <point x="64" y="90" type="line" smooth="yes"/>
      <point x="64" y="53"/>
      <point x="132" y="2"/>
      <point x="167" y="-7" type="curve"/>
    </contour>
    <contour>
      <point x="347" y="237"/>
      <point x="375" y="264"/>
      <point x="375" y="301" type="curve" smooth="yes"/>
      <point x="375" y="336"/>
      <point x="346" y="364"/>
      <point x="310" y="364" type="curve" smooth="yes"/>
      <point x="273" y="364"/>
      <point x="245" y="336"/>
      <point x="245" y="301" type="curve" smooth="yes"/>
      <point x="245" y="264"/>
      <point x="273" y="237"/>
      <point x="310" y="237" type="curve" smooth="yes"/>
    </contour>
  </outline>
</glyph>
<glyph name="Lslash" format="1">
  <advance width="496"/>
  <unicode hex="0141"/>
  <note>
	Lslash
  </note>
  <outline>
    <contour>
      <point x="476" y="0" type="line"/>
      <point x="476" y="102" type="line"/>
      <point x="203" y="102" type="line"/>
      <point x="203" y="269" type="line"/>
      <point x="337" y="311" type="line"/>
      <point x="311" y="395" type="line"/>
      <point x="203" y="362" type="line"/>
      <point x="203" y="618" type="line"/>
      <point x="93" y="618" type="line"/>
      <point x="93" y="326" type="line"/>
      <point x="-16" y="292" type="line"/>
      <point x="10" y="208" type="line"/>
      <point x="93" y="234" type="line"/>
      <point x="93" y="0" type="line"/>
    </contour>
  </outline>
</glyph>
<glyph name="lslash" format="1">
  <advance width="305"/>
  <unicode hex="0142"/>
  <note>
	lslash
  </note>
  <outline>
    <contour>
      <point x="215" y="-5"/>
      <point x="265" y="32"/>
      <point x="287" y="66" type="curve"/>
      <point x="247" y="119" type="line"/>
      <point x="191" y="90" type="line"/>
      <point x="178" y="90" type="line"/>
      <point x="174" y="100"/>
      <point x="173" y="110"/>
      <point x="173" y="128" type="curve" smooth="yes"/>
      <point x="173" y="303" type="line"/>
      <point x="298" y="343" type="line"/>
      <point x="271" y="427" type="line"/>
      <point x="173" y="395" type="line"/>
      <point x="173" y="671" type="line"/>
      <point x="67" y="671" type="line"/>
      <point x="67" y="362" type="line"/>
      <point x="-56" y="323" type="line"/>
      <point x="-29" y="239" type="line"/>
      <point x="67" y="270" type="line"/>
      <point x="67" y="91" type="line" smooth="yes"/>
      <point x="67" y="54"/>
      <point x="135" y="3"/>
      <point x="170" y="-6" type="curve"/>
    </contour>
  </outline>
</glyph>
<glyph name="napostrophe" format="1">
  <advance width="610"/>
  <unicode hex="0149"/>
  <note>
	napostrophe
  </note>
  <outline>
    <contour>
      <point x="247" y="0" type="line"/>
      <point x="247" y="330" type="line"/>
      <point x="277" y="363"/>
      <point x="318" y="381"/>
      <point x="380" y="381" type="curve" smooth="yes"/>
      <point x="399" y="381"/>
      <point x="421" y="379"/>
      <point x="441" y="372" type="curve"/>
      <point x="441" y="0" type="line"/>
      <point x="548" y="0" type="line"/>
      <point x="548" y="344" type="line" smooth="yes"/>
      <point x="548" y="439"/>
      <point x="503" y="480"/>
      <point x="412" y="480" type="curve" smooth="yes"/>
      <point x="337" y="480"/>
      <point x="287" y="445"/>
      <point x="250" y="398" type="curve"/>
      <point x="242" y="398" type="line"/>
      <point x="236" y="471" type="line"/>
      <point x="140" y="471" type="line"/>
      <point x="140" y="0" type="line"/>
    </contour>
    <contour>
      <point x="69" y="359"/>
      <point x="91" y="406"/>
      <point x="91" y="449" type="curve" smooth="yes"/>
      <point x="91" y="500"/>
      <point x="67" y="526"/>
      <point x="14" y="526" type="curve" smooth="yes"/>
      <point x="-7" y="526"/>
      <point x="-31" y="522"/>
      <point x="-49" y="515" type="curve"/>
      <point x="-49" y="442" type="line"/>
      <point x="4" y="442" type="line"/>
      <point x="3" y="407"/>
      <point x="-8" y="375"/>
      <point x="-29" y="340" type="curve"/>
      <point x="38" y="325" type="line"/>
    </contour>
  </outline>
</glyph>
<glyph name="eng" format="1">
  <advance width="548"/>
  <unicode hex="014B"/>
  <note>
	eng
  </note>
  <outline>
    <contour>
      <point x="427" y="-199"/>
      <point x="482" y="-135"/>
      <point x="482" y="-25" type="curve" smooth="yes"/>
      <point x="482" y="344" type="line" smooth="yes"/>
      <point x="482" y="439"/>
      <point x="437" y="480"/>
      <point x="346" y="480" type="curve" smooth="yes"/>
      <point x="271" y="480"/>
      <point x="221" y="445"/>
      <point x="184" y="398" type="curve"/>
      <point x="176" y="398" type="line"/>
      <point x="170" y="471" type="line"/>
      <point x="74" y="471" type="line"/>
      <point x="74" y="0" type="line"/>
      <point x="181" y="0" type="line"/>
      <point x="181" y="330" type="line"/>
      <point x="211" y="363"/>
      <point x="252" y="381"/>
      <point x="314" y="381" type="curve" smooth="yes"/>
      <point x="333" y="381"/>
      <point x="355" y="379"/>
      <point x="375" y="372" type="curve"/>
      <point x="375" y="-14" type="line" smooth="yes"/>
      <point x="375" y="-41"/>
      <point x="374" y="-74"/>
      <point x="368" y="-95" type="curve"/>
      <point x="339" y="-114"/>
      <point x="297" y="-126"/>
      <point x="251" y="-136" type="curve"/>
      <point x="299" y="-240" type="line"/>
    </contour>
  </outline>
</glyph>
<glyph name="Obreve" format="1">
  <advance width="638"/>
  <unicode hex="014E"/>
  <note>
	Obreve
  </note>
  <outline>
    <contour>
      <point x="503" y="-8"/>
      <point x="590" y="101"/>
      <point x="590" y="321" type="curve" smooth="yes"/>
      <point x="590" y="522"/>
      <point x="506" y="628"/>
      <point x="329" y="628" type="curve" smooth="yes"/>
      <point x="134" y="628"/>
      <point x="48" y="518"/>
      <point x="48" y="298" type="curve" smooth="yes"/>
      <point x="48" y="97"/>
      <point x="136" y="-8"/>
      <point x="308" y="-8" type="curve" smooth="yes"/>
    </contour>
    <contour>
      <point x="195" y="93"/>
      <point x="157" y="164"/>
      <point x="157" y="315" type="curve" smooth="yes"/>
      <point x="157" y="393"/>
      <point x="171" y="456"/>
      <point x="194" y="508" type="curve"/>
      <point x="221" y="519"/>
      <point x="265" y="526"/>
      <point x="312" y="526" type="curve" smooth="yes"/>
      <point x="443" y="526"/>
      <point x="480" y="454"/>
      <point x="480" y="304" type="curve" smooth="yes"/>
      <point x="480" y="225"/>
      <point x="462" y="161"/>
      <point x="440" y="111" type="curve"/>
      <point x="413" y="100"/>
      <point x="372" y="93"/>
      <point x="325" y="93" type="curve" smooth="yes"/>
    </contour>
    <contour>
      <point x="411" y="681"/>
      <point x="454" y="726"/>
      <point x="462" y="805" type="curve"/>
      <point x="366" y="820" type="line"/>
      <point x="364" y="785"/>
      <point x="354" y="765"/>
      <point x="316" y="765" type="curve" smooth="yes"/>
      <point x="278" y="765"/>
      <point x="268" y="785"/>
      <point x="266" y="820" type="curve"/>
      <point x="170" y="805" type="line"/>
      <point x="178" y="726"/>
      <point x="221" y="681"/>
      <point x="316" y="681" type="curve" smooth="yes"/>
    </contour>
  </outline>
</glyph>
<glyph name="obreve" format="1">
  <advance width="532"/>
  <unicode hex="014F"/>
  <note>
	obreve
  </note>
  <outline>
    <contour>
      <point x="420" y="-8"/>
      <point x="486" y="86"/>
      <point x="486" y="236" type="curve" smooth="yes"/>
      <point x="486" y="380"/>
      <point x="432" y="481"/>
      <point x="279" y="481" type="curve" smooth="yes"/>
      <point x="119" y="481"/>
      <point x="46" y="380"/>
      <point x="46" y="229" type="curve" smooth="yes"/>
      <point x="46" y="85"/>
      <point x="100" y="-8"/>
      <point x="253" y="-8" type="curve" smooth="yes"/>
    </contour>
    <contour>
      <point x="173" y="83"/>
      <point x="152" y="127"/>
      <point x="152" y="240" type="curve" smooth="yes"/>
      <point x="152" y="299"/>
      <point x="159" y="343"/>
      <point x="172" y="373" type="curve"/>
      <point x="195" y="382"/>
      <point x="227" y="387"/>
      <point x="258" y="387" type="curve" smooth="yes"/>
      <point x="360" y="387"/>
      <point x="380" y="338"/>
      <point x="380" y="223" type="curve" smooth="yes"/>
      <point x="380" y="165"/>
      <point x="373" y="126"/>
      <point x="360" y="97" type="curve"/>
      <point x="337" y="88"/>
      <point x="306" y="83"/>
      <point x="274" y="83" type="curve" smooth="yes"/>
    </contour>
    <contour>
      <point x="361" y="537"/>
      <point x="404" y="582"/>
      <point x="412" y="661" type="curve"/>
      <point x="316" y="675" type="line"/>
      <point x="314" y="641"/>
      <point x="304" y="621"/>
      <point x="266" y="621" type="curve" smooth="yes"/>
      <point x="228" y="621"/>
      <point x="218" y="641"/>
      <point x="216" y="675" type="curve"/>
      <point x="120" y="661" type="line"/>
      <point x="128" y="582"/>
      <point x="171" y="537"/>
      <point x="266" y="537" type="curve" smooth="yes"/>
    </contour>
  </outline>
</glyph>
<glyph name="Ohungarumlaut" format="1">
  <advance width="638"/>
  <unicode hex="0150"/>
  <note>
	Ohungarumlaut
  </note>
  <outline>
    <contour>
      <point x="503" y="-8"/>
      <point x="590" y="101"/>
      <point x="590" y="321" type="curve" smooth="yes"/>
      <point x="590" y="522"/>
      <point x="506" y="628"/>
      <point x="329" y="628" type="curve" smooth="yes"/>
      <point x="134" y="628"/>
      <point x="48" y="518"/>
      <point x="48" y="298" type="curve" smooth="yes"/>
      <point x="48" y="97"/>
      <point x="136" y="-8"/>
      <point x="308" y="-8" type="curve" smooth="yes"/>
    </contour>
    <contour>
      <point x="195" y="93"/>
      <point x="157" y="164"/>
      <point x="157" y="315" type="curve" smooth="yes"/>
      <point x="157" y="393"/>
      <point x="171" y="456"/>
      <point x="194" y="508" type="curve"/>
      <point x="221" y="519"/>
      <point x="265" y="526"/>
      <point x="312" y="526" type="curve" smooth="yes"/>
      <point x="443" y="526"/>
      <point x="480" y="454"/>
      <point x="480" y="304" type="curve" smooth="yes"/>
      <point x="480" y="225"/>
      <point x="462" y="161"/>
      <point x="440" y="111" type="curve"/>
      <point x="413" y="100"/>
      <point x="372" y="93"/>
      <point x="325" y="93" type="curve" smooth="yes"/>
    </contour>
    <contour>
      <point x="282" y="711"/>
      <point x="304" y="758"/>
      <point x="304" y="801" type="curve" smooth="yes"/>
      <point x="304" y="853"/>
      <point x="280" y="878"/>
      <point x="227" y="878" type="curve" smooth="yes"/>
      <point x="206" y="878"/>
      <point x="183" y="874"/>
      <point x="165" y="867" type="curve"/>
      <point x="165" y="794" type="line"/>
      <point x="218" y="794" type="line"/>
      <point x="217" y="759"/>
      <point x="206" y="728"/>
      <point x="186" y="692" type="curve"/>
      <point x="251" y="677" type="line"/>
    </contour>
    <contour>
      <point x="460" y="711"/>
      <point x="482" y="758"/>
      <point x="482" y="801" type="curve" smooth="yes"/>
      <point x="482" y="853"/>
      <point x="459" y="878"/>
      <point x="406" y="878" type="curve" smooth="yes"/>
      <point x="385" y="878"/>
      <point x="361" y="874"/>
      <point x="343" y="867" type="curve"/>
      <point x="343" y="794" type="line"/>
      <point x="396" y="794" type="line"/>
      <point x="395" y="759"/>
      <point x="384" y="728"/>
      <point x="364" y="692" type="curve"/>
      <point x="429" y="677" type="line"/>
    </contour>
  </outline>
</glyph>
<glyph name="OE" format="1">
  <advance width="908"/>
  <unicode hex="0152"/>
  <note>
	OE
  </note>
  <outline>
    <contour>
      <point x="741" y="-10"/>
      <point x="808" y="-3"/>
      <point x="859" y="11" type="curve"/>
      <point x="840" y="108" type="line"/>
      <point x="787" y="96"/>
      <point x="728" y="90"/>
      <point x="667" y="90" type="curve" smooth="yes"/>
      <point x="620" y="90"/>
      <point x="580" y="95"/>
      <point x="539" y="106" type="curve"/>
      <point x="539" y="259" type="line"/>
      <point x="813" y="259" type="line"/>
      <point x="813" y="355" type="line"/>
      <point x="539" y="355" type="line"/>
      <point x="539" y="517" type="line"/>
      <point x="850" y="517" type="line"/>
      <point x="850" y="618" type="line"/>
      <point x="441" y="618" type="line"/>
      <point x="408" y="624"/>
      <point x="370" y="628"/>
      <point x="329" y="628" type="curve" smooth="yes"/>
      <point x="134" y="628"/>
      <point x="48" y="518"/>
      <point x="48" y="298" type="curve" smooth="yes"/>
      <point x="48" y="97"/>
      <point x="136" y="-9"/>
      <point x="304" y="-9" type="curve" smooth="yes"/>
      <point x="370" y="-9"/>
      <point x="426" y="5"/>
      <point x="467" y="33" type="curve"/>
      <point x="475" y="33" type="line"/>
      <point x="517" y="4"/>
      <point x="583" y="-10"/>
      <point x="661" y="-10" type="curve" smooth="yes"/>
    </contour>
    <contour>
      <point x="195" y="92"/>
      <point x="157" y="164"/>
      <point x="157" y="315" type="curve" smooth="yes"/>
      <point x="157" y="393"/>
      <point x="171" y="456"/>
      <point x="194" y="508" type="curve"/>
      <point x="221" y="519"/>
      <point x="265" y="526"/>
      <point x="312" y="526" type="curve" smooth="yes"/>
      <point x="364" y="526"/>
      <point x="393" y="524"/>
      <point x="433" y="516" type="curve"/>
      <point x="433" y="107" type="line"/>
      <point x="408" y="98"/>
      <point x="368" y="92"/>
      <point x="325" y="92" type="curve" smooth="yes"/>
    </contour>
  </outline>
</glyph>
<glyph name="racute" format="1">
  <advance width="393"/>
  <unicode hex="0155"/>
  <note>
	racute
  </note>
  <outline>
    <contour>
      <point x="177" y="0" type="line"/>
      <point x="177" y="288" type="line"/>
      <point x="201" y="339"/>
      <point x="253" y="360"/>
      <point x="311" y="360" type="curve" smooth="yes"/>
      <point x="356" y="360" type="line"/>
      <point x="367" y="451" type="line"/>
      <point x="360" y="461"/>
      <point x="340" y="475"/>
      <point x="329" y="475" type="curve" smooth="yes"/>
      <point x="269" y="475"/>
      <point x="211" y="438"/>
      <point x="180" y="376" type="curve"/>
      <point x="170" y="376" type="line"/>
      <point x="164" y="470" type="line"/>
      <point x="70" y="470" type="line"/>
      <point x="70" y="0" type="line"/>
    </contour>
    <contour>
      <point x="359" y="687" type="line"/>
      <point x="234" y="700" type="line"/>
      <point x="151" y="547" type="line"/>
      <point x="230" y="534" type="line"/>
    </contour>
  </outline>
</glyph>
<glyph name="scaron" format="1">
  <advance width="450"/>
  <unicode hex="0161"/>
  <note>
	scaron
  </note>
  <outline>
    <contour>
      <point x="353" y="-8"/>
      <point x="407" y="54"/>
      <point x="407" y="134" type="curve" smooth="yes"/>
      <point x="407" y="230"/>
      <point x="350" y="254"/>
      <point x="247" y="276" type="curve" smooth="yes"/>
      <point x="172" y="291"/>
      <point x="148" y="308"/>
      <point x="148" y="344" type="curve" smooth="yes"/>
      <point x="148" y="381"/>
      <point x="169" y="396"/>
      <point x="225" y="396" type="curve" smooth="yes"/>
      <point x="249" y="396"/>
      <point x="267" y="394"/>
      <point x="283" y="392" type="curve"/>
      <point x="291" y="334" type="line"/>
      <point x="373" y="334" type="line"/>
      <point x="381" y="354"/>
      <point x="386" y="392"/>
      <point x="386" y="415" type="curve" smooth="yes"/>
      <point x="386" y="447" type="line"/>
      <point x="351" y="465"/>
      <point x="299" y="480"/>
      <point x="231" y="480" type="curve" smooth="yes"/>
      <point x="98" y="480"/>
      <point x="43" y="414"/>
      <point x="43" y="337" type="curve" smooth="yes"/>
      <point x="43" y="241"/>
      <point x="111" y="213"/>
      <point x="216" y="190" type="curve" smooth="yes"/>
      <point x="290" y="174"/>
      <point x="303" y="163"/>
      <point x="303" y="127" type="curve" smooth="yes"/>
      <point x="303" y="112"/>
      <point x="301" y="99"/>
      <point x="295" y="87" type="curve"/>
      <point x="274" y="83"/>
      <point x="250" y="81"/>
      <point x="217" y="81" type="curve" smooth="yes"/>
      <point x="168" y="81"/>
      <point x="115" y="93"/>
      <point x="71" y="115" type="curve"/>
      <point x="40" y="31" type="line"/>
      <point x="90" y="4"/>
      <point x="149" y="-8"/>
      <point x="215" y="-8" type="curve" smooth="yes"/>
    </contour>
    <contour>
      <point x="264" y="540" type="line"/>
      <point x="361" y="677" type="line"/>
      <point x="297" y="689" type="line"/>
      <point x="220" y="620" type="line"/>
      <point x="214" y="620" type="line"/>
      <point x="135" y="689" type="line"/>
      <point x="72" y="677" type="line"/>
      <point x="170" y="540" type="line"/>
    </contour>
  </outline>
</glyph>
<glyph name="tcaron" format="1">
  <advance width="403"/>
  <unicode hex="0165"/>
  <note>
	tcaron
  </note>
  <outline>
    <contour>
      <point x="310" y="-9"/>
      <point x="351" y="6"/>
      <point x="376" y="20" type="curve"/>
      <point x="354" y="112" type="line"/>
      <point x="326" y="99"/>
      <point x="290" y="90"/>
      <point x="263" y="90" type="curve" smooth="yes"/>
      <point x="244" y="90"/>
      <point x="231" y="93"/>
      <point x="216" y="98" type="curve"/>
      <point x="211" y="112"/>
      <point x="208" y="125"/>
      <point x="208" y="141" type="curve" smooth="yes"/>
      <point x="208" y="372" type="line"/>
      <point x="352" y="372" type="line"/>
      <point x="365" y="460" type="line"/>
      <point x="208" y="460" type="line"/>
      <point x="208" y="596" type="line"/>
      <point x="103" y="596" type="line"/>
      <point x="103" y="460" type="line"/>
      <point x="29" y="460" type="line"/>
      <point x="16" y="372" type="line"/>
      <point x="103" y="372" type="line"/>
      <point x="103" y="106" type="line" smooth="yes"/>
      <point x="103" y="60"/>
      <point x="145" y="24"/>
      <point x="182" y="2" type="curve"/>
      <point x="207" y="-5"/>
      <point x="237" y="-9"/>
      <point x="267" y="-9" type="curve" smooth="yes"/>
    </contour>
    <contour>
      <point x="241" y="671" type="line"/>
      <point x="338" y="807" type="line"/>
      <point x="274" y="820" type="line"/>
      <point x="197" y="751" type="line"/>
      <point x="191" y="751" type="line"/>
      <point x="112" y="820" type="line"/>
      <point x="49" y="807" type="line"/>
      <point x="147" y="671" type="line"/>
    </contour>
  </outline>
</glyph>
<glyph name="utilde" format="1">
  <advance width="538"/>
  <unicode hex="0169"/>
  <note>
	utilde
  </note>
  <outline>
    <contour>
      <point x="273" y="-8"/>
      <point x="319" y="24"/>
      <point x="359" y="72" type="curve"/>
      <point x="367" y="72" type="line"/>
      <point x="373" y="0" type="line"/>
      <point x="468" y="0" type="line"/>
      <point x="468" y="471" type="line"/>
      <point x="360" y="471" type="line"/>
      <point x="360" y="141" type="line"/>
      <point x="329" y="106"/>
      <point x="288" y="89"/>
      <point x="232" y="89" type="curve" smooth="yes"/>
      <point x="214" y="89"/>
      <point x="193" y="91"/>
      <point x="172" y="97" type="curve"/>
      <point x="172" y="471" type="line"/>
      <point x="64" y="471" type="line"/>
      <point x="64" y="132" type="line" smooth="yes"/>
      <point x="64" y="32"/>
      <point x="110" y="-8"/>
      <point x="201" y="-8" type="curve" smooth="yes"/>
    </contour>
    <contour>
      <point x="185" y="571"/>
      <point x="193" y="591"/>
      <point x="219" y="591" type="curve" smooth="yes"/>
      <point x="254" y="591"/>
      <point x="285" y="550"/>
      <point x="332" y="550" type="curve" smooth="yes"/>
      <point x="394" y="550"/>
      <point x="418" y="590"/>
      <point x="421" y="662" type="curve"/>
      <point x="352" y="683" type="line"/>
      <point x="349" y="656"/>
      <point x="342" y="636"/>
      <point x="315" y="636" type="curve" smooth="yes"/>
      <point x="286" y="636"/>
      <point x="250" y="677"/>
      <point x="205" y="677" type="curve" smooth="yes"/>
      <point x="141" y="677"/>
      <point x="117" y="637"/>
      <point x="114" y="565" type="curve"/>
      <point x="183" y="545" type="line"/>
    </contour>
  </outline>
</glyph>
<glyph name="Umacron" format="1">
  <advance width="626"/>
  <unicode hex="016A"/>
  <note>
	Umacron
  </note>
  <outline>
    <contour>
      <point x="447" y="-9"/>
      <point x="557" y="27"/>
      <point x="557" y="131" type="curve" smooth="yes"/>
      <point x="557" y="618" type="line"/>
      <point x="447" y="618" type="line"/>
      <point x="447" y="112" type="line"/>
      <point x="416" y="100"/>
      <point x="372" y="92"/>
      <point x="310" y="92" type="curve" smooth="yes"/>
      <point x="216" y="92"/>
      <point x="179" y="120"/>
      <point x="179" y="214" type="curve" smooth="yes"/>
      <point x="179" y="618" type="line"/>
      <point x="69" y="618" type="line"/>
      <point x="69" y="192" type="line" smooth="yes"/>
      <point x="69" y="63"/>
      <point x="143" y="-9"/>
      <point x="303" y="-9" type="curve" smooth="yes"/>
    </contour>
    <contour>
      <point x="458" y="684" type="line"/>
      <point x="458" y="770" type="line"/>
      <point x="167" y="770" type="line"/>
      <point x="167" y="684" type="line"/>
    </contour>
  </outline>
</glyph>
<glyph name="Uring" format="1">
  <advance width="626"/>
  <unicode hex="016E"/>
  <note>
	Uring
  </note>
  <outline>
    <contour>
      <point x="447" y="-9"/>
      <point x="557" y="27"/>
      <point x="557" y="131" type="curve" smooth="yes"/>
      <point x="557" y="618" type="line"/>
      <point x="447" y="618" type="line"/>
      <point x="447" y="112" type="line"/>
      <point x="416" y="100"/>
      <point x="372" y="92"/>
      <point x="310" y="92" type="curve" smooth="yes"/>
      <point x="216" y="92"/>
      <point x="179" y="120"/>
      <point x="179" y="214" type="curve" smooth="yes"/>
      <point x="179" y="618" type="line"/>
      <point x="69" y="618" type="line"/>
      <point x="69" y="192" type="line" smooth="yes"/>
      <point x="69" y="63"/>
      <point x="143" y="-9"/>
      <point x="303" y="-9" type="curve" smooth="yes"/>
    </contour>
    <contour>
      <point x="391" y="674"/>
      <point x="441" y="716"/>
      <point x="441" y="775" type="curve" smooth="yes"/>
      <point x="441" y="836"/>
      <point x="399" y="877"/>
      <point x="326" y="877" type="curve" smooth="yes"/>
      <point x="234" y="877"/>
      <point x="191" y="827"/>
      <point x="191" y="772" type="curve" smooth="yes"/>
      <point x="191" y="712"/>
      <point x="232" y="674"/>
      <point x="306" y="674" type="curve" smooth="yes"/>
    </contour>
    <contour>
      <point x="284" y="737"/>
      <point x="267" y="753"/>
      <point x="267" y="775" type="curve" smooth="yes"/>
      <point x="267" y="787"/>
      <point x="268" y="798"/>
      <point x="272" y="810" type="curve"/>
      <point x="285" y="814"/>
      <point x="300" y="815"/>
      <point x="320" y="815" type="curve" smooth="yes"/>
      <point x="351" y="815"/>
      <point x="366" y="795"/>
      <point x="366" y="771" type="curve" smooth="yes"/>
      <point x="366" y="760"/>
      <point x="364" y="750"/>
      <point x="362" y="742" type="curve"/>
      <point x="349" y="738"/>
      <point x="333" y="737"/>
      <point x="313" y="737" type="curve" smooth="yes"/>
    </contour>
  </outline>
</glyph>
<glyph name="uring" format="1">
  <advance width="538"/>
  <unicode hex="016F"/>
  <note>
	uring
  </note>
  <outline>
    <contour>
      <point x="273" y="-8"/>
      <point x="319" y="24"/>
      <point x="359" y="72" type="curve"/>
      <point x="367" y="72" type="line"/>
      <point x="373" y="0" type="line"/>
      <point x="468" y="0" type="line"/>
      <point x="468" y="471" type="line"/>
      <point x="360" y="471" type="line"/>
      <point x="360" y="141" type="line"/>
      <point x="329" y="106"/>
      <point x="288" y="89"/>
      <point x="232" y="89" type="curve" smooth="yes"/>
      <point x="214" y="89"/>
      <point x="193" y="91"/>
      <point x="172" y="97" type="curve"/>
      <point x="172" y="471" type="line"/>
      <point x="64" y="471" type="line"/>
      <point x="64" y="132" type="line" smooth="yes"/>
      <point x="64" y="32"/>
      <point x="110" y="-8"/>
      <point x="201" y="-8" type="curve" smooth="yes"/>
    </contour>
    <contour>
      <point x="348" y="532"/>
      <point x="398" y="574"/>
      <point x="398" y="632" type="curve" smooth="yes"/>
      <point x="398" y="694"/>
      <point x="356" y="735"/>
      <point x="283" y="735" type="curve" smooth="yes"/>
      <point x="191" y="735"/>
      <point x="148" y="685"/>
      <point x="148" y="629" type="curve" smooth="yes"/>
      <point x="148" y="569"/>
      <point x="189" y="532"/>
      <point x="263" y="532" type="curve" smooth="yes"/>
    </contour>
    <contour>
      <point x="240" y="594"/>
      <point x="223" y="610"/>
      <point x="223" y="632" type="curve" smooth="yes"/>
      <point x="223" y="645"/>
      <point x="224" y="655"/>
      <point x="228" y="668" type="curve"/>
      <point x="241" y="672"/>
      <point x="256" y="673"/>
      <point x="276" y="673" type="curve" smooth="yes"/>
      <point x="307" y="673"/>
      <point x="322" y="653"/>
      <point x="322" y="628" type="curve" smooth="yes"/>
      <point x="322" y="618"/>
      <point x="320" y="608"/>
      <point x="318" y="599" type="curve"/>
      <point x="305" y="595"/>
      <point x="289" y="594"/>
      <point x="269" y="594" type="curve" smooth="yes"/>
    </contour>
  </outline>
</glyph>
<glyph name="Uhungarumlaut" format="1">
  <advance width="626"/>
  <unicode hex="0170"/>
  <note>
	Uhungarumlaut
  </note>
  <outline>
    <contour>
      <point x="447" y="-9"/>
      <point x="557" y="27"/>
      <point x="557" y="131" type="curve" smooth="yes"/>
      <point x="557" y="618" type="line"/>
      <point x="447" y="618" type="line"/>
      <point x="447" y="112" type="line"/>
      <point x="416" y="100"/>
      <point x="372" y="92"/>
      <point x="310" y="92" type="curve" smooth="yes"/>
      <point x="216" y="92"/>
      <point x="179" y="120"/>
      <point x="179" y="214" type="curve" smooth="yes"/>
      <point x="179" y="618" type="line"/>
      <point x="69" y="618" type="line"/>
      <point x="69" y="192" type="line" smooth="yes"/>
      <point x="69" y="63"/>
      <point x="143" y="-9"/>
      <point x="303" y="-9" type="curve" smooth="yes"/>
    </contour>
    <contour>
      <point x="274" y="711"/>
      <point x="296" y="758"/>
      <point x="296" y="801" type="curve" smooth="yes"/>
      <point x="296" y="853"/>
      <point x="272" y="878"/>
      <point x="219" y="878" type="curve" smooth="yes"/>
      <point x="198" y="878"/>
      <point x="175" y="874"/>
      <point x="157" y="867" type="curve"/>
      <point x="157" y="794" type="line"/>
      <point x="210" y="794" type="line"/>
      <point x="209" y="759"/>
      <point x="198" y="728"/>
      <point x="178" y="692" type="curve"/>
      <point x="243" y="677" type="line"/>
    </contour>
    <contour>
      <point x="452" y="711"/>
      <point x="474" y="758"/>
      <point x="474" y="801" type="curve" smooth="yes"/>
      <point x="474" y="853"/>
      <point x="451" y="878"/>
      <point x="398" y="878" type="curve" smooth="yes"/>
      <point x="377" y="878"/>
      <point x="353" y="874"/>
      <point x="335" y="867" type="curve"/>
      <point x="335" y="794" type="line"/>
      <point x="388" y="794" type="line"/>
      <point x="387" y="759"/>
      <point x="376" y="728"/>
      <point x="356" y="692" type="curve"/>
      <point x="421" y="677" type="line"/>
    </contour>
  </outline>
</glyph>
<glyph name="Uogonek" format="1">
  <advance width="626"/>
  <unicode hex="0172"/>
  <note>
	Uogonek
  </note>
  <outline>
    <contour>
      <point x="377" y="-175"/>
      <point x="403" y="-169"/>
      <point x="422" y="-161" type="curve"/>
      <point x="404" y="-90" type="line"/>
      <point x="390" y="-94"/>
      <point x="378" y="-95"/>
      <point x="365" y="-95" type="curve" smooth="yes"/>
      <point x="351" y="-95"/>
      <point x="339" y="-94"/>
      <point x="329" y="-91" type="curve"/>
      <point x="327" y="-85"/>
      <point x="326" y="-79"/>
      <point x="326" y="-71" type="curve" smooth="yes"/>
      <point x="326" y="-45"/>
      <point x="336" y="-27"/>
      <point x="372" y="-5" type="curve"/>
      <point x="481" y="5"/>
      <point x="557" y="43"/>
      <point x="557" y="131" type="curve" smooth="yes"/>
      <point x="557" y="618" type="line"/>
      <point x="447" y="618" type="line"/>
      <point x="447" y="112" type="line"/>
      <point x="416" y="100"/>
      <point x="372" y="92"/>
      <point x="310" y="92" type="curve" smooth="yes"/>
      <point x="216" y="92"/>
      <point x="179" y="120"/>
      <point x="179" y="214" type="curve" smooth="yes"/>
      <point x="179" y="618" type="line"/>
      <point x="69" y="618" type="line"/>
      <point x="69" y="192" type="line" smooth="yes"/>
      <point x="69" y="69"/>
      <point x="136" y="-1"/>
      <point x="278" y="-8" type="curve"/>
      <point x="247" y="-28"/>
      <point x="230" y="-54"/>
      <point x="230" y="-91" type="curve" smooth="yes"/>
      <point x="230" y="-145"/>
      <point x="270" y="-175"/>
      <point x="346" y="-175" type="curve" smooth="yes"/>
    </contour>
  </outline>
</glyph>
<glyph name="uogonek" format="1">
  <advance width="538"/>
  <unicode hex="0173"/>
  <note>
	uogonek
  </note>
  <outline>
    <contour>
      <point x="273" y="-8"/>
      <point x="319" y="24"/>
      <point x="359" y="72" type="curve"/>
      <point x="367" y="72" type="line"/>
      <point x="373" y="0" type="line"/>
      <point x="468" y="0" type="line"/>
      <point x="468" y="471" type="line"/>
      <point x="360" y="471" type="line"/>
      <point x="360" y="141" type="line"/>
      <point x="329" y="106"/>
      <point x="288" y="89"/>
      <point x="232" y="89" type="curve" smooth="yes"/>
      <point x="214" y="89"/>
      <point x="193" y="91"/>
      <point x="172" y="97" type="curve"/>
      <point x="172" y="471" type="line"/>
      <point x="64" y="471" type="line"/>
      <point x="64" y="132" type="line" smooth="yes"/>
      <point x="64" y="32"/>
      <point x="110" y="-8"/>
      <point x="201" y="-8" type="curve" smooth="yes"/>
    </contour>
    <contour>
      <point x="431" y="-175"/>
      <point x="456" y="-169"/>
      <point x="475" y="-161" type="curve"/>
      <point x="457" y="-90" type="line"/>
      <point x="444" y="-94"/>
      <point x="431" y="-95"/>
      <point x="418" y="-95" type="curve" smooth="yes"/>
      <point x="404" y="-95"/>
      <point x="392" y="-94"/>
      <point x="382" y="-91" type="curve"/>
      <point x="380" y="-85"/>
      <point x="379" y="-79"/>
      <point x="379" y="-71" type="curve" smooth="yes"/>
      <point x="379" y="-39"/>
      <point x="395" y="-19"/>
      <point x="457" y="10" type="curve"/>
      <point x="389" y="19" type="line"/>
      <point x="323" y="-5"/>
      <point x="283" y="-35"/>
      <point x="283" y="-91" type="curve" smooth="yes"/>
      <point x="283" y="-145"/>
      <point x="323" y="-175"/>
      <point x="399" y="-175" type="curve" smooth="yes"/>
    </contour>
  </outline>
</glyph>
<glyph name="Ycircumflex" format="1">
  <advance width="630"/>
  <unicode hex="0176"/>
  <note>
	Ycircumflex
  </note>
  <outline>
    <contour>
      <point x="370" y="0" type="line"/>
      <point x="370" y="201" type="line"/>
      <point x="392" y="201" type="line"/>
      <point x="483" y="328"/>
      <point x="544" y="445"/>
      <point x="606" y="598" type="curve"/>
      <point x="497" y="623" type="line"/>
      <point x="445" y="490"/>
      <point x="386" y="375"/>
      <point x="329" y="288" type="curve"/>
      <point x="301" y="288" type="line"/>
      <point x="243" y="375"/>
      <point x="185" y="490"/>
      <point x="133" y="623" type="curve"/>
      <point x="24" y="598" type="line"/>
      <point x="86" y="445"/>
      <point x="147" y="328"/>
      <point x="238" y="201" type="curve"/>
      <point x="260" y="201" type="line"/>
      <point x="260" y="0" type="line"/>
    </contour>
    <contour>
      <point x="312" y="746" type="line"/>
      <point x="318" y="746" type="line"/>
      <point x="395" y="677" type="line"/>
      <point x="459" y="689" type="line"/>
      <point x="362" y="826" type="line"/>
      <point x="268" y="826" type="line"/>
      <point x="170" y="689" type="line"/>
      <point x="233" y="677" type="line"/>
    </contour>
  </outline>
</glyph>
<glyph name="Zdotaccent" format="1">
  <advance width="578"/>
  <unicode hex="017B"/>
  <note>
	Zdotaccent
  </note>
  <outline>
    <contour>
      <point x="533" y="0" type="line"/>
      <point x="533" y="49" type="line" smooth="yes"/>
      <point x="533" y="91"/>
      <point x="526" y="135"/>
      <point x="516" y="167" type="curve"/>
      <point x="424" y="167" type="line"/>
      <point x="424" y="97" type="line"/>
      <point x="176" y="97" type="line"/>
      <point x="176" y="111" type="line"/>
      <point x="520" y="505" type="line"/>
      <point x="520" y="618" type="line"/>
      <point x="56" y="618" type="line"/>
      <point x="56" y="569" type="line" smooth="yes"/>
      <point x="56" y="526"/>
      <point x="63" y="483"/>
      <point x="73" y="451" type="curve"/>
      <point x="165" y="451" type="line"/>
      <point x="165" y="519" type="line"/>
      <point x="394" y="519" type="line"/>
      <point x="394" y="507" type="line"/>
      <point x="46" y="107" type="line"/>
      <point x="46" y="0" type="line"/>
    </contour>
    <contour>
      <point x="339" y="681"/>
      <point x="365" y="705"/>
      <point x="365" y="745" type="curve" smooth="yes"/>
      <point x="365" y="787"/>
      <point x="339" y="811"/>
      <point x="296" y="811" type="curve" smooth="yes"/>
      <point x="253" y="811"/>
      <point x="228" y="787"/>
      <point x="228" y="745" type="curve" smooth="yes"/>
      <point x="228" y="705"/>
      <point x="253" y="681"/>
      <point x="296" y="681" type="curve" smooth="yes"/>
    </contour>
  </outline>
</glyph>
<glyph name="zdotaccent" format="1">
  <advance width="467"/>
  <unicode hex="017C"/>
  <note>
	zdotaccent
  </note>
  <outline>
    <contour>
      <point x="427" y="0" type="line"/>
      <point x="427" y="52" type="line" smooth="yes"/>
      <point x="427" y="81"/>
      <point x="422" y="115"/>
      <point x="414" y="140" type="curve"/>
      <point x="336" y="140" type="line"/>
      <point x="328" y="84" type="line"/>
      <point x="163" y="84" type="line"/>
      <point x="163" y="94" type="line"/>
      <point x="415" y="364" type="line"/>
      <point x="415" y="471" type="line"/>
      <point x="51" y="471" type="line"/>
      <point x="51" y="417" type="line" smooth="yes"/>
      <point x="51" y="386"/>
      <point x="56" y="350"/>
      <point x="64" y="326" type="curve"/>
      <point x="143" y="326" type="line"/>
      <point x="151" y="384" type="line"/>
      <point x="303" y="384" type="line"/>
      <point x="303" y="375" type="line"/>
      <point x="42" y="97" type="line"/>
      <point x="42" y="0" type="line"/>
    </contour>
    <contour>
      <point x="279" y="537"/>
      <point x="305" y="561"/>
      <point x="305" y="600" type="curve" smooth="yes"/>
      <point x="305" y="643"/>
      <point x="279" y="666"/>
      <point x="236" y="666" type="curve" smooth="yes"/>
      <point x="193" y="666"/>
      <point x="168" y="643"/>
      <point x="168" y="600" type="curve" smooth="yes"/>
      <point x="168" y="561"/>
      <point x="193" y="537"/>
      <point x="236" y="537" type="curve" smooth="yes"/>
    </contour>
  </outline>
</glyph>
<glyph name="Zcaron" format="1">
  <advance width="578"/>
  <unicode hex="017D"/>
  <note>
	Zcaron
  </note>
  <outline>
    <contour>
      <point x="533" y="0" type="line"/>
      <point x="533" y="49" type="line" smooth="yes"/>
      <point x="533" y="91"/>
      <point x="526" y="135"/>
      <point x="516" y="167" type="curve"/>
      <point x="424" y="167" type="line"/>
      <point x="424" y="97" type="line"/>
      <point x="176" y="97" type="line"/>
      <point x="176" y="111" type="line"/>
      <point x="520" y="505" type="line"/>
      <point x="520" y="618" type="line"/>
      <point x="56" y="618" type="line"/>
      <point x="56" y="569" type="line" smooth="yes"/>
      <point x="56" y="526"/>
      <point x="63" y="483"/>
      <point x="73" y="451" type="curve"/>
      <point x="165" y="451" type="line"/>
      <point x="165" y="519" type="line"/>
      <point x="394" y="519" type="line"/>
      <point x="394" y="507" type="line"/>
      <point x="46" y="107" type="line"/>
      <point x="46" y="0" type="line"/>
    </contour>
    <contour>
      <point x="336" y="684" type="line"/>
      <point x="433" y="821" type="line"/>
      <point x="369" y="833" type="line"/>
      <point x="292" y="764" type="line"/>
      <point x="286" y="764" type="line"/>
      <point x="207" y="833" type="line"/>
      <point x="144" y="821" type="line"/>
      <point x="242" y="684" type="line"/>
    </contour>
  </outline>
</glyph>
<glyph name="zcaron" format="1">
  <advance width="467"/>
  <unicode hex="017E"/>
  <note>
	zcaron
  </note>
  <outline>
    <contour>
      <point x="427" y="0" type="line"/>
      <point x="427" y="52" type="line" smooth="yes"/>
      <point x="427" y="81"/>
      <point x="422" y="115"/>
      <point x="414" y="140" type="curve"/>
      <point x="336" y="140" type="line"/>
      <point x="328" y="84" type="line"/>
      <point x="163" y="84" type="line"/>
      <point x="163" y="94" type="line"/>
      <point x="415" y="364" type="line"/>
      <point x="415" y="471" type="line"/>
      <point x="51" y="471" type="line"/>
      <point x="51" y="417" type="line" smooth="yes"/>
      <point x="51" y="386"/>
      <point x="56" y="350"/>
      <point x="64" y="326" type="curve"/>
      <point x="143" y="326" type="line"/>
      <point x="151" y="384" type="line"/>
      <point x="303" y="384" type="line"/>
      <point x="303" y="375" type="line"/>
      <point x="42" y="97" type="line"/>
      <point x="42" y="0" type="line"/>
    </contour>
    <contour>
      <point x="284" y="540" type="line"/>
      <point x="381" y="677" type="line"/>
      <point x="317" y="689" type="line"/>
      <point x="240" y="620" type="line"/>
      <point x="234" y="620" type="line"/>
      <point x="155" y="689" type="line"/>
      <point x="92" y="677" type="line"/>
      <point x="190" y="540" type="line"/>
    </contour>
  </outline>
</glyph>
<glyph name="uni018F" format="1">
  <advance width="644"/>
  <unicode hex="018F"/>
  <note>
	uni018F
  </note>
  <outline>
    <contour>
      <point x="489" y="-10"/>
      <point x="583" y="105"/>
      <point x="583" y="314" type="curve" smooth="yes"/>
      <point x="583" y="506"/>
      <point x="498" y="628"/>
      <point x="297" y="628" type="curve" smooth="yes"/>
      <point x="183" y="628"/>
      <point x="114" y="592"/>
      <point x="52" y="553" type="curve"/>
      <point x="92" y="468" type="line"/>
      <point x="148" y="504"/>
      <point x="199" y="528"/>
      <point x="289" y="528" type="curve" smooth="yes"/>
      <point x="406" y="528"/>
      <point x="472" y="479"/>
      <point x="472" y="356" type="curve"/>
      <point x="151" y="361" type="line"/>
      <point x="48" y="269" type="line"/>
      <point x="47" y="257"/>
      <point x="47" y="246"/>
      <point x="47" y="234" type="curve" smooth="yes"/>
      <point x="47" y="86"/>
      <point x="128" y="-10"/>
      <point x="297" y="-10" type="curve" smooth="yes"/>
    </contour>
    <contour>
      <point x="198" y="88"/>
      <point x="156" y="140"/>
      <point x="156" y="210" type="curve" smooth="yes"/>
      <point x="156" y="230"/>
      <point x="157" y="239"/>
      <point x="160" y="256" type="curve"/>
      <point x="473" y="261" type="line"/>
      <point x="473" y="152"/>
      <point x="425" y="88"/>
      <point x="303" y="88" type="curve" smooth="yes"/>
    </contour>
  </outline>
</glyph>
<glyph name="Ohorn" format="1">
  <advance width="661"/>
  <unicode hex="01A0"/>
  <note>
	Ohorn
  </note>
  <outline>
    <contour>
      <point x="503" y="-9"/>
      <point x="590" y="101"/>
      <point x="590" y="321" type="curve" smooth="yes"/>
      <point x="590" y="394"/>
      <point x="579" y="445"/>
      <point x="558" y="490" type="curve"/>
      <point x="630" y="538"/>
      <point x="659" y="602"/>
      <point x="659" y="716" type="curve"/>
      <point x="555" y="716" type="line"/>
      <point x="555" y="652"/>
      <point x="544" y="606"/>
      <point x="521" y="563" type="curve"/>
      <point x="509" y="563" type="line"/>
      <point x="467" y="607"/>
      <point x="409" y="628"/>
      <point x="329" y="628" type="curve" smooth="yes"/>
      <point x="134" y="628"/>
      <point x="48" y="518"/>
      <point x="48" y="298" type="curve" smooth="yes"/>
      <point x="48" y="97"/>
      <point x="136" y="-9"/>
      <point x="308" y="-9" type="curve" smooth="yes"/>
    </contour>
    <contour>
      <point x="195" y="92"/>
      <point x="157" y="164"/>
      <point x="157" y="315" type="curve" smooth="yes"/>
      <point x="157" y="393"/>
      <point x="171" y="456"/>
      <point x="194" y="508" type="curve"/>
      <point x="221" y="519"/>
      <point x="265" y="526"/>
      <point x="312" y="526" type="curve" smooth="yes"/>
      <point x="443" y="526"/>
      <point x="480" y="454"/>
      <point x="480" y="304" type="curve" smooth="yes"/>
      <point x="480" y="225"/>
      <point x="462" y="161"/>
      <point x="440" y="110" type="curve"/>
      <point x="413" y="99"/>
      <point x="372" y="92"/>
      <point x="325" y="92" type="curve" smooth="yes"/>
    </contour>
  </outline>
</glyph>
<glyph name="Uhorn" format="1">
  <advance width="731"/>
  <unicode hex="01AF"/>
  <note>
	Uhorn
  </note>
  <outline>
    <contour>
      <point x="438" y="-10"/>
      <point x="548" y="25"/>
      <point x="548" y="129" type="curve" smooth="yes"/>
      <point x="548" y="424" type="line"/>
      <point x="676" y="460"/>
      <point x="750" y="549"/>
      <point x="750" y="698" type="curve"/>
      <point x="644" y="698" type="line"/>
      <point x="644" y="611"/>
      <point x="614" y="554"/>
      <point x="555" y="522" type="curve"/>
      <point x="546" y="522" type="line"/>
      <point x="546" y="618" type="line"/>
      <point x="438" y="618" type="line"/>
      <point x="438" y="111" type="line"/>
      <point x="407" y="99"/>
      <point x="363" y="91"/>
      <point x="301" y="91" type="curve" smooth="yes"/>
      <point x="207" y="91"/>
      <point x="170" y="119"/>
      <point x="170" y="212" type="curve" smooth="yes"/>
      <point x="170" y="618" type="line"/>
      <point x="60" y="618" type="line"/>
      <point x="60" y="190" type="line" smooth="yes"/>
      <point x="60" y="61"/>
      <point x="134" y="-10"/>
      <point x="294" y="-10" type="curve" smooth="yes"/>
    </contour>
  </outline>
</glyph>
<glyph name="Icaron" format="1">
  <advance width="258"/>
  <unicode hex="01CF"/>
  <note>
	Icaron
  </note>
  <outline>
    <contour>
      <point x="184" y="0" type="line"/>
      <point x="184" y="618" type="line"/>
      <point x="74" y="618" type="line"/>
      <point x="74" y="0" type="line"/>
    </contour>
    <contour>
      <point x="176" y="684" type="line"/>
      <point x="274" y="821" type="line"/>
      <point x="209" y="833" type="line"/>
      <point x="132" y="764" type="line"/>
      <point x="127" y="764" type="line"/>
      <point x="47" y="833" type="line"/>
      <point x="-16" y="821" type="line"/>
      <point x="83" y="684" type="line"/>
    </contour>
  </outline>
</glyph>
<glyph name="icaron" format="1">
  <advance width="244"/>
  <unicode hex="01D0"/>
  <note>
	icaron
  </note>
  <outline>
    <contour>
      <point x="175" y="0" type="line"/>
      <point x="175" y="470" type="line"/>
      <point x="69" y="470" type="line"/>
      <point x="69" y="0" type="line"/>
    </contour>
    <contour>
      <point x="170" y="540" type="line"/>
      <point x="267" y="677" type="line"/>
      <point x="202" y="689" type="line"/>
      <point x="126" y="620" type="line"/>
      <point x="120" y="620" type="line"/>
      <point x="40" y="689" type="line"/>
      <point x="-22" y="677" type="line"/>
      <point x="76" y="540" type="line"/>
    </contour>
  </outline>
</glyph>
<glyph name="Ocaron" format="1">
  <advance width="638"/>
  <unicode hex="01D1"/>
  <note>
	Ocaron
  </note>
  <outline>
    <contour>
      <point x="503" y="-8"/>
      <point x="590" y="101"/>
      <point x="590" y="321" type="curve" smooth="yes"/>
      <point x="590" y="522"/>
      <point x="506" y="628"/>
      <point x="329" y="628" type="curve" smooth="yes"/>
      <point x="134" y="628"/>
      <point x="48" y="518"/>
      <point x="48" y="298" type="curve" smooth="yes"/>
      <point x="48" y="97"/>
      <point x="136" y="-8"/>
      <point x="308" y="-8" type="curve" smooth="yes"/>
    </contour>
    <contour>
      <point x="195" y="93"/>
      <point x="157" y="164"/>
      <point x="157" y="315" type="curve" smooth="yes"/>
      <point x="157" y="393"/>
      <point x="171" y="456"/>
      <point x="194" y="508" type="curve"/>
      <point x="221" y="519"/>
      <point x="265" y="526"/>
      <point x="312" y="526" type="curve" smooth="yes"/>
      <point x="443" y="526"/>
      <point x="480" y="454"/>
      <point x="480" y="304" type="curve" smooth="yes"/>
      <point x="480" y="225"/>
      <point x="462" y="161"/>
      <point x="440" y="111" type="curve"/>
      <point x="413" y="100"/>
      <point x="372" y="93"/>
      <point x="325" y="93" type="curve" smooth="yes"/>
    </contour>
    <contour>
      <point x="366" y="684" type="line"/>
      <point x="463" y="821" type="line"/>
      <point x="399" y="833" type="line"/>
      <point x="322" y="764" type="line"/>
      <point x="316" y="764" type="line"/>
      <point x="237" y="833" type="line"/>
      <point x="174" y="821" type="line"/>
      <point x="272" y="684" type="line"/>
    </contour>
  </outline>
</glyph>
<glyph name="ucaron" format="1">
  <advance width="538"/>
  <unicode hex="01D4"/>
  <note>
	ucaron
  </note>
  <outline>
    <contour>
      <point x="273" y="-8"/>
      <point x="319" y="24"/>
      <point x="359" y="72" type="curve"/>
      <point x="367" y="72" type="line"/>
      <point x="373" y="0" type="line"/>
      <point x="468" y="0" type="line"/>
      <point x="468" y="471" type="line"/>
      <point x="360" y="471" type="line"/>
      <point x="360" y="141" type="line"/>
      <point x="329" y="106"/>
      <point x="288" y="89"/>
      <point x="232" y="89" type="curve" smooth="yes"/>
      <point x="214" y="89"/>
      <point x="193" y="91"/>
      <point x="172" y="97" type="curve"/>
      <point x="172" y="471" type="line"/>
      <point x="64" y="471" type="line"/>
      <point x="64" y="132" type="line" smooth="yes"/>
      <point x="64" y="32"/>
      <point x="110" y="-8"/>
      <point x="201" y="-8" type="curve" smooth="yes"/>
    </contour>
    <contour>
      <point x="314" y="540" type="line"/>
      <point x="411" y="677" type="line"/>
      <point x="347" y="689" type="line"/>
      <point x="270" y="620" type="line"/>
      <point x="264" y="620" type="line"/>
      <point x="185" y="689" type="line"/>
      <point x="122" y="677" type="line"/>
      <point x="220" y="540" type="line"/>
    </contour>
  </outline>
</glyph>
<glyph name="udieresismacron" format="1">
  <advance width="538"/>
  <unicode hex="01D6"/>
  <note>
	udieresismacron
  </note>
  <outline>
    <contour>
      <point x="273" y="-8"/>
      <point x="319" y="24"/>
      <point x="359" y="72" type="curve"/>
      <point x="367" y="72" type="line"/>
      <point x="373" y="0" type="line"/>
      <point x="468" y="0" type="line"/>
      <point x="468" y="471" type="line"/>
      <point x="360" y="471" type="line"/>
      <point x="360" y="141" type="line"/>
      <point x="329" y="106"/>
      <point x="288" y="89"/>
      <point x="232" y="89" type="curve" smooth="yes"/>
      <point x="214" y="89"/>
      <point x="193" y="91"/>
      <point x="172" y="97" type="curve"/>
      <point x="172" y="471" type="line"/>
      <point x="64" y="471" type="line"/>
      <point x="64" y="132" type="line" smooth="yes"/>
      <point x="64" y="32"/>
      <point x="110" y="-8"/>
      <point x="201" y="-8" type="curve" smooth="yes"/>
    </contour>
    <contour>
      <point x="221" y="536"/>
      <point x="242" y="556"/>
      <point x="242" y="589" type="curve" smooth="yes"/>
      <point x="242" y="624"/>
      <point x="221" y="643"/>
      <point x="185" y="643" type="curve" smooth="yes"/>
      <point x="150" y="643"/>
      <point x="129" y="624"/>
      <point x="129" y="589" type="curve" smooth="yes"/>
      <point x="129" y="556"/>
      <point x="150" y="536"/>
      <point x="185" y="536" type="curve" smooth="yes"/>
    </contour>
    <contour>
      <point x="387" y="536"/>
      <point x="407" y="556"/>
      <point x="407" y="589" type="curve" smooth="yes"/>
      <point x="407" y="624"/>
      <point x="387" y="643"/>
      <point x="351" y="643" type="curve" smooth="yes"/>
      <point x="315" y="643"/>
      <point x="294" y="624"/>
      <point x="294" y="589" type="curve" smooth="yes"/>
      <point x="294" y="556"/>
      <point x="315" y="536"/>
      <point x="351" y="536" type="curve" smooth="yes"/>
    </contour>
    <contour>
      <point x="433" y="694" type="line"/>
      <point x="433" y="790" type="line"/>
      <point x="102" y="790" type="line"/>
      <point x="102" y="694" type="line"/>
    </contour>
  </outline>
</glyph>
<glyph name="udieresisacute" format="1">
  <advance width="538"/>
  <unicode hex="01D8"/>
  <note>
	udieresisacute
  </note>
  <outline>
    <contour>
      <point x="273" y="-8"/>
      <point x="319" y="24"/>
      <point x="359" y="72" type="curve"/>
      <point x="367" y="72" type="line"/>
      <point x="373" y="0" type="line"/>
      <point x="468" y="0" type="line"/>
      <point x="468" y="471" type="line"/>
      <point x="360" y="471" type="line"/>
      <point x="360" y="141" type="line"/>
      <point x="329" y="106"/>
      <point x="288" y="89"/>
      <point x="232" y="89" type="curve" smooth="yes"/>
      <point x="214" y="89"/>
      <point x="193" y="91"/>
      <point x="172" y="97" type="curve"/>
      <point x="172" y="471" type="line"/>
      <point x="64" y="471" type="line"/>
      <point x="64" y="132" type="line" smooth="yes"/>
      <point x="64" y="32"/>
      <point x="110" y="-8"/>
      <point x="201" y="-8" type="curve" smooth="yes"/>
    </contour>
    <contour>
      <point x="221" y="537"/>
      <point x="242" y="556"/>
      <point x="242" y="589" type="curve" smooth="yes"/>
      <point x="242" y="624"/>
      <point x="221" y="644"/>
      <point x="185" y="644" type="curve" smooth="yes"/>
      <point x="150" y="644"/>
      <point x="129" y="624"/>
      <point x="129" y="589" type="curve" smooth="yes"/>
      <point x="129" y="556"/>
      <point x="150" y="537"/>
      <point x="185" y="537" type="curve" smooth="yes"/>
    </contour>
    <contour>
      <point x="387" y="537"/>
      <point x="407" y="556"/>
      <point x="407" y="589" type="curve" smooth="yes"/>
      <point x="407" y="624"/>
      <point x="387" y="644"/>
      <point x="351" y="644" type="curve" smooth="yes"/>
      <point x="315" y="644"/>
      <point x="294" y="624"/>
      <point x="294" y="589" type="curve" smooth="yes"/>
      <point x="294" y="556"/>
      <point x="315" y="537"/>
      <point x="351" y="537" type="curve" smooth="yes"/>
    </contour>
    <contour>
      <point x="432" y="857" type="line"/>
      <point x="307" y="870" type="line"/>
      <point x="224" y="718" type="line"/>
      <point x="303" y="704" type="line"/>
    </contour>
  </outline>
</glyph>
<glyph name="Udieresiscaron" format="1">
  <advance width="626"/>
  <unicode hex="01D9"/>
  <note>
	Udieresiscaron
  </note>
  <outline>
    <contour>
      <point x="447" y="-9"/>
      <point x="557" y="27"/>
      <point x="557" y="131" type="curve" smooth="yes"/>
      <point x="557" y="618" type="line"/>
      <point x="447" y="618" type="line"/>
      <point x="447" y="112" type="line"/>
      <point x="416" y="100"/>
      <point x="372" y="92"/>
      <point x="310" y="92" type="curve" smooth="yes"/>
      <point x="216" y="92"/>
      <point x="179" y="120"/>
      <point x="179" y="214" type="curve" smooth="yes"/>
      <point x="179" y="618" type="line"/>
      <point x="69" y="618" type="line"/>
      <point x="69" y="192" type="line" smooth="yes"/>
      <point x="69" y="63"/>
      <point x="143" y="-9"/>
      <point x="303" y="-9" type="curve" smooth="yes"/>
    </contour>
    <contour>
      <point x="266" y="681"/>
      <point x="287" y="701"/>
      <point x="287" y="734" type="curve" smooth="yes"/>
      <point x="287" y="769"/>
      <point x="266" y="788"/>
      <point x="230" y="788" type="curve" smooth="yes"/>
      <point x="195" y="788"/>
      <point x="174" y="769"/>
      <point x="174" y="734" type="curve" smooth="yes"/>
      <point x="174" y="701"/>
      <point x="195" y="681"/>
      <point x="230" y="681" type="curve" smooth="yes"/>
    </contour>
    <contour>
      <point x="432" y="681"/>
      <point x="452" y="701"/>
      <point x="452" y="734" type="curve" smooth="yes"/>
      <point x="452" y="769"/>
      <point x="432" y="788"/>
      <point x="396" y="788" type="curve" smooth="yes"/>
      <point x="360" y="788"/>
      <point x="339" y="769"/>
      <point x="339" y="734" type="curve" smooth="yes"/>
      <point x="339" y="701"/>
      <point x="360" y="681"/>
      <point x="396" y="681" type="curve" smooth="yes"/>
    </contour>
    <contour>
      <point x="356" y="839" type="line"/>
      <point x="453" y="975" type="line"/>
      <point x="390" y="987" type="line"/>
      <point x="314" y="918" type="line"/>
      <point x="308" y="918" type="line"/>
      <point x="228" y="987" type="line"/>
      <point x="167" y="975" type="line"/>
      <point x="265" y="839" type="line"/>
    </contour>
  </outline>
</glyph>
<glyph name="Aringacute" format="1">
  <advance width="624"/>
  <unicode hex="01FA"/>
  <note>
	Aringacute
  </note>
  <outline>
    <contour>
      <point x="385" y="672"/>
      <point x="435" y="714"/>
      <point x="435" y="773" type="curve" smooth="yes"/>
      <point x="435" y="835"/>
      <point x="393" y="876"/>
      <point x="320" y="876" type="curve" smooth="yes"/>
      <point x="228" y="876"/>
      <point x="185" y="825"/>
      <point x="185" y="770" type="curve" smooth="yes"/>
      <point x="185" y="710"/>
      <point x="226" y="672"/>
      <point x="300" y="672" type="curve" smooth="yes"/>
    </contour>
    <contour>
      <point x="277" y="735"/>
      <point x="260" y="751"/>
      <point x="260" y="773" type="curve" smooth="yes"/>
      <point x="260" y="785"/>
      <point x="261" y="796"/>
      <point x="265" y="809" type="curve"/>
      <point x="278" y="812"/>
      <point x="293" y="813"/>
      <point x="313" y="813" type="curve" smooth="yes"/>
      <point x="344" y="813"/>
      <point x="359" y="794"/>
      <point x="359" y="769" type="curve" smooth="yes"/>
      <point x="359" y="759"/>
      <point x="357" y="749"/>
      <point x="355" y="740" type="curve"/>
      <point x="342" y="736"/>
      <point x="326" y="735"/>
      <point x="306" y="735" type="curve" smooth="yes"/>
    </contour>
    <contour>
      <point x="462" y="1075" type="line"/>
      <point x="337" y="1088" type="line"/>
      <point x="254" y="935" type="line"/>
      <point x="333" y="921" type="line"/>
    </contour>
    <component base="A"/>
  </outline>
</glyph>
<glyph name="scommaaccent" format="1">
  <advance width="450"/>
  <unicode hex="0219"/>
  <note>
	scommaaccent
  </note>
  <outline>
    <contour>
      <point x="353" y="-8"/>
      <point x="407" y="54"/>
      <point x="407" y="134" type="curve" smooth="yes"/>
      <point x="407" y="230"/>
      <point x="350" y="254"/>
      <point x="247" y="276" type="curve" smooth="yes"/>
      <point x="172" y="291"/>
      <point x="148" y="308"/>
      <point x="148" y="344" type="curve" smooth="yes"/>
      <point x="148" y="381"/>
      <point x="169" y="396"/>
      <point x="225" y="396" type="curve" smooth="yes"/>
      <point x="249" y="396"/>
      <point x="267" y="394"/>
      <point x="283" y="392" type="curve"/>
      <point x="291" y="334" type="line"/>
      <point x="373" y="334" type="line"/>
      <point x="381" y="354"/>
      <point x="386" y="392"/>
      <point x="386" y="415" type="curve" smooth="yes"/>
      <point x="386" y="447" type="line"/>
      <point x="351" y="465"/>
      <point x="299" y="480"/>
      <point x="231" y="480" type="curve" smooth="yes"/>
      <point x="98" y="480"/>
      <point x="43" y="414"/>
      <point x="43" y="337" type="curve" smooth="yes"/>
      <point x="43" y="241"/>
      <point x="111" y="213"/>
      <point x="216" y="190" type="curve" smooth="yes"/>
      <point x="290" y="174"/>
      <point x="303" y="163"/>
      <point x="303" y="127" type="curve" smooth="yes"/>
      <point x="303" y="112"/>
      <point x="301" y="99"/>
      <point x="295" y="87" type="curve"/>
      <point x="274" y="83"/>
      <point x="250" y="81"/>
      <point x="217" y="81" type="curve" smooth="yes"/>
      <point x="168" y="81"/>
      <point x="115" y="93"/>
      <point x="71" y="115" type="curve"/>
      <point x="40" y="31" type="line"/>
      <point x="90" y="4"/>
      <point x="149" y="-8"/>
      <point x="215" y="-8" type="curve" smooth="yes"/>
    </contour>
    <contour>
      <point x="284" y="-224"/>
      <point x="305" y="-177"/>
      <point x="305" y="-134" type="curve" smooth="yes"/>
      <point x="305" y="-82"/>
      <point x="281" y="-57"/>
      <point x="228" y="-57" type="curve" smooth="yes"/>
      <point x="207" y="-57"/>
      <point x="183" y="-61"/>
      <point x="165" y="-67" type="curve"/>
      <point x="165" y="-141" type="line"/>
      <point x="218" y="-141" type="line"/>
      <point x="217" y="-176"/>
      <point x="206" y="-207"/>
      <point x="186" y="-243" type="curve"/>
      <point x="253" y="-258" type="line"/>
    </contour>
  </outline>
</glyph>
<glyph name="dotlessj" format="1">
  <advance width="297"/>
  <unicode hex="0237"/>
  <note>
	dotlessj
  </note>
  <outline>
    <contour>
      <point x="181" y="-198"/>
      <point x="231" y="-138"/>
      <point x="231" y="-43" type="curve" smooth="yes"/>
      <point x="231" y="468" type="line"/>
      <point x="125" y="468" type="line"/>
      <point x="125" y="-35" type="line" smooth="yes"/>
      <point x="125" y="-57"/>
      <point x="124" y="-76"/>
      <point x="118" y="-92" type="curve"/>
      <point x="102" y="-97"/>
      <point x="88" y="-99"/>
      <point x="68" y="-99" type="curve" smooth="yes"/>
      <point x="39" y="-99"/>
      <point x="21" y="-95"/>
      <point x="-11" y="-85" type="curve"/>
      <point x="-38" y="-177" type="line"/>
      <point x="-4" y="-190"/>
      <point x="40" y="-198"/>
      <point x="75" y="-198" type="curve" smooth="yes"/>
    </contour>
  </outline>
</glyph>
<glyph name="schwa" format="1">
  <advance width="503"/>
  <unicode hex="0259"/>
  <note>
	schwa
  </note>
  <outline>
    <contour>
      <point x="378" y="-6"/>
      <point x="457" y="85"/>
      <point x="457" y="243" type="curve" smooth="yes"/>
      <point x="457" y="392"/>
      <point x="389" y="480"/>
      <point x="234" y="480" type="curve" smooth="yes"/>
      <point x="144" y="480"/>
      <point x="91" y="455"/>
      <point x="47" y="428" type="curve"/>
      <point x="77" y="345" type="line"/>
      <point x="118" y="371"/>
      <point x="160" y="389"/>
      <point x="229" y="389" type="curve" smooth="yes"/>
      <point x="314" y="389"/>
      <point x="352" y="350"/>
      <point x="353" y="275" type="curve"/>
      <point x="111" y="279" type="line"/>
      <point x="46" y="215" type="line"/>
      <point x="36" y="83"/>
      <point x="97" y="-6"/>
      <point x="235" y="-6" type="curve" smooth="yes"/>
    </contour>
    <contour>
      <point x="177" y="84"/>
      <point x="144" y="115"/>
      <point x="144" y="163" type="curve" smooth="yes"/>
      <point x="144" y="172"/>
      <point x="146" y="186"/>
      <point x="149" y="200" type="curve"/>
      <point x="354" y="204" type="line"/>
      <point x="351" y="126"/>
      <point x="325" y="84"/>
      <point x="239" y="84" type="curve" smooth="yes"/>
    </contour>
  </outline>
</glyph>
<glyph name="uni02BB" format="1">
  <advance width="264"/>
  <unicode hex="02BB"/>
  <note>
	uni02BB
  </note>
  <outline>
    <contour>
      <point x="156" y="422"/>
      <point x="178" y="427"/>
      <point x="197" y="433" type="curve"/>
      <point x="197" y="507" type="line"/>
      <point x="144" y="507" type="line"/>
      <point x="145" y="542"/>
      <point x="156" y="573"/>
      <point x="176" y="609" type="curve"/>
      <point x="110" y="624" type="line"/>
      <point x="79" y="590"/>
      <point x="58" y="543"/>
      <point x="58" y="500" type="curve" smooth="yes"/>
      <point x="58" y="448"/>
      <point x="82" y="422"/>
      <point x="134" y="422" type="curve" smooth="yes"/>
    </contour>
  </outline>
</glyph>
<glyph name="uni02BF" format="1">
  <advance width="196"/>
  <unicode hex="02BF"/>
  <note>
	uni02BF
  </note>
  <outline>
    <contour>
      <point x="153" y="508" type="line"/>
      <point x="142" y="507"/>
      <point x="127" y="507"/>
      <point x="118" y="509" type="curve"/>
      <point x="115" y="515"/>
      <point x="114" y="521"/>
      <point x="114" y="530" type="curve" smooth="yes"/>
      <point x="114" y="549"/>
      <point x="126" y="559"/>
      <point x="153" y="559" type="curve"/>
      <point x="153" y="624" type="line"/>
      <point x="70" y="624"/>
      <point x="32" y="595"/>
      <point x="32" y="535" type="curve" smooth="yes"/>
      <point x="32" y="479"/>
      <point x="71" y="447"/>
      <point x="153" y="447" type="curve"/>
    </contour>
  </outline>
</glyph>
<glyph name="caron" format="1">
  <advance width="334"/>
  <unicode hex="02C7"/>
  <note>
	caron
  </note>
  <outline>
    <contour>
      <point x="214" y="468" type="line"/>
      <point x="311" y="605" type="line"/>
      <point x="247" y="618" type="line"/>
      <point x="170" y="548" type="line"/>
      <point x="164" y="548" type="line"/>
      <point x="85" y="618" type="line"/>
      <point x="22" y="605" type="line"/>
      <point x="120" y="468" type="line"/>
    </contour>
  </outline>
</glyph>
<glyph name="uni02C8" format="1">
  <advance width="175"/>
  <unicode hex="02C8"/>
  <note>
	uni02C8
  </note>
  <outline>
    <contour>
      <point x="134" y="472" type="line"/>
      <point x="134" y="681" type="line"/>
      <point x="41" y="681" type="line"/>
      <point x="41" y="472" type="line"/>
    </contour>
  </outline>
</glyph>
<glyph name="uni02C9" format="1">
  <advance width="307"/>
  <unicode hex="02C9"/>
  <note>
	uni02C9
  </note>
  <outline>
    <contour>
      <point x="268" y="472" type="line"/>
      <point x="268" y="556" type="line"/>
      <point x="38" y="556" type="line"/>
      <point x="38" y="472" type="line"/>
    </contour>
  </outline>
</glyph>
<glyph name="uni02CA" format="1">
  <advance width="263"/>
  <unicode hex="02CA"/>
  <note>
	uni02CA
  </note>
  <outline>
    <contour>
      <point x="235" y="597" type="line"/>
      <point x="110" y="610" type="line"/>
      <point x="48" y="477" type="line"/>
      <point x="127" y="463" type="line"/>
    </contour>
  </outline>
</glyph>
<glyph name="uni02CB" format="1">
  <advance width="263"/>
  <unicode hex="02CB"/>
  <note>
	uni02CB
  </note>
  <outline>
    <contour>
      <point x="223" y="477" type="line"/>
      <point x="161" y="610" type="line"/>
      <point x="36" y="597" type="line"/>
      <point x="144" y="463" type="line"/>
    </contour>
  </outline>
</glyph>
<glyph name="breve" format="1">
  <advance width="370"/>
  <unicode hex="02D8"/>
  <note>
	breve
  </note>
  <outline>
    <contour>
      <point x="280" y="479"/>
      <point x="323" y="524"/>
      <point x="331" y="603" type="curve"/>
      <point x="235" y="618" type="line"/>
      <point x="233" y="583"/>
      <point x="223" y="563"/>
      <point x="185" y="563" type="curve" smooth="yes"/>
      <point x="147" y="563"/>
      <point x="137" y="583"/>
      <point x="135" y="618" type="curve"/>
      <point x="39" y="603" type="line"/>
      <point x="47" y="524"/>
      <point x="90" y="479"/>
      <point x="185" y="479" type="curve" smooth="yes"/>
    </contour>
  </outline>
</glyph>
<glyph name="dotaccent" format="1">
  <advance width="318"/>
  <unicode hex="02D9"/>
  <note>
	dotaccent
  </note>
  <outline>
    <contour>
      <point x="202" y="484"/>
      <point x="228" y="508"/>
      <point x="228" y="548" type="curve" smooth="yes"/>
      <point x="228" y="590"/>
      <point x="202" y="614"/>
      <point x="159" y="614" type="curve" smooth="yes"/>
      <point x="116" y="614"/>
      <point x="91" y="590"/>
      <point x="91" y="548" type="curve" smooth="yes"/>
      <point x="91" y="508"/>
      <point x="116" y="484"/>
      <point x="159" y="484" type="curve" smooth="yes"/>
    </contour>
  </outline>
</glyph>
